/* XPM */
static char *_c2ac583f824488af3a9f3a919c61cc97zeEURKYfNXLikRj[] = {
/* columns rows colors chars-per-pixel */
"64 64 137 2 ",
"   c #010101",
".  c #0B0B0B",
"X  c #131313",
"o  c #1B1B1B",
"O  c #221B1B",
"+  c #242424",
"@  c #2A2323",
"#  c #2B2B2B",
"$  c #343434",
"%  c #383131",
"&  c #3B3B3B",
"*  c #444444",
"=  c #4D4747",
"-  c #4B4B4B",
";  c #545454",
":  c #595555",
">  c #5A5956",
",  c #575858",
"<  c #5E5D5C",
"1  c #605F5E",
"2  c #60605F",
"3  c #5E5E61",
"4  c #5F6062",
"5  c #616161",
"6  c #696565",
"7  c #696967",
"8  c #6B6B6B",
"9  c #71716F",
"0  c #737373",
"q  c #7C7777",
"w  c #797977",
"e  c #7C7C7C",
"r  c #82827F",
"t  c #82827F",
"y  c #7F7F82",
"u  c #808080",
"i  c #818181",
"p  c #838280",
"a  c #838380",
"s  c #838381",
"d  c #808083",
"f  c gray51",
"g  c #838383",
"h  c #848482",
"j  c #858583",
"k  c #818184",
"l  c #848484",
"z  c gray52",
"x  c #868684",
"c  c #878784",
"v  c #878785",
"b  c gray53",
"n  c #838383",
"m  c #888886",
"M  c #898987",
"N  c #888888",
"B  c gray54",
"V  c #8B8B8B",
"C  c #8C8C89",
"Z  c #8C8C8A",
"A  c #8A8A8D",
"S  c #8B8C8E",
"D  c gray55",
"F  c #8F8F8C",
"G  c #8C8D8F",
"H  c #8E8E8E",
"J  c gray56",
"K  c #8B8B8B",
"L  c #908F8E",
"P  c #928E8E",
"I  c #8D8E90",
"U  c gray57",
"Y  c #929290",
"T  c #939391",
"R  c #929292",
"E  c #939393",
"W  c #949492",
"Q  c #959593",
"!  c #959594",
"~  c #959595",
"^  c gray59",
"/  c #979797",
"(  c #949494",
")  c #97979A",
"_  c gray60",
"`  c #9A9A98",
"'  c #9B9B99",
"]  c #98989B",
"[  c #9B9B9A",
"{  c #9B9B9B",
"}  c #999A9C",
"|  c #9A9B9D",
" . c gray61",
".. c #9D9D9D",
"X. c #9E9D9C",
"o. c #9E9E9C",
"O. c gray62",
"+. c #9F9F9F",
"@. c #9C9C9C",
"#. c gray63",
"$. c #A2A1A0",
"%. c #A2A2A0",
"&. c #A0A0A3",
"*. c #A0A1A3",
"=. c gray64",
"-. c #A3A3A6",
";. c gray65",
":. c #A7A7A7",
">. c #A4A4A4",
",. c #A6A7A9",
"<. c #A7A7AA",
"1. c #A8A8AB",
"2. c #ACACAC",
"3. c gray68",
"4. c #ABABAB",
"5. c #B1B1B1",
"6. c #B2B2B2",
"7. c gray70",
"8. c #B4B4B4",
"9. c gray71",
"0. c #B6B6B6",
"q. c #B7B7B7",
"w. c #B4B4B4",
"e. c gray72",
"r. c #BBBBBB",
"t. c #BCBCBC",
"y. c #BBBBBB",
"u. c #C4C4C4",
"i. c #C7C8C8",
"p. c #CCCCCC",
"a. c #D3D3D3",
"s. c #DCDCDC",
"d. c #E3E3E3",
"f. c #ECECEC",
"g. c #F5F5F5",
"h. c #F7F8F8",
"j. c #FBFBFB",
/* pixels */
"6 4 5 5 6 4 4 4 3 4 0 S *.1.} d 7 6 4 0 S ;.:./ d 8 4 4 < 2 5 5 6 6 6 4 5 4 5 5 4 4 4 5 0 I %.1...g 8 5 0 0 I ;.,./ n 8 4 < < 5 ",
"3 > > < 3 < < , > 4 9 c ` %.T e 7 < 3 9 c ..%.T e 5 > , < < < 3 < < < < 2 2 3 4 > > > < 8 z / $.T e 6 4 9 8 m +.*.T w 7 > , > < ",
"2 > > > > > > , > < 7 w c C t 9 2 2 < 7 e B H n 9 2 > > < > < 3 > < < < > < > > > > > < 7 w z B t 9 5 3 7 7 e C F n 9 2 > > ; < ",
"2 < > > > > > , < 3 5 8 9 0 8 7 2 2 3 7 9 0 w 9 7 2 3 3 < < 2 2 4 3 < < < > > > > > < < 5 8 0 0 8 7 2 3 5 7 8 w w 9 8 3 2 > > < ",
"5 < < < < < < 3 3 4 4 4 5 5 5 5 3 3 2 5 4 6 6 5 5 = .     . . . . . .   . . $ > 3 < 4 3 5 5 4 4 5 2 3 2 5 5 5 7 6 5 2 2 2 < 2 < ",
"5 < > < < < < 3 3 4 4 4 5 5 5 5 4 4 2 5 4 6 5 f e #       .   . . .         o 8 8 < 3 3 4 5 4 4 5 2 3 4 5 5 5 5 5 6 2 2 2 < > 2 ",
"5 < 2 7 8 7 7 6 2 3 4 6 6 7 6 5 4 4 4 3 < < , f n #         . . . . .       X 8 8 6 5 4 5 5 6 6 7 5 5 4 3 3 < 3 < < < 2 2 2 2 2 ",
"5 6 9 e t e e 9 2 < 4 8 0 e w 9 6 < 3 < < , 8 ; ; = & & & * * * * * * & * & * - - 6 z < 5 8 w e w 9 6 4 < < > > > < < 2 2 2 > 2 ",
"2 7 e L / U U e 7 > 6 w I / S e 8 < < < $ & X $ $ 0 T ^ ^ E H L F F I ^ ^ ^ e * * X + e e e F ) F e 8 3 < , < < 4 < 3 2 2 2 < < ",
"3 7 t ` 1.....z 8 3 8 z ..,.` n 8 < < , $ $ X $ $ 0 ~ / ^ T L H I U F ^ Q ^ f * * o + e e g ..,.} g 8 < , < > 3 4 4 4 2 2 3 < 2 ",
"4 7 e / %.` ` N 0 8 w B ` *./ d 8 < 4 > $ $ . * * U q.r.r.8.5.5.3.7.7.r.r.r.$.; ; o + 0 0 b { *.) u 8 3 < < < 3 4 2 5 5 2 1 < 1 ",
"3 6 9 f S H S A c c N S H B n 0 7 2 3 3.b b e A S >.0.q.q.8.7.7.7.7.7.0.0.0.2.Q E e e %.%.B F A f 0 7 3 < < < 3 4 2 4 2 2 1 < < ",
"4 2 2 8 9 y e A / ` / B e 0 8 6 5 4 3 3.N c w B B >.q.q.q.8.8.8.7.7.8.q.8.q.2.L E w e -.%.A y 0 8 7 5 5 3 < 5 1 5 1 2 2 2 2 < < ",
"5 < > < 3 9 9 b *.1.O.z 9 4 , < < 4 2 p.s.s.d.a.p.q.1.:.:.:.4.:.1.4.:.:.:.:.5.i.i.s.d.a.a.B 9 5 < , 4 5 1 5 5 5 5 4 5 2 1 < < 1 ",
"5 > > ; > 8 8 f ^ +.^ d 7 , , > *.O.U 5.s.a.d.a.a.8.>.>.>.1.1.1.1.1.1.>.>.>.5.p.p.d.s.r.y.^ ) > , , < 4 1 5 4 5 1 5 2 2 2 1 < 1 ",
"5 < > ; > 7 8 e ^ +.~ y 8 , , < 8 8 - ; 0 0 z ^ T >.4.3.3.7.8.8.0.7.8.5.5.2.>./ { N w 3 > - 4 > , > 1 4 4 5 1 5 1 4 2 2 2 1 > 1 ",
"5 < > ; < 7 6 0 l B f 0 6 , > , 9 9 - ; 0 0 z E Q %.1.3.5.7.7.7.7.7.7.7.3.4.>.{ / A w > < - 5 > < , 4 4 5 1 5 5 4 1 5 1 4 1 1 1 ",
"5 < < < < 2 4 7 8 0 8 8 5 3 < < * & .     . o ; ; H 5.0.0.7.7.7.7.7.5.q.q.7.{ 5 5 # .       $ < < < 4 4 4 1 4 1 5 5 5 1 5 1 > 1 ",
"5 < < 2 2 2 4 3 5 4 4 5 5 5 1 2 + #         X - - E 5.1.1./ C F S F ^ >.:.7.` 4 5 o         X 3 1 5 1 4 4 5 1 4 4 5 4 4 1 1 1 1 ",
"5 2 < 2 2 < 3 3 < , < < 4 5 5 4 + +         X ; - F 5.1.1./ L F F F T :.:.3.` 3 4 O         X 5 5 4 1 5 1 5 5 5 1 5 1 5 1 1 > 1 ",
"2 < < 2 2 3 3 3 < < > < 3 5 3 5 o o     + # ; f f 1.3.N B ; & $ $ & ; y d 1.3.B S < $         5 4 1 4 1 5 5 1 5 5 1 1 4 5 1 < < ",
"2 < < < 5 2 2 2 3 < 3 5 2 2 2 5 o o   O 8 8 O.7.8.r.,.8 8 +         o > , ..y.q.e.;.e $ $   . 5 4 5 5 5 4 1 4 5 5 4 5 5 5 1 < 1 ",
"5 2 < 2 3 5 2 2 2 5 5 2 2 5 5 2 o O   + 8 8 { 7.8.r.,.7 6 +         o ; , ..e.0.8.;.d $ $   . 2 5 4 1 1 5 5 1 1 1 5 5 2 1 1 < 1 ",
"5 < < 3 2 5 2 2 4 5 2 4 2 5 2 3 & & o - E E 0.7.7.+.z > , # X .   . o * * e / 5.5.e.%.> > + # 3 1 5 5 4 1 4 5 4 2 4 1 1 1 1 < < ",
"5 < 2 < 2 5 4 5 4 3 2 5 5 3 2 5 d e 6 e >.>.:.e f ; * > < y b w w 6 ; * * & - 0 w -.1.z m 6 9 3 5 5 2 3 3 5 2 3 4 1 5 4 5 3 < 1 ",
"5 2 < 2 5 2 2 2 2 5 5 2 5 2 2 5 e e 4 e >.>.1.t f - * , , e B w e 5 ; * * & - w 0 -.2.z z 6 0 5 3 2 5 5 2 2 5 5 5 5 5 5 1 < < 1 ",
"2 < < 2 2 4 5 2 2 3 2 5 2 4 3 3 3 3 +.;.3.3.{ ; ; X . 6 3 u.g.d.s.r.S * * X . * * F 3.>.:...3 2 2 5 5 2 5 2 2 5 1 5 5 < 2 < < < ",
"2 < < 2 5 2 4 5 5 5 2 4 5 2 2 4 3 4 ~ ;.q.q.1.8 8 # O 7 7 u.d.a.a.3.b ; ; O + 3 < $.q.1.1./ 3 2 5 2 2 3 5 5 2 3 5 3 2 5 2 1 < 1 ",
"2 2 < 2 2 2 3 2 2 5 4 < < < 4 4 > > - e y.y.a.y.q.I w 0 0 0 8 < , - - ; , 8 N 6.7.a.i.B N ; ; < 3 2 5 2 3 3 < 3 < < < 2 2 < < 2 ",
"2 < < 2 2 2 5 2 4 2 < < , < , < > < - e y.y.a.r.q.I 0 0 0 0 8 > < - - , , 8 N 6.7.a.i.B S ; - > > 3 3 5 3 4 < > < < < 1 2 1 < 1 ",
"5 < 2 < 2 2 2 4 2 3 3 < < , 3 4 o o . , t.u.h.j.j.h.a.f z $         X 7 6 u.f.j.j.j.a.0 0 o . - - < 2 2 3 < 4 , < < 2 2 2 2 < 2 ",
"5 2 < 2 2 2 4 2 5 5 2 6 6 6 e - o o + 9 a.p.j.j.j.j.h.*.%.& .       $ N N f.j.j.j.j.d.z z $ o & & 0 5 5 4 4 6 6 6 5 2 2 2 < < < ",
"2 < < 1 4 4 4 < < 4 6 9 w w e * O O + 0 a.p.j.j.j.j.h.&.%.& .     . $ N N d.j.j.j.j.d.B z $ o & & 0 6 3 6 5 0 w w 0 8 4 4 < < 3 ",
"5 < < < 1 < 1 < < 3 8 y I ( & * 7 5 b 0.d.f.j.j.j.j.j.i.i.F 0 8 8 0 F t.u.f.j.j.j.j.g.u.u.E 8 - * $ ; 3 8 8 d U R b 0 7 3 > > < ",
"5 1 < 1 4 1 4 < , 4 9 b # #   - 3.3.f.j.h.h.j.j.j.j.h.f.f.d.d.s.s.s.d.f.g.h.j.j.j.j.j.j.h.g.u.5 5 X o w e 9 B +.;.~ e 7 3 > > 3 ",
"5 < < 1 4 1 4 , < 4 9 A # # . - 3.3.f.j.h.j.j.j.j.j.h.g.f.f.d.d.s.d.d.f.f.h.j.j.j.j.h.j.h.g.u.5 5 . o e e 9 B +.-.~ e 7 < > > 3 ",
"5 < < 2 3 < 3 < , 5 9 w + # o 6 a.a.j.j.j.j.h.h.h.h.j.j.j.j.j.j.j.j.j.j.j.j.h.h.h.h.j.j.j.j.f.f f + o 2 5 0 N *.>.^ e 7 < > > 3 ",
"5 1 < < < < < , < 4 7 ; * - , { d.d.j.j.j.j.h.h.h.h.j.j.j.j.j.j.j.j.j.j.j.j.h.h.h.h.j.j.j.j.f.1.2.8 - - - 5 d U E B w 7 < > < 3 ",
"2 < > > , < , 3 & & . $ 9 9 >.i.f.f.j.j.j.h.h.j.h.j.h.j.j.j.g.j.j.j.h.j.j.h.h.h.h.h.j.j.j.j.g.a.a.3.f * & X # w w 0 8 2 2 < < < ",
"5 < < < < 3 3 5 & & . $ 0 0 >.i.f.f.j.j.j.j.h.h.h.h.h.h.g.j.j.j.j.j.j.h.j.h.h.h.h.h.j.j.j.j.g.a.a.4.d & * X # 6 6 6 2 2 2 < < < ",
"5 1 6 6 7 7 7 6 X o   + y e u.d.g.f.j.j.j.j.h.h.h.h.h.h.h.j.g.j.h.h.j.h.h.h.h.g.j.g.j.j.j.j.h.d.d.i.( & &     < < < < 5 5 < < 2 ",
"5 5 8 w d e e 8 X X   o n z i.d.h.h.j.j.j.j.h.h.h.j.j.h.j.g.j.g.h.h.h.h.j.h.h.j.g.j.j.j.j.j.h.f.f.a.{ $ $     , < , < 3 2 3 < 2 ",
"5 6 w F / I I w X .   o n z i.d.h.g.j.j.j.j.j.h.h.h.h.h.g.j.g.j.h.h.j.h.h.h.h.j.h.h.j.j.j.j.h.f.f.a.{ $ $     < 3 < < 4 2 < < < ",
"4 8 t [ 1.....z + O   + e e y.s.f.g.j.j.j.j.h.h.h.j.h.h.j.g.j.g.h.j.h.h.j.h.h.h.j.h.j.j.j.j.g.d.s.u.F & &   . 5 4 4 4 4 2 2 < 2 ",
"3 7 t / *...` N ; ; # & 7 5 A 7.a.a.f.h.j.j.j.j.j.j.j.j.h.j.h.j.h.j.j.g.j.j.j.j.j.j.j.h.h.g.s.e.r.^ 9 * * # * 5 5 1 2 2 2 < < 2 ",
"3 7 9 n H H H S ; ; # & 6 6 F 3.a.a.f.h.j.j.j.j.j.j.j.h.j.h.h.h.j.g.g.j.j.g.j.j.j.j.j.h.h.g.s.y.y.( 9 * * # * 5 3 2 2 2 2 2 < < ",
"3 2 0 n H T H S z z A 4 & & & 6 >.%.p.f.j.j.j.j.j.j.j.j.h.j.h.h.g.j.g.j.j.j.j.j.j.j.j.g.f.a.7.9 0 & $ ; ; f < < 2 5 2 2 2 1 > 2 ",
"5 2 5 8 w e e B ~ ..~ b + +   # u e 0.s.h.h.j.j.j.j.j.h.j.h.h.j.j.g.j.h.j.j.j.j.j.j.j.d.d.t.F * * . X 9 8 < 4 5 5 2 2 1 2 1 1 2 ",
"5 < > < 5 9 9 N O.1.O.c - - + - J J y.t.u.t.i.a.a.d.g.h.h.j.j.j.j.j.j.h.h.f.d.s.s.p.u.u.u.r.+.< , # & 3 1 5 5 4 1 5 2 5 5 3 < 1 ",
"6 > > , , 7 8 d / +./ d - - + - J J 0.u.u.t.i.a.a.d.f.g.h.j.j.j.j.j.j.h.h.g.f.s.s.p.u.u.u.r.O.< 3 + & 3 4 5 1 5 4 5 3 5 1 < < 1 ",
"2 < > , < 7 5 w z B z 0 6 < , 3 < 5 4 O.5 6 ; e e 0.s.h.h.j.j.j.j.j.j.j.h.d.u.P P 6 6 ( ( 0 6 , , < < 3 4 1 4 5 1 1 5 5 2 < < < ",
"5 3 > > 5 5 5 7 9 0 9 7 4 < < 4 1 5 1 B + + . $ & b u.s.d.h.j.j.j.j.j.d.d.i...: : O @ q q 8 5 < < < 1 4 5 5 1 1 5 5 4 1 2 1 < 1 ",
"5 2 < 2 2 2 2 2 5 5 5 2 4 4 3 3 1 5 5 B + +   & $ B u.s.d.g.j.j.j.j.j.f.d.i.X.: : O @ q q 3 5 2 4 4 5 1 5 4 5 5 1 4 4 5 2 < < 1 ",
"5 < < 2 2 < 3 < 3 > < < < 4 2 3 5 5 4 1 - - + $ $ 6 g O.O.8.u.i.i.i.y.%.=.P 9 = = % = < < < 3 5 1 4 5 1 5 1 1 4 5 5 1 2 2 1 < 1 ",
"5 < < < 2 2 3 3 > 3 < < 3 5 2 2 4 1 5 5 5 5 ( 7 7 * # & $ - ; ; ; ; - & & # & 1 5 P < , < < 5 < 4 5 4 4 5 5 4 5 5 1 2 5 2 1 < 1 ",
"5 3 2 2 2 2 2 3 3 3 3 3 2 2 4 5 4 4 4 3 5 4 ( 7 7 * # $ & * - ; ; - - & & # & 5 5 P 3 1 3 < 5 5 1 5 1 5 4 1 1 5 5 5 2 2 2 1 > < ",
"2 < < 2 5 2 2 3 3 < 3 3 2 5 5 2 1 5 5 3 5 5 5 F E #                         o 0 0 a.5 3 4 < 1 5 1 4 4 2 3 5 2 3 4 1 1 5 4 < < 1 ",
"2 < < 2 3 5 2 5 2 2 2 5 2 2 4 5 4 2 1 5 4 2 3 g f & X X X + # # # # + o X X # 8 8 0.5 5 5 5 4 5 5 5 2 5 2 2 5 5 4 5 4 5 1 1 < 1 ",
"5 2 < < 2 5 2 5 2 2 5 2 5 2 2 5 5 5 2 5 f f < > ; 5 8 e e E ..*.+.+.^ g g 9 5 > , , 0 5 5 5 3 2 4 1 5 2 5 2 2 5 1 1 5 5 1 1 < 1 ",
"5 < < 3 5 2 2 2 2 5 5 3 2 3 5 2 2 3 5 5 f f < ; ; 5 8 e e E O.%.%.+.^ g g 0 5 ; , , 0 5 5 2 2 5 5 5 2 3 5 5 5 2 5 5 4 1 1 1 < < ",
"5 < < 2 2 2 2 2 2 2 2 2 5 2 5 4 2 2 2 L # #   $ $ e 5 5 2 2 2 5 5 2 2 5 3 4 F * * . o 0 0 5 2 2 1 5 2 5 2 2 2 2 2 2 2 2 2 1 < < ",
"5 2 < < 2 2 2 2 2 2 2 2 4 2 5 2 2 2 i.0 + o   $ $ e 5 5 2 2 2 2 4 5 5 2 4 5 F * * . . 4 < q.2 2 5 3 < 5 2 2 2 2 2 1 2 2 2 < < 1 ",
"2 2 < < 2 < 2 2 2 3 2 2 2 2 3 3 3 2 i.0 o +   $ $ e < 5 2 2 < 2 < 1 2 < 1 < A * * . . < < y.2 < 2 2 2 < 2 < 1 2 < 2 1 < 1 1 > 1 ",
"2 > > < < < < < < < > < < < < < < < B 2 & $ # * * 8 < < < < < < < < < < < < 0 - - $ $ > ; f < < < < < < < < < < < < 1 < 1 > > < "
};
