/* XPM */
static char *b7272d47d64640cea40ab429d737c954JOM3StZTj1IqGpvF[] = {
/* columns rows colors chars-per-pixel */
"64 64 127 2 ",
"   c #010101",
".  c #0B0B0B",
"X  c #141414",
"o  c #1B1B1B",
"O  c #232323",
"+  c #2C2C2C",
"@  c #343434",
"#  c #3C3C3C",
"$  c #454545",
"%  c #4B4B4B",
"&  c #555554",
"*  c #5A5956",
"=  c #5D5D5C",
"-  c #605F5E",
";  c #60605F",
":  c #5E5E61",
">  c #5F6061",
",  c #616161",
"<  c #686765",
"1  c #696967",
"2  c #6B6B6B",
"3  c #71716F",
"4  c #737373",
"5  c #797977",
"6  c #7B7B7B",
"7  c #82827F",
"8  c #82827F",
"9  c #7F7F82",
"0  c #808080",
"q  c #818180",
"w  c #818181",
"e  c #838280",
"r  c #838380",
"t  c #838381",
"y  c #808083",
"u  c gray51",
"i  c #838383",
"p  c #848482",
"a  c #858583",
"s  c #818184",
"d  c #848484",
"f  c gray52",
"g  c #868684",
"h  c #878784",
"j  c #878785",
"k  c #868686",
"l  c gray53",
"z  c #838383",
"x  c #888886",
"c  c #898987",
"v  c #888888",
"b  c gray54",
"n  c #8B8B8B",
"m  c #8C8C89",
"M  c #8C8C8A",
"N  c #8A8A8D",
"B  c #8B8C8E",
"V  c gray55",
"C  c #8F8F8C",
"Z  c #8C8D8F",
"A  c #8E8E8E",
"S  c gray56",
"D  c #8C8C8C",
"F  c #908F8E",
"G  c #8D8E90",
"H  c gray57",
"J  c #929290",
"K  c #939391",
"L  c #929292",
"P  c #949492",
"I  c #959593",
"U  c #959594",
"Y  c #959595",
"T  c gray59",
"R  c #979797",
"E  c #949494",
"W  c #97979A",
"Q  c gray60",
"!  c #9A9A98",
"~  c #9B9B99",
"^  c #98989B",
"/  c #9B9B9A",
"(  c #9B9B9B",
")  c #999A9C",
"_  c #9A9B9D",
"`  c gray61",
"'  c #9D9D9D",
"]  c #9E9D9C",
"[  c #9E9E9C",
"{  c gray62",
"}  c #9D9D9D",
"|  c gray63",
" . c #A2A1A0",
".. c #A2A2A0",
"X. c #A0A0A3",
"o. c #A0A1A3",
"O. c #A2A2A2",
"+. c #A3A3A6",
"@. c #A5A5A5",
"#. c gray65",
"$. c #A7A7A7",
"%. c #A4A4A4",
"&. c #A6A7A9",
"*. c #A7A7AA",
"=. c gray66",
"-. c #A8A8AB",
";. c gray68",
":. c #AFAFAF",
">. c #ACACAC",
",. c gray69",
"<. c #B1B1B1",
"1. c #B4B4B4",
"2. c gray71",
"3. c #B7B7B7",
"4. c #B3B3B3",
"5. c gray73",
"6. c #BCBCBC",
"7. c gray74",
"8. c #BBBBBB",
"9. c #C2C2C2",
"0. c #CBCBCB",
"q. c #D3D3D3",
"w. c #DBDBDB",
"e. c #E3E3E3",
"r. c #ECECEC",
"t. c #F5F5F5",
"y. c #FCFCFC",
/* pixels */
"< , > , > , , : : > 4 G o.-.) w 1 , < 4 G +.&.W 9 1 : : , # o   . X + , < , < > : : : > 4 G | -.) s 2 < 4 4 G o.*.) w 2 , * : , ",
": * * = = : : * * > 2 g ` ..P 6 < ; : 2 b { ..J 5 < * * = +         o - = = = : * * * = 2 d Q | E 6 < = 2 2 b { ..H 6 < = & * * ",
", * * * * * * * * = 1 5 x m w 3 , - = 1 6 m C w 4 , = * * +         X * * : * * * * * = 1 5 d D u 3 > = 2 < 6 D F p 3 ; * * * * ",
", * * * * * * * : : , 2 3 4 2 < , = - < 3 4 5 4 2 , = , , X           & % * * * * * = - < 1 3 4 3 < > - < < 2 4 4 4 2 ; - - * ; ",
", ; = = = = = : : , , , , , , , - , : , , , < , > 6 # o o             X X @ 2 : : = : > > , , , - > - > , , , < < , , , ; ; - - ",
"< * * = = = = : : , , , , , , , , > , , < < , , , +                         o 6 5 : : > > , , : , - > > , , , , , < , , ; * - * ",
", * < 1 2 2 1 < , = > , < < < , : > : : : * = = - +                         o 6 6 < , > > , < < < , > : - = = : = = ; , ; ; - ; ",
", < 2 6 w 6 6 3 , = > 2 5 6 6 2 < = : : * : o.2 2 @ X X X O + + + + O o o X + * * 3 < = , 2 5 6 5 3 < : = = * = * = * ; ; ; * - ",
", 1 6 F Q S H 6 < * , 6 G R A 6 1 : = * , , # $ $ = 1 2 2 3 4 3 4 2 4 2 2 2 ; $ % # & * , 6 G R G 6 2 : * : * = : : = , , - * , ",
"- 1 8 ~ $.{ { d 2 : 2 g { $.) i 2 = = B O +   @ @ p ;.4.4.=.%.%.$.$.&.;.:.:.P % $ . X 2 3 i ` &.{ i 2 = : * = ; > > , - > = * ; ",
", 1 6 P ..) Q v 4 2 5 B ) ..R 6 2 = = b O +   @ @ w ;.:.4.#.%.%.%.$.#.:.:.:.P $ %   X 2 3 v ) { R 9 2 : * * = : > ; , , , ; ; - ",
": < 4 w D A B B v k k B A D d 4 2 = : Q & % @ , , Q 5.7.7.3.2.2.<.2.2.7.7.7.#.3 3 $ $ k g D G B w 4 < : : : : = - > > ; , ; * - ",
"> , < 2 4 9 6 B W ) W N 6 4 2 < , > - 9.2.2.4.;.;.:.:.:.:.:.:.:.:.:.:.:.:.:.:.:.;.:.4.8.7.B 9 4 2 < , , = , = , = , > , , = * ; ",
", * * * : 3 3 k { *._ k 3 , * * - > , ;.r.r.t.w.w.5.$.o.%.#.=.=.=.-.#.%.%.%.:.q.0.t.t.q.q.;.3 , * = : , : , , , , , - ; ; - - - ",
", = * & * 1 2 6 R { E 9 < * * : = , , ;.r.r.t.w.w.5.%...%.=.=.=.=.=.=.%...%.:.q.q.r.t.q.q.4.2 * * * : , - , , , , , : , - - * ; ",
", * * & * 2 2 9 R ..E 9 < : * * v x 4 b :.:.9.5.5.;.=.-.-.;.;.:.:.:.;.-.-.=.;.3.5.9.3.L H 4 6 * * * = , > , - - > > , - , - - - ",
", = * * < 1 $ 6 u v d 4 < = * = & & + O # # % 4 4 R ;.2.<.2.2.2.3.2.<.2.4.4.{ 6 6 & # + + + $ * * * : : , , > > > % & = > = * ; ",
", = = * + +   % 3 3 2 1 > : = T @ @         . % $ b ;.2.2.>.=.-.=.-.-.4.4.4.W * * o         O 6 9 : : : - > - < < . o : > - - - ",
", = = - + +   % - > > > > > > T @ @         . $ % b :.2.2.>.-.*.>.=.-.4.4.4.R & * o         O 6 6 > > , - , : < < . o : - - * - ",
", > - 6 # @ O $ q q <.= - > - Q O O         + , , Q :.Q ~ 6 2 < < 1 4 R H >.$.4 4 @ .       . 6 6 > , > > > - & & O + 1 2 - - - ",
"$ $ % * 1 < 2 & # # $ R > - > ..O O   . % % 4 ) ) 2.;.6 6 # o . . X + 2 2 o.3.o.o.w * o o   . i w > , > > & @ % % 2 2 = = % $ $ ",
"      # B B &.2 X o   > - > > { + +   @ g g 4.7.7.3.) > = o         . % % H 4.7.7.2.Y $ %   X 0 w - , 6 6 X . & & { Q % & .   o ",
".     # b B $.2 o X   - > > , | + +   @ w w ,.7.6.3._ : = o         X % % H 4.8.8.3.L $ $ . o 9 w > - 6 6 X . & & { Q & & .   o ",
"      @ A G 4.f # $ O % A F o.6 % $ # < { { 4.{ { 9 < * * % $ $ $ $ % & & , 4 R W <.-.5 4 $ # 3 4 - > - - O @ 4 4 4.{ % %     . ",
"      @ k g 4.$.g k 2 & # $ # & 4 3 b { ;.;.{ 1 1 + O : * o.0.q.q.0.;.2 2 + O * & R ;.$.%.A 6 * * $ # & % < 6 { { 4.R $ %     X ",
"      @ g k :.&.g k < & # # # & 3 4 B { ;.;...< 1 + O * * ..0.0.q.0.4.2 2 + O * & R ;.o.$.F 6 * * # # % % < 6 ..{ :.R $ %     X ",
"  .   @ 0 6 ;.7.5.3.o.> o o   @ i i ;.7.2.5.{ & * . . , , 0.y.y.y.y.e.6 6 o   $ $ m 2.7.7.4.H % % . . % & E 2.7.7.4.A % $ .   o ",
"      @ 6 6 ;.7.9.9.:.6 # # O @ = = 6 ..7.7.5.A G & $ 2 2 { 5.7.9.5.$.4 6 % % 6 6 2.9.-.=.g < # # O + 2 1 $.7.9.9.4.A $ $ .   O ",
"  .   # 6 0 ;.5.4.4.>.Q g d 2 $ O O + 2 9.6.e.e.e.9.o.6 5 % @ + + + $ 2 2 ) 6.w.w.r.0.w i @ o # # , 9 W R #.<.5.5.:.A % % .   + ",
"      @ w 6 ;.5.2.2.>.Q d d 2 $ O O + 3 6.9.r.e.e.9.o.5 6 % @ + + @ $ 2 2 ) 5.w.w.r.q.w i @ O # # > 6 R R =.2.3.3.4.B $ $ .   + ",
".     @ 6 w ;.4.>.>.*.4.2.2.| * X X . * 9.9.y.y.y.y.r.A A +         X 4 4 q.y.y.y.y.w.4 4 o . $ $ H 1.4.<.>.-.2.<.4.A % $ .   + ",
"      @ w w 4.5.:.;.*.4.5.5.;.0 % % % k w.w.y.y.y.y.y.4.4.: @ O + + & { { t.y.y.y.y.r.{ ) & $ 3 4 $.5.1.2.=.;.3.3.3.H $ $     O ",
"      @ g w 5.7.2.:.=.=.;.;.;.;.;.;.2.q.r.r.y.y.y.y.t.e.w.7.;.$.o.-.2.q.q.t.y.y.y.y.t.q.w.5.;.;.-.;.;.-.-.=.;.5.8.7.E $ $     X ",
"      + f f 5.7.:.:.=.-.-.;.;.-.;.;.2.q.r.t.y.y.y.y.y.w.w.7.-.-.%.-.5.q.q.t.y.y.y.y.t.w.q.5.;.-.;.;.;.;.-.$.;.7.5.7.R $ $     X ",
"  . . @ 6 6 *.4.;.;.=.%.....;.0.r.r.y.y.y.y.t.t.t.y.t.y.y.y.y.y.y.y.y.y.t.y.t.y.t.t.y.y.y.y.t.q.q.4...%...$.-.<.:.:.A % $ X   o ",
"& % & & = * < w ..[ 4.:.-.;.2.q.t.t.y.y.y.y.y.t.t.t.y.y.y.y.y.y.y.y.y.y.y.y.t.t.t.t.y.y.y.y.y.e.w.3.;.;.;.4.$.B x 2 * * & & & % ",
", = * , @ # o $ m A 2.7.4.4.5.q.t.t.y.y.y.y.t.t.t.y.y.y.y.y.y.y.y.y.y.y.y.t.y.t.t.y.y.y.y.y.t.w.w.7.4.5.5.8.} & * o + 2 2 = = = ",
", = * = @ @ o $ A A 5.7.4.2.2.q.t.r.y.y.y.y.t.t.t.t.t.y.y.y.y.y.y.y.y.y.y.y.t.t.t.t.y.y.y.y.t.w.w.7.4.5.5.7.{ * * O O 2 2 * = = ",
"- = = = @ #   + 6 6 $.-...o.-.9.r.r.y.y.y.y.t.y.y.t.t.y.y.t.t.y.t.y.y.t.t.y.y.t.t.y.y.y.y.y.r.0.0.:...-.-.;.b # # . O , , * = * ",
", = = = = > $ $ & & < * * & 2 $.e.e.y.y.y.y.t.t.t.y.t.t.t.y.t.t.y.t.t.t.y.t.y.t.t.t.y.y.y.y.t.2.2.4 * * * , = $ $ $ , , , - = - ",
", - ; < 2 < 1 5 # @ X       O 4 w.w.y.y.y.y.t.t.y.t.y.t.t.y.t.y.t.t.y.t.y.t.t.t.t.t.y.y.y.y.t.H H @       . + < < : = , , = = ; ",
", , 2 6 q 6 6 5 # @ X       O 4 w.w.y.y.y.y.t.y.t.t.t.y.y.t.t.y.t.y.t.y.t.y.y.t.y.t.y.y.y.y.r.H H @       . + < < * = : , = * ; ",
", < 5 A Q G G 5 # #         . : 9.9.t.y.t.y.y.t.y.t.t.t.t.y.t.t.t.y.t.y.t.t.t.y.t.y.y.y.y.y.q.5 6 O         O = : : = , ; ; ; ; ",
"> 2 8 ~ &.{ _ i 2 : $ # $ $ & < 6 6 { 9.t.t.y.y.y.y.y.y.y.t.t.y.t.t.y.t.y.y.y.y.y.y.t.q.q.o.i 2 2 & % # # $ = : : : , , , ; * - ",
"- 1 0 R ..` ` v 4 2 4 b ) ..Q 4 @ @ + 6 w.w.y.y.y.y.y.y.y.y.t.y.t.y.t.y.y.y.y.y.y.y.r.R H # + < , w 2 : * * : : > , : , ; - * ; ",
", < 3 u A S G D g i k A H A i 4 # @ + 6 w.w.y.y.y.y.y.y.t.y.t.t.y.t.t.y.y.y.y.y.y.y.t.L L # + , , 4 < ; = = : : - ; , - , - * ; ",
"> < 4 w A S F D g i g D A A w H O O   & 5.5.t.y.y.t.t.t.t.y.y.t.t.y.t.t.t.t.t.y.y.y.q.2 2 X X 4 4 4 < : = = = = , > , , , ; - - ",
", = < 2 4 0 6 b R Q W D 6 4 2 2 2 2 $ & 6 6 R 5.2.q.r.t.t.y.y.y.y.y.y.y.y.r.w.7.7...i = * $ : 4 2 2 , > : = , , , - ; , , ; * - ",
", = * = > 4 3 k _ -.} v 3 > : = - > > 3 @ @ O * * X.q.r.r.y.y.y.y.y.y.t.t.w.:.2 2 + + = > v 3 > = : > , , - , > - , > > - - * ; ",
", * * * * 1 2 9 W o.W 0 1 * & * - > - 3 # @ + * : X.q.r.r.y.y.y.y.y.y.t.t.w.:.2 2 @ + : : 0 2 * & * = , , ; > ; > , , , , = - - ",
", = * & * < 1 4 f B f 4 , * * : - > , H + +   @ + 5 >.0.0.e.t.t.t.t.e.q.0.4.b $ $ . o v g 4 < = * * = , , : : , - - , , ; = * ; ",
", * = = = < > 1 3 3 3 1 , = : : - > - , 3 3 $ $ % & < 4 4 f A H H H k 5 5 2 * % $ $ > 4 3 2 , = : = : , ; , ; ; , > , = , - - - ",
", = - - > - > > , , , , > > , > , - > > > - - , : # o o X o O o O O o o o X @ , > > , , > > > > , , > - , , : , , , > , > - * ; ",
", - = - > - > = : * = = > > , , > - , - , , > ; > # o X X O O O O O O X o X + , = = : * = = - > , : > , , - , - - - > - - - = - ",
", = - - > - - = = * = = = ; > , , , , > , - , > > +           .             X = : = = * = = - , , , , , > , : , , > , > ; - - - ",
", : = - - > > - : : = : , , , : ; > ; - , > ; ; > o       , , , < = & X X     , ; : > : - - > , : , = , - , ; , , - - , , - - * ",
"> = = - , > > - > : = : , , > - , ; > , ; > , > - X   - > ; ; > , > ; , :     = - - > - > - > ; , , , ; , , = , , : ; , > ; * ; ",
"> = = = - - , ; > , , , , ; > , ; > ; , , ; ; , - X   - ; > ; > : , , ; ;     , > - > - - > ; , , = , : : , , , , ; , ; - = = - ",
", = - - > , > , - > - - > , - , ; , ; > - > ; > > O X = > ; > - , > - : , o X : > , > , > > , ; > - , , ; , : ; , : , : , - - - ",
", = - - - , - > , , , > - , - > > ; , ; > , , - > = & ; > , ; > , ; , , , * & , - , ; ; > - ; > , , , , = , , , - , ; , ; - - * ",
", = = ; - > > ; , , ; ; , , , - ; ; ; > ; > ; > > , - > ; ; ; ; , > - > , : , , > ; , , , ; , , > > - , ; ; , , ; , ; ; , = * ; ",
", ; = ; > - ; > - ; > ; > - : , ; ; > ; > ; > ; - > - , ; - ; > , - > - , , > ; ; > - > , , , , - , : , ; ; = , , ; ; ; > - - - ",
"; = = = - - - - = - ; - = ; = ; = = - - - - - = - - - - - - - - - - - - - - = - - - - - - - ; * = ; = ; ; ; = ; - - - * - - = = ",
"; * * = - - * - = = ; ; * ; ; * = = = = = - = - - * = - = = = = = - - ; * ; ; * * = - - ; * ; ; * ; ; * ; ; * ; ; * - - * - * * "
};
