/* XPM */
static char *result[] = {
/* columns rows colors chars-per-pixel */
"64 64 47 1 ",
"  c #0D0D0D",
". c gray8",
"X c #1B1B1B",
"o c #222222",
"O c #2B2B2B",
"+ c #343434",
"@ c #3B3B3B",
"# c #434343",
"$ c #4B4B4B",
"% c #555554",
"& c #5A5956",
"* c #5E5D5C",
"= c #605F5E",
"- c #60605F",
"; c #5E5E61",
": c #5F6062",
"> c #616161",
", c #686765",
"< c #696967",
"1 c #6C6C6B",
"2 c #71716F",
"3 c #737373",
"4 c #797977",
"5 c #7B7B7B",
"6 c #82827F",
"7 c #7F7F82",
"8 c #838383",
"9 c #898987",
"0 c #8C8C8C",
"q c #908F8E",
"w c #8D8E90",
"e c #949494",
"r c #97979A",
"t c #9C9C9C",
"y c #A4A4A4",
"u c #A7A7AA",
"i c #AAAAAA",
"p c #B3B3B3",
"a c #BDBDBD",
"s c #C3C3C3",
"d c #CBCBCB",
"f c #D3D3D3",
"g c #DCDCDC",
"h c #E4E4E4",
"j c #ECECEC",
"k c #F2F2F2",
"l c #FAFAFA",
/* pixels */
",>:>:>>;;>3wyur81,:3wyur71-;;->>,>,>>,::;;;>3wyur81,33wyur81;**:",
";&&***;&&;18rye5>==29tyq4>*&&***;;*-;**;&&&;18eye5,*119tye5,&&&&",
"-&&&&&&&**,59062>==150q83>&&*******&&&&&&&*&148063-*<<50082>&&&&",
">&&&*&&&**>1222>;*=,23421-**=&==*-=***&*&*&*>1231,-*,,1342<>--&&",
">-&-*=*;::>>->>---::>>,:--;XoooXXXXX..;**;*:>>>>>>:->>>,,,>>--==",
">=-&*****>::>>>>---:>,>:--$19e9741,;%o.***;:>>>>>>-:>>>:>>>>-&&*",
">->,1<1,>>:>,,,>-;;;;**;;-1rafsiute93@X<,,>:>>><,,:;******=>----",
">>258551>*:14542,=;;&*&**X8ahlkfaapuw%O. 3>*>15541,;****&**---&-",
"-,4qtew5,*>7wr051**&;;@$-5pgkljfdssai8>$@OX*>50rw51;&&&=;;*>>=&-",
"-16tutt8<*18tut81;*&*;$3rpfghhfdssaapt92*OX*18tut81;;**;;;-:>*&-",
":<5ettt93149rye71*;**;-eshjgdssssasaaiyw4@o130tte71&&;*;:=:>>---",
">>380w00989w0083,;***;1igllgsaaasddssppu0#o890w083,;;*;;=:>->-&=",
">->13750rtr0531,:--;-->yglkfsafhhjggddspt#Xtr0731,:;-----:---*&-",
">=&&:110tut83=&*---:--*rfkjdsahjjjhfdfdau#Xut01;**;-->-::-:->===",
",&&&&1<7rte7<&%*;-:--:-edjhdadhjjjgdsddsi$otr8<*&&=-:>:------*&-",
":&&&&<18eyr7<*%&-:-Xo+4tshhddfjkjfappadsp;@o.6<&%&;--:-:-:-->===",
":*&&*,,38083,*&*;;o*8tssddhhhjkkht3*&rpsae5>@o>*;&;;>>>>>>;>>===",
":**&*::,131,;;***:o>8taddfhhhjlkjt3*&rpsae5>@o>;;*;;;>;=-=>=-;&=",
">*==::::;*>>;->>>>o5ifhgdsgjjjlkh6%OO6issir8$O---:--;>----:>;===",
">**===;;****;:*>>>owsjlhsahjjjllg3@..3ysdait%+;---:->:-----:>=&=",
"-*==:===**&**>>:->owdklhsshjjjljf1+  1yaddap,@;-:-=>-;----:-====",
":*===:::>*;;>:==->o9sjkgsshjjjkhs1+..1yaffsp,@;;>:>>>>>=;:-:-=&=",
">=&:>-=:-;;>>>:>--o8pgjgsahjjjkga1@XX3uaffda1@-:->;;>>=>:>---===",
":====::=>>---:=>--o8pghfsshjjjjga1+XX3yaffda1#:--:>>;>>;->---=&=",
":=*=>-:-::--->:-:-o5ydfdsshjjjkga1@XX3yafffa1@-:->>::-;--;=>>===",
">=*=-:->->:>-:->-:o5usfsashjjjkgs1+XX1uafffa1@:--:----:->>>;-=&=",
"-***>---->->->:=-;o3yadssshjjjjga1@XX1yaffda1@:-:>-::---->>>====",
"-*=*-:>::-:-:=::-;o4yadssshjjjkga1@XX3uaffda1#-:>;-:-:-;;>;>-=&=",
":**---->->*;***;--X5uadssshjjjkga1@XX1uafffa2@;*;=;;;-;**;---=*=",
">***-->->-;*&**;-:o4uaddsshjjjkga1@.X3yafgda1@&;====;-*****--=**",
">**--:-::==**;*::-o5yadsashjjjkga1@XX3uaffdp1@*&=;----;***=>>&*=",
">-**->>-->>,,::>-:o3uadssshjjjkga1@.X3uadspu;@,>,>>;-:>>,:>>>**=",
"-**=-;;;*=113531>>o4ysdssshjjjjga1@.X3yadait&+4531,:,,24431:;;**",
"-***-;*;*;17qe04,>X4uadssshjjjkgs1@XX3usdpir%+0e93,:117ww94>;&&*",
">===-;*&&:39tyr51;o4yadssshjjjkga1@X.4uadpye$+tye7,:220tur7,;&**",
"-**=;*;;*-29tyr5,-o4uadssshjjjkhs1@XX4iadpir&+tyr51:310yye5,*&&*",
">**=;**&&-29tur5,-o4yaddashjjjkga1@XX4yaspir%+tur51;120tye7,*&&;",
">=**;;&;;;170w93,;o3uadssshjjjkga1@.X3uadpie$+0w93,-117we931*&&;",
"-*&&&&**;:,13311>-o5yaddsshjjjhfa,@XX4iadpt0$+3331>:1,14531>=**=",
"-*******;-:;:,:-::X5usdssshkjjfau%OXX5issy03@O,:-----:,,,>:-=**=",
":->,11,,-;-,:,,:>:o4uadsssjjjjdit%O.X5isat61@o,,,>:;*;**;*=--;==",
"->145551;;:13541,-o4yasssshkjhsye$o.X4uaar5,@o3541,;&;&&*&;;-***",
":,5qrqq5,&>5wew51*X1epssasjkjhar6@X  >eiie71@O0ew5<;;&**;*;--=*=",
":16tutt81;18tit81;o,0uaaadjkjhpe5+X  =9yue61#Otut81;&;*;;;-->&*=",
"><5eytt93139tyr71;X&5eppasjljgu81+oXX>9rt031@otyr81;&;&;-:---=&=",
">,280qq08890q083,;X$,7ypadkkkgq1%@++@3qrr51&+oqq83,;**;;:--->===",
">>38wqw098900083,;X$,5ypadjljgq1%@++#30tr51%+oqq83,;**;--:>--*&=",
">-,13570ete07311-;;oO@3rpdhjga=+X$1eyuytq%@OX05311>;*;-:-->=>===",
">&&-:329tut91;**;---.X>wpdfgfp$o.%9paapt9#out01;**;;;>>>=>>--===",
">*&&&,<7ryr71*%&=>-;;;%9psffsp%OX,tadair6@ryr81;%**->>;>;->;;;==",
">&&&*,,38w84>&&;;>->--%8iafdsp3%#5uaspue5+8083,&&*;-;>>;>=--==&=",
">*&**>:11311>;*;;-->--$4tpaasapiuiiiut071+1321-=**;--->->>--====",
">;&>>>>>>;>;:>:>-:-:--$1wypaasssapiyr953-+::;;--;;:-:-:>-:--==**",
">**->>>*****;>>::-:--;@*30upasdddputw41-$O****;----::-----:-=**=",
">**==*:*****;>--:-:--;oO+$5tipaapyt95%#+oX**==----:---->:---==*=",
">>*-:>-*;*-*>>;--:-:--X.Xo,0yppuurq61#OX-;;*;;:::--::>:>-:-===**",
">-*--->**;;;--:---;----:::%3qttrr952-+o---;;-;:-:----:->:-;>>===",
">-&--->>;;:----:->>>;-:--;@&15532,=%$o---:-:---->>::--:;-:>>;=&=",
">*&>;>;>------:->>:>>-:::--oOOOOoooo-:--:----:-:--:-:---;-:>====",
">-*;->-->---::-:*>->>----:---;-:>>>>:--:-:----:->:-:-:-->->;=*==",
">**-=>;>--->->-->->>---=-:-:-------=--;>>>=---->->-->>=--->==**=",
">*&->>>---->:>>:>->*---=:-:->>-----=:>>>>>>----=-:>:>>>-->====*=",
"-&-*>===--=&==--=*=>;-==*=-->---;-====;=>-*=--====;=---=--=&==&=",
"-=&&=&*********==**&******==&*=&**=&**==&*****&***==&=*=&*==&=&&"
};
