/* XPM */
static char *result[] = {
/* columns rows colors chars-per-pixel */
"64 64 48 1 ",
"  c #070707",
". c #0C0C0C",
"X c #141414",
"o c #1C1C1C",
"O c #232323",
"+ c #2C2C2C",
"@ c #343434",
"# c #3C3C3C",
"$ c #444444",
"% c #4C4C4C",
"& c #545454",
"* c #5A5956",
"= c #5E5D5C",
"- c #605F5E",
"; c #60605F",
": c #5E5E61",
"> c #5F6062",
", c #616161",
"< c #686765",
"1 c #696967",
"2 c #6B6B6B",
"3 c #71716F",
"4 c #737373",
"5 c #797977",
"6 c #7C7C7B",
"7 c #82827F",
"8 c #7F7F82",
"9 c #848484",
"0 c #898987",
"q c #8C8C8C",
"w c #908F8E",
"e c #8D8E90",
"r c #959594",
"t c #97979A",
"y c #9C9C9C",
"u c #A3A3A3",
"i c #A7A7AA",
"p c #ABABAB",
"a c #B2B2B2",
"s c #BCBCBC",
"d c #C3C3C3",
"f c #CACACA",
"g c #D3D3D3",
"h c #DBDBDB",
"j c #E4E4E4",
"k c #EBEBEB",
"l c #F1F1F1",
"z c #FCFCFC",
/* pixels */
"<,>,,>,::,4euiy82,<5euit82,>,,<,<><>>><>:::>4euiy91,54euit82>==>",
":**=:::**:20tur5,-;2qyuw5,***-:==:-->-==***:29tur6,>220yur61****",
";********=150q93;-;26qw74,****;*=*-*==******150q73,;116qq94;****",
",*******:=,2343,;;;,24541,=>;*;;->--***==*=-,22431,;1,25531>;**=",
",;*;===:=;>,;,,;,,,,,,,,,@$%&%%$$#@@O:==>=>->,>>,;,>,,<,1,,,;=--",
",-;**;==:>,>;,,,,,,,<,<,,&6qr99632<=@O:===->,>>>,,,,,,,,,,,,;;;*",
",;,<211<,;,<,1,,,,:::===+tflzkjfsapy>$O111>->,<<,,,,->===:;,;;-;",
",,369664,=,26654,:==:*=@%phzzkkhdssp8=#O24,-,256621,=**=*=*-;;;*",
";15wter6,=,6etq61:=*=#&19djzzjjgfdsar5:%+8<=<5etq81:====>==,,;*;",
",17yiyy91:19yit02;:==4ifjjgfddsddddsapt0%+2=19yiy92:=*==,,,;:=-;",
",16ruty9424qtur72,===8skzlfdssddddddsaay=@4240tut82:&:::>>;>,**;",
",,39qweqq0qqqq94,::=:8slzkfddffghhgfddap>#090qeq94,:==:;,,-,,---",
",;,2486etyte641<,;:=;6dlzkfddffghggfddsi>@tytq642,,;;;;;;;-,,-*;",
",-**:339yiy94-*=:;,,,4phzjdddjjklkhgfgda1@yiu03>==;;>;;>;;,,,;--",
">=***218rur81:**=;;,,4ihkhdsfkkkkjgdfffs3$ryr82=&*;;;>>;;;,;,**;",
",****119ryr81*&::;;,@9agjhgfhkkkjfspsdfs8%+yr81**=:;>;;>;>,,,---",
",=**=,149q94<***:,$&1ysfhhhhklllfpr0uaddr2%+O5<*==::;;:;:,:,,---",
",==*:>,1242<,:=::+rsgjgdfjkkkzzli4#+:radaie:#O,::==:;,,,;,,-;-*-",
",=--,,,>:;,,>,:;,@ugzlhddjkklzzkr=+.%0adsau3%+,;;;::,->;;,,,:---",
",==->=>:=*==:,,,,@ihzzhsdjkkkzzkr*O $8adfsa5&+:,;;;;,:,;:,:,--*-",
",;=;;=;===*:>=;>:@yglkgdfkkklllhq*O.%9adhfdq*+,>>;>,:,;;;>;>;-=-",
",;*;,>,:::::,,,;-+rfkjfsdjkklkkge*+X%9adggdq*@,,;>;;,,;->;>;;-=-",
",-*,,,,;;;,:;,>,;+edjjfddkkklkkfe*+X%9afggdr=+,->>;,:-,,;;;;--=-",
",-==,=,,;;,;;;-,,+qshhddfkkkkkkfe*+X%9afggfe=+>,;;:>,,:,,:;;;-*-",
",-=-,->>;,>;>,;>,+qaffdddjkkkkkge*+X%9adhgdq=@,;;:,,,=;:;>,;;---",
",==->-,;,;-,-,,-,+0adfddfkkklkkge*+X%8afggfq=+:,,,-;,,,,:,,::-*-",
">==-;,,;>;>,->,;,+9adfddfkkklkkfe*+X&9adggfe*@:-,=,:,,,,,:,,----",
",==-,>->;,>-,>->,+9adddsdkkklkkge=+X%9adggfw:+:,,,;,;:,,,,,---=-",
",-=;;;;,,;>====:;+0addddfkkklkkge*+X%9afggfe*@===:,,,=::=:=,-==-",
",==;;;;>>,-=*==:,+9adfddfjkkkkkge*+X%9adggde:+*====:=;=**==,--*-",
",===;;>;;>=,:=::;+qadfdsfkkklkkge=+X&9adgds8&+:===,,,:::=:=,,---",
",-=;;>;>;,,,,<,,>+9adfddfjkklkkge&+X%qadfsa6&+,1,,,,,,,,<,,,,-*-",
",*=-:::=;>,35542,+0pdfddfkkklkkfw=+X%0addsi4%O5542,,1<35542>::==",
",==-:=:==,28qr05<+0adfdsfjkklkkge=+X%0adsau2$+qrq41,228ee05,:**=",
",;=-:-:==;30yit61+9adfddfjkklkkge=+X%qadsau2%Oyit61;32quir8<:*==",
",-==--===;30yut81+0adfdsfjkklllge*+X%qadsau2$+yit81;33qyur8<=**=",
",==-:==:=:20yit6<+qadfddfkkklkkge=+X&0adsau2%+yit61,43qyur81=**:",
",-==:==&=:28qe94,+0adfdsfjkkljkgq&+X%qadsau1$Oqw04,,228er051=*=:",
";=**=*==:>,34542>+qadfdsfkkkljjd9&+X&eafspt,$O5541,,<<36542,*===",
">======-;;>>,,,,:+0afffsfklkkffp4%OX&eadat8&#O,,,,,,,,,<1,,,,==-",
">-;1111,>;;,<,,,>+qpffddfklkjddi2$OX&wsdpw5%@O,,<,>;=:=::=:;;-=-",
",,268663,:,25852,+qpsdddfllkjssu,$oX&0asiw3%@O4653,:*:**==::;===",
",15qtww5,:,5erq62+5uadssfllkhppr&+X $5yauq5%@Oqre61:*:*:*:;;--*,",
";29yiyy91>29yiy92+4tpssdfllkhui0%+X #2ritq5&#Oyiy92::*=;:>;;;---",
";16ruyy04240yut81O<9uasdflzkhrr6$+oo$2wye94%@Oyut92:**::;;;;,==-",
",<47wweq990qwe851O&39iasgllkg99<$@@@;8wy04;$+oww94,:==::;,:;;=*-",
";,49qweq099qwq94<:o+$8psfjkgp%%O@*8tipiy1%@ooqwq951;==:;;;,,,;--",
",;12486qryt08421>::=O3usghgdu##X@2yssapt:#rttq8421,;:=:>;>-,,;*-",
",=*=,430yiy94>::;;;;>1tsfgfdi$$O$5pddair&@yiyq3::=::;:,:,,,:,---",
",=***218tut81***:;;>;>radffda,,%,wpdsauq%+rut81**==:;,,,-:>;,-*-",
",=**=<,49q94,**:;>;>>:qpsfddsqw6qyaaait9$+9e95<=*==:,-,:,-;;:---",
",:**,,,1343<,:*:;;>;;=9uasddsaapppppyr95$+2431,:==::,:,,,,;;;-*-",
",=*,,,,,,,,;>>,,,;;>:*5tisssdfdssaiye952$+;;::;;:;;>;>;>;>;;;-=-",
",==-,,,=:*==>,,:,:>;:@$*3tpssdfdapyw4,&$+:====:;;;>;>;;,;;>;;-=-",
",==;;=:=*:==:,,;;;,::O+#%0uasssspur9>%#+====--:;>;>>;,,>>;;;--*-",
",:-=,,,=::::;,,:;;,,,,;o+4riapppur05%#+o:::=::;>;>;;;>;;>:;:----",
",-=:>;;:==;:;;>;:;,:;,;;o=9ruyytq852$+>,;;::;;;;,>,>;,>;;;:,,---",
",-*-;;>;,,;>>;;>,;;,=,;,,+#%%%%%$$#@O>;,;;;>;;>;;;;;;>;;,>;,,-*-",
",-=;>;;;;;>;;,>;;,>-,;;,,oOO+++OOOOoo,>,;>;>;>;>>,,;>,;>;-,,:---",
",==;;>;,;;;>;>;>>;,,,,;:,=,;>-,=;;;;:>;;>;>;>;>;;;>;;,>;>,;:;-*-",
",-=;;;;,>;;;>;>,,;,>>;;;,;,:,->,;;--:,,,,;;;>;;;:;;:;;;>;;;-;-=-",
",==-,,;:;;;,,;;;;;,-;,,;,>,;,;,;;;;-:-;-,,;;;;;-,,,,;;>;>;;-;-*-",
";**;----;;-*--;:;;;;=;;;;;=;;;--::--------=-;;----:---=-;;---*-*",
";;**=-*==-====--=;*=;*=;*=;*=;*--*=====--*==-=*===---*==-=*---*-"
};
