/* XPM */
static char *result[] = {
/* columns rows colors chars-per-pixel */
"64 64 57 1 ",
"  c #010101",
". c #0B0B0B",
"X c #131313",
"o c #1B1B1B",
"O c #221B1B",
"+ c #242424",
"@ c #2A2323",
"# c #2B2B2B",
"$ c #343434",
"% c #383131",
"& c #3B3B3B",
"* c #444444",
"= c #4D4747",
"- c #4B4B4B",
"; c #545454",
": c #595555",
"> c #5A5956",
", c #575858",
"< c #5E5D5C",
"1 c #605F5E",
"2 c #60605F",
"3 c #5E5E61",
"4 c #5F6062",
"5 c #616161",
"6 c #696565",
"7 c #696967",
"8 c #6B6B6B",
"9 c #71716F",
"0 c #737373",
"q c #7C7777",
"w c #797977",
"e c #7C7C7C",
"r c #82827F",
"t c #7F7F82",
"y c #838383",
"u c #898987",
"i c #8C8C8C",
"p c #918E8E",
"a c #8D8E90",
"s c #949494",
"d c #97979A",
"f c #9C9C9C",
"g c #A4A4A4",
"h c #A7A7AA",
"j c #ABABAB",
"k c #B4B4B4",
"l c #BBBBBB",
"z c #C4C4C4",
"x c #C7C8C8",
"c c #CCCCCC",
"v c #D3D3D3",
"b c #DCDCDC",
"n c #E3E3E3",
"m c #ECECEC",
"M c #F5F5F5",
"N c #F7F8F8",
"B c #FBFBFB",
/* pixels */
"64556444340ighdt8760aghft84425646455747444460ufjfy8400aghfy843<5",
"3>><3<<,>48ufgse2<<9uffsw5,>><<<33<<<<<<>>,38udgse7498ufgse7,;><",
"2>>>>>>,><7wuir922<8tiir92<><><3<<<<<<,>>>>>7wyir95<87eiuy92>>>>",
"2<>>>>>,<35899873<<78ww982<<<<222<2<><,>>><348908723578ww9722>><",
"5<<<<<<335442555422564642*.  ......  .$<<3<355555222556575222<<2",
"5<><<<<3345425554444464ty#    . ...   o78<4455555533555556222<>2",
"5<278776224466754<44<<<te#     . .    X887542557754433<3>3<22222",
"569eree95<48wew964<<,<7;,*&&**-****&*&*--6u>49wew964<<>>>3<222>2",
"27wpdsse7>6wadae733>&$X$$0ssdpipssisssr**o+etwadae73><<<333223<2",
"38rfhffy837yfhfy8<<>$&X$&9sdssppaassssr*-X+eeyfhdu8<,<,3233522<<",
"38esffdu08wifgst8<<,$#X**illlkjkjkklllf;;oo00uffdy83<<<3252222<2",
"220yiiaiuuuiiuy0733juuwiuhkklkkkkkkkkljsswrggiaiy063<3<<225422>2",
"52780eeudfsie987433kuuwuihkllkkkkkkkkljpswtggut077553<5552512<>2",
"5<>>499ighfi94,<<<2cbbnvckjggjhjjhjghgkxxbncvi84<,35555552322212",
"5>>;,87rsfde8,,,fgakbvnvvkgghhhjjjggggjccnnllss<,<<55<15252211>2",
"5<>;,87esgst7,,<98-;00ussgjjjkkkkkkkkjgfduw<<-4,,,<5245523222111",
"5<>>>760uuy063>,88-;00yssghjkjkkkkkkjjgddiw>2-5>>,445155544151<<",
"5<<>3547808733<<**.  .o;;ajllkkkkkkklkd55#.   #3<314514151515<<1",
"5<22224455553455+#    X--akhhspiupsghkf33o    X351445451541411<1",
"53<22<33<,<<<442++    X;;ajjjspiipshhjf4<+    X544511454155511<<",
"22<<233<<><<3252oo  +#;yyhkui,&$$&;rejkiu<$    515154115145522<1",
"2<<25522233<2354oo o88fkklg77+    o>,fkklgt$$ .51545555555112<<<",
"52<<252553232552o+ +88fkklh87+    o,,fllkhe$$ .251551151545421<1",
"5<<3524252555252&&o-sskkkfy,,#X   o*=0fjkkg,3o#254415454512221>1",
"5<<2552552555252ee5egghrr-*>,tuwe5;**&-0wghyu60351155114514151<1",
"53<2224232232353ee6eghhre;*<>tuew6;**&-w0gjuu6935455455445554<<<",
"22<253222252254445fhjjf,,X.53zMnnli--X.*=ijhgf4341411554141121<1",
"2<<<24545355233424sgklh78++77znvvju--o+4<flhhd4455514555555422>1",
"22<2222552<<3<3<>,-ellvlkaw0008<,-*,,9ijkcxii-;<<341<5<5<3<221<1",
"2<<<2252454<><<<,<-ellvllaw00w8>,--,,8ikkvxiu;;><<<523<,><<221<<",
"5<<222542541<,33oo.>zzNBBNvyy$    o76zmBBBb00o.--<5554<3<32222<2",
"52<222255<5566e-oo+9ccBBBBNff&.   #uimBBBBnuu#o&&0555555755222>1",
"5<<<413<3478wew-+O+0vcBBBBNgf&.  .#iunBBBBnuu$o&&055779ww0863<>3",
"5<<1431<,48tia&*55uknmBBBBNcxs0780uzlMBBBBMzzs8-*$;588tasu053,<<",
"51<1114<<59u##.-jjmBNNBBBBNmMnnbbnnmMNBBBBBBNMz55.owe8ifgst73>><",
"5<<14<3,,49i## -jkmBNBBBBBNmMnnnnbnmmNBBBBNBNMz35Xoet9uggst7<>><",
"5<<13<3<<49w#+o6vvBBBBNNNNBBBBBBBBBBBBNNNNBBBBmyy+X550ifgdt7<><<",
"51<<<<,<<47;*-,fnnBBBBNNNNBBBBBBBBBBBBNNNNBBBBmhj7;-;5tasu07<><<",
"5<>>,<<,&&X#00gxmmBBBNNBNBNBBBMBBBNBBNNNNNBBBBMvvjy*&X#ww085<<<<",
"5<<<<3<3&&X$80gxmmBBBBNNNNNNMBBBBBBNBNNNNNBBBBMvvjy&&X#776541<<<",
"51277776oo +eyznMmBBBBNNNNNNNBMBNNBNNNNMBMBBBBNnnxs&$  3,33411<<",
"558qywe8X. oyyzmNNBBBBNNNBBNBMBMNNNNBNNBMBBBBBNmmcf$$  ,,<<151<1",
"57eifaae.X oyyznNMBBBBBNNNNNMBMBNNBNNNNBNNBBBBNmmvf$&  <311122<2",
"47rfhfdu++ +eelbmMBBBBNNNBNNBMBMNBNNBNNNBNBBBBMnnzi&& .<444422>1",
"37esgffu;;#&66ikbvmNBBBBBBBBNBNBNBBMBBBBBBBNNMblls0**#*115452<<1",
"279yiiai;;#&46ijvvmNBBBBBBBNBNNNBMMBBMBBBBBNNMblls0**#*4551522<1",
"570yispiutu<&&&5gfcmBBBBBBBBNBNNMBMBBBBBBBBMmvk09*$;,y<<352121>2",
"4<780eeidddu#+ $eekbNNBBBBBNBNNBBMBNBBBBBBBnnli*&.X88<5452222<11",
"5<><509ifhfu--+-iskzlzzvvnmNNBBBBBBNMMnbbczzzlf><#&31553525513<1",
"5<>;,77ydfdt--#-sillzlxvvmmNNBBBBBBNMmmbbczzzzf<<+&4451545235<<<",
"5>>,>770yuy07,,<355f55;eelbNNBBBBBBNBnzsp66ss06<><<315551<5521<1",
"5<<>355700984<<<555u+# &$ulnnNBBBBNmnxf::O@qq751<3<14245555522>1",
"52<<222255544451255u++ &&uzbnNBBBBBmnxf::O@qe4443515415<144521<<",
"23<2223<<,<<35454232--+&$6yffkzxxxlghi9==%=:,<1444555552551521<1",
"5<<22333<<<<<225555244s67*#&$*;-;;-&&#&53p1<<<<414114515545121<1",
"52<2552233135523223455s67*#$&-;;;--&$%&11p135<5555541553512221>1",
"5<<2245<<<1<54153255554ia#            o0wv4<335145425<45515411<<",
"5<<<555255555415525<353yy&XXX+#+##+oXX#88k5552521514552245145<<1",
"52<21554541114542515yy>,>58eesfgffdyy05>,,05542355155525132511<1",
"5<<<2425445455515354yy<,,58eesfggfsyy85,,>0525255<55235255522<<1",
"5<<2222552224541252s## $$t322222355255i**.o0052253252223222221<1",
"52<322222222155522z0o+ $$w552225252253i**..32k225515222522222<<<",
"2>>22<32<2<2<2<122x0+o $$e<<22223222<1i**..<<l2222<32222<11111>1",
"22>>22><<<2<<<<<<<i5$&#**7<<2>2><<<<<20--$$,;y2><<<<2><<<<1>1>1>"
};