/* XPM */
static char *result[] = {
/* columns rows colors chars-per-pixel */
"64 64 48 1 ",
"  c #020202",
". c #0B0B0B",
"X c #131313",
"o c #1B1B1B",
"O c #232323",
"+ c #2B2B2B",
"@ c #333333",
"# c #3B3B3B",
"$ c #434343",
"% c #4C4C4C",
"& c #525252",
"* c #5A5956",
"= c #5E5E5C",
"- c #605F5E",
"; c #60605F",
": c #5E5E61",
"> c #5F6062",
", c #616161",
"< c #686765",
"1 c #696967",
"2 c #6B6B6B",
"3 c #71716F",
"4 c #737373",
"5 c #797977",
"6 c #7C7C7B",
"7 c #82827F",
"8 c #7F7F82",
"9 c #848483",
"0 c #898987",
"q c #8C8C8C",
"w c #908F8E",
"e c #8D8E90",
"r c #939393",
"t c #97979A",
"y c #9C9C9C",
"u c #A3A3A3",
"i c #A7A7AA",
"p c #ABABAB",
"a c #B3B3B3",
"s c #BDBDBD",
"d c #C2C2C2",
"f c #CBCBCB",
"g c #D2D2D2",
"h c #DBDBDB",
"j c #E4E4E4",
"k c #EBEBEB",
"l c #F3F3F3",
"z c #FDFDFD",
/* pixels */
"<,>,:>>::>4quiy82,,5euut81::,,1,,<,<>><>:::,4euiy92,44eiit82>==>",
":**=:=:**:29yur6<;>20yuw6<***=:==:;;:==:***:29tur6<=220yur5<****",
",****=***=250q73,==16qw94,****;*===*==******250q93,=116qq93<****",
",*******=:,2342<,-=<34541>=:;*;;:=;=*****===,22421;-<<24441;;**;",
",;======>>>,;,,;>;;,,<<,,;,,,,,,,,>:>::==:>,,,,>,;>;,,,<,<,,;;;-",
"<**====:=,,,;,,,;>,,,,  .XoooXXXXXXX..  =:=,>,,:,,;,,,,:<,,,;*;*",
",*<1221<,,>,<<<,:::===.o$1664222<,;*&$+ <,,:,,<<<,,,=======,;;-;",
",<268663,=>25662<:::*= O2ufgfsaiiiytq2%OoX =,25662<>====*==;;;;*",
",15wtre6<=,8etq62     X%qgzzzljjhfsspr2$X..   qye62::*==::=,,;*;",
"-17yiyy91=29yiy9.#%*&$%4ihzzllkhgfdssu01%$$$#+ uy92:**=::::,,=*;",
">16ruyy04250yur +=quur0yshlkjhggdfddsait0654:$Xut82::*=:>;>,,;;-",
":<47qqeq090eqe9 #0fkkjggffdddssddsddsssssaiuq,@.O4<:*::;;>;-,;*-",
",,<2468qrytq6  @1ijzzzljgsdssdffffffddfgffdau7*+X ;;;;;;;;;,;-*;",
",***:320uiy02@&4ydlzzzkhfsdsghjhjhhhgffgffdsar4*#O:;;;>>;;;,,-*-",
">****128rur O=qsgjklljgddsdfjkkkjkkjhgffddddaiy9,$o ;>;>>;,-,;--",
",=*&*219ryr @6dlzlkhgddsdddhjkkkkkkhfssssddddsau0=@.>;>;>;;,,;*-",
",=**=1,4909 @6fzzzjgfdsddfgjkkklkkhsuypasdffddsat<@ ;;;>;>;>,;--",
",==*=,>2243 O3dzzlhfsdddghkkkjkllkdw2<0isffddddsu2@ ;;>;;;>;;;*-",
",==;,,:,::: O2alljfdsddfjkkkkjjlzji2@@=tsgfddfffi4@ =,,,>;>;;---",
",:=;,::==* o$5pjkhdddddgkkkkkjjklht&X.$qsgfdsfgga8$o   ,;>;>;-*-",
",;=;:=,=*=#*4yshhgddddsgjkkkjjjkkgr%..$qsgfdsfffae<$+O ,>;;;;-*;",
",;*;;,,: $4ysdfffdsssddgkkkkkjjjjfr&XX%qsgfdddfdsiq3%# ;;;>:;:--",
",;*,;,,; =uhllgdsssddssgjkkkkjjjhsr&oo%rsffdddddsaat4%.->;;;--*;",
",===,,:; ,plzzhdsddssddgjkkkjjhhgsr&oo%rsggdddddsaau7%.=;>;;;---",
",;=;,-,, ,plzlhsddssdsdgjkkkjggggsr&oX%rsgfdsdddssau8%.,>;;;:---",
",=*=,:>; *yjzlgdsdddsdsgjkkkjfdffdr&oo%rsgfdsdddsaau4%.,>;,-,-*-",
",;;;,;,, *rhkjgssdssddsgkkkkhddffsr&oo%rsggdddddsapy4%.,,,,,----",
",;*;;>,= &egkhfsddsdsddgjkkkhsddfdr*oo%rsgfdsdddsaay4% ::,:,;-*-",
",;;;,,,, &edhhfdsdsdsddgjkkkhddfgsr&oo%esgfdddddsapu4%.:=:=,;-=-",
",=*;;,;; &qaggdsdsdssddgkkkkhdddfsr&oo%rsgfdddddsapy4% :===-;-*-",
",==;>;>> &qsffddsssddddgjkkkhddffsr*oo%rsgfdsdddssay4% ===:,,---",
",;*,;,;, %qsffddsddsdssgkkkkhddfgsr%oo%rsgfdsddssaay5%.1,,,,;-*-",
",;==:::= &0sfgddsddssddgkkkkhdddfsr&oo%esgfdssddsspu6% 6542,:=*=",
",==-:=:: %qsfgdssssdddsgjkkkjddfgst&oo%rsgfdsdfdsapy4%.er05,==*:",
",==-=::= &qsggfsdsdssddgkkkkhdddgst%oo%rsgfdddfdsair3$.yur61==*;",
",===;=:* %esgfdddsssdddgjkkkhddfgsr*oX%rsggdsdfdsay7,# uut81=**-",
",;*,:=:: &esggdsssdssddgjkkkhfdfgdr&oo%rsffdddffaie4*# uut82=**:",
",=*==:** &0sgfdsdssdsdsgkkkkhdddfsr&oo%qsgfdsdddau02%@ er04<=**:",
",==**=== %9adfddsdsddddgjkkkjdddda0%oo&rsggddssaay03&# 5542,====",
",======= %8pssssdssdsddgjkkkhfdssp8$Xo%rsggdssaaur94&# <<,>;;==-",
",,,12<1, $4yaassddsdsdsgjkkkjfssay4#Xo&rsggdsaaurq84&# =:=:;;-*;",
",,257663 #&6rpsdddsddddgjkkkhdsaur<#Xo%rsggfsapye83:$@ **==:;:--",
",<6qtee6 O@&4rpdffdssdsgkkkjgsaiy0=+.X%edggfssauq4*$@O =:::;--*-",
";27yiyy92 X+%5pfgfdsdddgkkkjgpiyr6*O .%esggfssai01$O  ==;>;;,---",
"=17ruyy0424 +<udffdssdsgkljhsyq962%+XO*rsggdssau9=+ ===:,;,,;=*,",
",<37qwwq990 O*tsffdddssgjljdr4=*%%$#$&8isfdsaaiy6&o:===:,:,,,=--",
",<49qreq090 O=rsdddddddfhkgu4$+Oo+#=5riaddsspuyr4%X;=====,,=--*;",
">=<24680ryt O*0pasddddddggse*o   X#4usffddaputq91%X::=:,,,,;----",
",=*=:330yiy0.$2rupssddddffse*OX..O%qshgfdapue95<%#.:,,;,;;>,:---",
",=**=118tut8.@%18yasdffgffsu7*%%&-6yaddssauy04>&#+ ,>;;>,>,-,-*-",
">=*&*1<49q94 oO@*8iasfggffsapyrttyuppaaapiye6>%+oX::,;,>;,;,----",
",=*=:,,23431, ..#<epasddddsdsdssdsaaytyuutq82&@o  =,>;;;;>;>;-*-",
",=*,,,,,;:;:,>,+o%20rtupasssdfdffsaitq99642,&#.;,,,;;;;>;>;;;-=-",
",==;,,:=====:,:: @%*==16risssssaauytw83,&%$$#+.>,,:;;>>;>;>>;-*-",
",==;;=>====::;;;:XOOOoO%4yaaaaiur99994*$+oOOoX ;,,;;>;>>,:>;;---",
",:;=>;,=::;:;;;;,XooXXoO&6tyyrq63<,22-$OoXXoX;;>,,;;;>;;,,;;;-*-",
",===>;>;==;;>;;>;:,;;;: @*222<=&%#$%%#+ ::=:;:>;>;>;,,;;,:,-,---",
",==-;>;;::;>;>>;,;;,;;2 .XOOOOooX..XX.  2>;;;;;>;>;>;:;,,,,:;-*-",
",-=->;;>;;>;;>;>,>,,:;;;:>,,:=,=;-,;;;,,>;;,;>;;;>>;;;,,-;:,----",
",=-;>;;;;;;>;;>;,,=;,,;>-,;>,:,;,,;;>;,,;;;,;;>;>;;;>;=,,;,,--*-",
",-=-;,;;;;;,>>,,;,;>,;;;,,,-,,-:;;;,;;>;,;;:>;;;;;;>,;;,;;--;-==",
",===,,;;;;;-,;;;;;,;>,;;:;>,;,,,;;;,;>,>,,;;;>;;>,;,;,:,;;,-;-*-",
"<**;,,=-;;--*-::;;;;=;;;;;==;;=-:;;---;;----;;--;;;;;---;;-----*",
"=-***=====*-----=;*=;*===;*=;*====;*=-*--*====-*-*=-=-*===*-*-*-"
};
