/* XPM */
static char *result[] = {
/* columns rows colors chars-per-pixel */
"64 64 46 1 ",
"  c #161616",
". c #1D1D1D",
"X c #252525",
"o c gray18",
"O c #323232",
"+ c #3B3B3B",
"@ c #434343",
"# c #4F4F4F",
"$ c #555555",
"% c #5A5956",
"& c #5E5D5D",
"* c #605F5E",
"= c #60605F",
"- c #5E5E61",
"; c #5F6062",
": c #616161",
"> c #686765",
", c #696967",
"< c #6B6B6B",
"1 c #71716F",
"2 c #737373",
"3 c #797977",
"4 c #7C7C7C",
"5 c #82827F",
"6 c #7F7F82",
"7 c #848484",
"8 c #898987",
"9 c #8C8C8C",
"0 c #908F8E",
"q c #8D8E90",
"w c #959594",
"e c #97979A",
"r c #9C9C9C",
"t c #A3A3A3",
"y c #A7A7AA",
"u c #AAAAAA",
"i c gray70",
"p c #BBBBBB",
"a c #C3C3C3",
"s c #CCCCCC",
"d c #D4D4D4",
"f c #DCDCDC",
"g c #E3E3E3",
"h c gray92",
"j c #F3F3F3",
"k c #FCFCFC",
/* pixels */
">:;:;;:--;3qtye7<>;2qtye6<--::::>:>;>;>;---:2qtye7<:22qyye6<;&&;",
"-%%&---%%;<8etw3:*=19rt03>%%%*:---==&&-%%%%-<7etw4>:<<8rtw4>%%%%",
":%%%%%%%%&,38971=**<49972:%%%%*%&&%%&%%%%%%%,38851:&,,49971:%%%%",
":%%%%%%%-&:,12<>=**><331,=&-&&=&&=:=%-%%&%&&:<12<,:=>><332>:&&&&",
":=&&&&&&;:::=::=:==:>:>:====<6ww961O;&%-&&-=;:;;>&=:::>::>>:=&&&",
"=*%&&&&--:::;:::;:;:;;>;:==+epsfspe@X-&----;::;-::;;::::>:===&&*",
":%>><,,>:;;:>,>:::=--&&&===@ifkkkgp$X,,<:>:;::>>>:;;&&&-&&%==%%=",
":>137441:&;<343<:--%-%%&-=;@ahkkkhp$X46411>&:<3431>-&&%%%%======",
"=>40ewq4>%:4qeq4,-&%-&-*===@phkkjfu#Xqrq44>%>3qe96,--%&&--&::&&=",
"=,5rurr7<-<7rye8<&&&&--=;==@ifkkgau#Xryt77<;<7ryr7<&%%&*;;:*:&%&",
";,4wtee82<39etw4<*-%&--==;=@ifkkgpu#Xwte982<28etw6<--%&-:=:=====",
"=>179q998879q882>--*&-====*@ufjhfau#X69q9988899972>-&---:;:;:=%*",
";:><2649ere842,>:-***:::;=;@ufjhfau#X<2689wre961<::;=====;==:*%=",
":%%%-118ryr72=%&*:::-:-:=;:+yfhhfpu#X&;<87tyr82;&&=;:;=;==;==***",
";=%$%<,6ete6>-%%--==:::-::=+tshgfpu#X%%>64wre5,%%&-===;=;====&%*",
":%%$%,,7wre6>%$--===:*:;:::+raffdau#X$%<66wte5,%$%-=:;=;=;==:***",
":&%%&>>27872>&%&--:==-::=;:+rpddsau#X%%>227872>%%%---::*::==;***",
">%&%&:;>11<,--*-*-:;;:-:===+rpsfdau#X&-:<,<1<<:*---=:::-::==:-%*",
";=&&:;;;-----==;-===:-::==*+rpsddau#X-::----;=:=====-:==*:*=-***",
":&&=;&--&%*&-======-:*::=::+epsdsau#X=:-&*&&&--=;;=;::;:-::==*%*",
">%&&:&;&*%&*=;:;==:::===*::+wpsdday#X::--&&&**-*:::-*:=;:;=;=***",
":=&*=:=;:---======*:*=;=:::+rpsdsau#X;:=*--&----==::::====;==*%*",
":&====:::-=:;::==-*-:-:-::=+wpsddpu#X:====-===*:;:::-::==;-==***",
":&%-==;=:;=;==:;::::::::*::+wpsddau#X=;;-======::-:-*:*=-:===*%*",
":&&=::*=:::*;=;==::-==;::::+epsdsau#X===::*===*:=====;;=::===***",
":=%==-:;-=;:===;=;::;==;-:-+epsdsau#X-==:-==:;-:;:;:;==;::*:=-%*",
":====:-=:-=:=;==*-:--;==:::+rpsddpu#X:-:::::-:-:::=;=;;=-:-:****",
":=%=::=::===;=;=::::===-:*-+epsddau#X-:::-:-::::===:;==:::*:**&*",
":&==;==:==-&&&--::=-**&&*==+rpsddpu#X:::=;:=--&---==-=&-&&-=**&*",
":&%==:;====-%&%-:*:*-%&&*==+epsddau#X:-::;:=&-%-&--==-&%%&&==&&&",
":&==::=:=;==-%--=::*&-&-*-=+epsddpu#X:::====-&&%*-==:=---&=:**%*",
":=%:;=;=;=;::>>;-:-:::>:;==+epsddau#X*-::;=:;:>>:::=::::>:::*&**",
":%&*---&-=><232<;=;>2332<:&+rpsddpu#X:==&&-=>1242<>->;2361<;--&&",
":&&***--&-<6qw93>;=<6qw73:&+epsddpu#X*:---%-<69w92>;<<6qw72,-%%&",
":=&*=--%&-28rye4>;;29rtw3,&+rpsddau#X==*-%&;<8rye6>-119ttw6,&&%-",
":*&&**--%-28rtw4,;=19tyw4,*+epsddpu#X=-*%&&;27ryw6>;118rte3,&%%*",
":&&*--&%&-18rtw6,::29ttw4,-+rpsddpu#X==--%-;27rye4,=219ttw6<&%%-",
":*&&&&&%&-<49w82;;-16wq72>&+wpsddau#X-&&%%%;<49w82>;<<6qw82>&%%&",
"=&%%&%%&-:><231<::->2333<=-+epsdsau#X&&%&&-;><221<:=>>1342<:*&**",
"=&&&&-&-=;:;:;;;:;=;;>>::=-+rpsdsay#X&-&&*-=;;:;:::=;;;>>::-*&&&",
":==><,,:;==:>>>;::-&&-%-*==+epsddau#X,<,:>--=:>>>:==-&&--&*-=*&*",
"::<35342=-;<333<>=-&%&-%-;=+epsddau#X36411;&;<333<>&%-%%%&*-=*&&",
";>30e0q4:&:4qwq4<&-&&&&-===+eisfdau$X0r036>%:39wq6<-%-%--*-=:%&*",
";<7ryrr7<=<7ryr7<-&%&&--===+rpsddau#Xryr77<-<7rye6<--%&----==*&*",
"&,4wtrr82<28rte6<*-%&--*:::+risdspy#Xwtr992<29rte6<&%-%-=:==:*%*",
":>27900977880072>--&&---*:*+rpsapy0@X6909977790q82,=&&--;-==:***",
":>27q0098779q972>-*&--==::*+rpsaiu0@X600997779qq82>-&&-==;==**%*",
":&><2469wre962<,=--**===:*:+epsapuw@X<2488wreq42<,:-&-==;==:=***",
":%%&;218ryr81-%--:===;:::==+rpapit8+.--188ryr91=&--=:-*:-*-::***",
":&%$%,,6ete6,-%%-===-:*:*=:+rpsiye6+X$%,66ere6<-$%-;:::::::;:*%*",
":&%%&>>27972--%--===:-:-::=+tpait92+.%%>227972>%%%&=:--::===-***",
":&%&;::,121,;%--=:;=:::::::+rpsit92+.-=:,<121<:---==:::;*:==**%*",
":-%::::::::=-:;:;:=:=;;=:=:+tpay82%o.======::;==;==;:===:;===*&*",
":&&&::&&-%&&-::-==;:;==;:;:+rppt7<%o.=;--&%&%&=;=;;=;=:;==;;=*&*",
":&&=:=&&%-&&&:::;:;==;==:::+0uit92-O.==----%&--=;==;:;:==;==**&*",
":=&==::;---=:-===;==;===-:-O7tue72-O.===-=;-=-=;=;;===:==:===*%&",
":&&&=;=-&&--:===-=::-====:=O2qe86<&o.=;=-=&&=-==::;=;=;=;:::****",
":&&*==;=::==:==;:::=::::;-=X&22<-#@X ==;:&::::===;===;==-::*:*%*",
":*&*;=;=:-:==;;=::=:*=:-=;==XXXXX. ;:;=;:::::-:==;=;=;==:-:-****",
":&*==;====:=;==;&::-:;=======:=:--====;==:-*==:==:;=;===::::=*%*",
":&&*=:==;====;=;=;=====:;=;=::*=======;:::=======:==::====**=*&*",
":=&*:======:;=====::===:=;=;:::;;==*;:=::::;;==*;::;::::==**=*&&",
"=&%====:=-****====&*--****==*&**==****-**&**==****-*:=**-*****%*",
"=*%%=%*%&&*%&&&*==%*=%&*%&&***%&&&%&&&****%&&&%&&&**%&&*%&**%*%%"
};
