/* XPM */
static char *result[] = {
/* columns rows colors chars-per-pixel */
"64 64 28 1 ",
"  c #575757",
". c #5A5956",
"X c #5E5D5D",
"o c #605F5E",
"O c #60605F",
"+ c #5E5E61",
"@ c #5F6062",
"# c #606061",
"$ c #686765",
"% c #696967",
"& c #6B6B6B",
"* c #71716F",
"= c #737373",
"- c #797977",
"; c #7C7C7C",
": c #82827F",
"> c #7F7F82",
", c #848484",
"< c #898987",
"1 c #8C8C8C",
"2 c #908F8E",
"3 c #8D8E90",
"4 c #959595",
"5 c #97979A",
"6 c #9C9C9C",
"7 c #A3A3A3",
"8 c #A7A7AA",
"9 c #A8A8A9",
/* pixels */
"$#@####++@-1786>&$@=3785>&@O+O##$@##%###+++#=3786>&#==3885>&@XX@",
"+..XXX+X.+&,574;#oo*<672-#X .X+oo+oXXX++X. X&,474;%O&&<674;$....",
"#........X&-<1:*#oo&;12,=#..X.ooo.oX.......X%-,1,=O+$%;11,*#....",
"#....X..XX#&*=*#+oo$*=-*&OXXo.oooXoXXX.X..XX$%*=&$Oo$$&--*%#O..X",
"#O.O.OXX@###O###OO@###$@OO@OO@####OO+XXX+X+O@#@O#o#+###%$$##OXoo",
"OoO.XOX+@@##O###@OO@#$#OOOOO@O+#O#+#+XXX++X+O##+###+#######OOOO.",
"#O#%&&$$#X@#$$$#O+O++XXXOOO@OO@#+++#$%&&%$O+O#$$$$#+XXXXXXO#OOOo",
"##*;,;;&#X@&-;;&$O+ XXXXOO@OO@O@XX+%&;>;&=#X$&-;-&$+XXX.XX.OOOO.",
"O$;2543;$X#;351;$++ XX++o###OOOoXXX%;154;;$X#;353;&XXXXXXXX##X.#",
"O%:6866,&X&,686,&XXXX+OOO#+#OOO+XX+&,696,,&X&,686,&+ .XO@+#O#XoO",
"O%;4756<=&-1574>&+XXX+OOO++#@#ooXXX&>475<<=&=<674>&XX X+@@O@#..O",
"@$*,1111<,<111,=$XooX+O+####@O#+X++#=,<331<<<111,-$+++X+@Oo##ooo",
"##$&=;>15641;=&$##o+o+#######+##+XO#%&=><15651>=&###+XOO#O#o#O.O",
"#...@&&1686<=OX.+#OO###+O+o#####O#OXXX+&<,6961&O.X+#OO#O#+###OoO",
"#X.  &%,574>%X  o+OOo####@OO+##+O@O+   %>>464,%. X+#O###O#OOoo.o",
"#.  X%%>464>%  X+@OOOO##+OOOO##OOO@+X X%>>464,&. .+#@#o#O+OOOooo",
"#X..X$$=,1,=$  X++######+##+##OO@OOOX X$==,<,=#X.X++##O#O@o+#ooo",
"#X..@#@%&*&%#+o+o++##++#######OOOOO+XXX#&%&*&&#o+X+X@OO@#####o.o",
"#O.O@#@@X+++@#O#OOO@Ooo#O@OOo#oO@#OO++o#O+++@OOO###O#OO#+###oooo",
"#OOOO+@XXXXXO@@#OOOOO###@OOO+###+#Oo#+#+X+XXX++OO+OO#@O@##+#oo.o",
"#O.OOX+XoXXX++##O###OO@O###O##@O##+##+#+oXXXooooOOO@O@OOO@OOoo.o",
"#XOO#####+Xo###+Oo#oOO#@o+o##+#O#####@##+oX+++o+OO@O@O##@O@Ooooo",
"#XOO#o#OO+o##o##O+#++##+##+##+OO#o#oOO@O@O+O###@@O@OO##@OOOOoo.o",
"#O.X@#O@OOO###@O#########o####OO###+#@O+OOOO##+OO@O@O@OOO@Oooooo",
"#O.#OO@@O@O@@O@O####O+@OO#+#+##oOO##+##++##+##OOO@OOOOO@@OO@#ooo",
"#XOOOOOO@OOOO@O@#+#oO@##O@##O###OO####o#######OO@O@@OOOOO@#@#oXo",
"#O.OOO##@O@OOOOO##OO@OOO+##+###oO##+####O@O@+##OO@@OOO##@@#OooXo",
"#XXOO@OO#@O@@OOOO#+OO@OO####+OO#+#OO#o+#O#@Oo##oOOO@O@#+OO#Ooo.X",
"#OOO#@O@OOoXXXX++#O+oo+oo#O@####OO##oOOO@OO+O+X+O+OO#+XXX+X#oo.o",
"$..O#O#O#@+X XXo##OoXX Xo+O@#+o++Oo##OOOO@@O++ ++XOOX@XX.XXoOooo",
"#XOO#O#@#@O++X++###oX+X+oOOO#+####+##+@O@OOOoXX o+O@++X+XXo#Oo.O",
"#X.OO@#OOO#$#$@#+o##O#$@#OOO###########@OOO+O$$#$#@O#@#$#$##OXoo",
"#X.X+o+X+@%&-;=&#O@$=-;=&#+X++O@+#O+#O+#X+X+$&=;=&$@$@=->*&@+XXo",
"#oooO+XXXO&>14<-$+O&>23,-#XXo+@O##O####+X+X+&;141=$O&&>33,=$+..X",
"#oXoO++XX+=<675;$@O=1774;$X oXOOoOO#O##o + O=<675>$+**<785-$o .O",
"#XXoXoXX O&<775;&@@*<774>$XXXXOO#O+#Oo+oXX+@*<684>$@**1675>%. X+",
"#XXo++oXXO*<685;$##=1774-$++XX+O@OOOO+ooX XO*<695;$+**1775>%oX o",
"#oX.X+X XO&>12,=@@@&>33<=$+ oo+OOOO++oXXX XO&;13<=$@&&>33<=%X..X",
"#X.X  XX+@$&=-=&###%=-;=&#+++o##@OO+XX XXX+@$&==*&@O$$=-;=&@O.oo",
"#o.XXXXX+O@@#@@O#@@#@$$@$OO+O#o#@OO+X+XXXo+O@@@@$OOO+@@$$$$OOo.o",
"##O#&$$$O+O$#$$@##+oXXXXo+oOOO#+O+O#$$&%@$@+@$#$$##+X+XXXX+OOXXo",
"##*-,;;&@X@&--=*$O+XX  Xo#OO@O##+++$*->-=&@+@&-;-&$+XX.X+ X+Oo.o",
"#$;1533;@X$-351;&X+ XX++o+##O@#+XXo%;252->$ #-143;&+ X.+X++O#Ooo",
"#&:6966,&+&,686>&+XXXo++#o#+@OO+ XX&,696,,&O&,686,&+ XX++OOO#O.o",
"O&;4766<=&=<675>&+XXX++O#+##OO#++X+&>47611-&=<675,&XX.XXO##O#X.O",
"##*,1221,,<122,=$XoXXXOO####OOoOXX+$=,3211,,,122,=$+XX++OO#+Oooo",
"##=,1111<,,131,=$++X++O++##@O@o#+X+$=,3211>,,132,=%+XX+X+#O#oo.O",
"#O$&-,;14641>=&%O+oo+OOOOO#OO###XX+O%&=;<15551;=&%#X+XXO###oOooo",
"$O.X@*&<686,=@X+o++oOO##+##+########+X#&1,6861&@+X++O@OOO@O@#+oo",
"#.  .%&,575>%.  o###OO#####oo#+o#+#X  X%>>475,&. XX@@O@#O#O#OOXo",
"#X. X$#-,1,-# XX##O#OO@+OO###++##X#XX .$-=<3,-$XX.X#@O@O@OO#ooXo",
"#O..+##&*=&&#XXX+#+#O@##OO#o######++X++#&%&=&%#XX+X#O@O@##O@oo.o",
"$XXOOO###+#O###@##O#OO@OOO+o#####+O#O###X+###+##++O+##OOO@OOoo.o",
"@XXO@O@XXXXX@###@OO+@##O#@####+###O#+#OXXXXXXX+###OOO#@O@O@Ooooo",
"#OXOOX@XXXXX+O+##OO###@#+###oOO@#O#+###XXXXXXXXO@o##O+#OOOOOoo.o",
"#X.##O#XXX++#O###@O@OOO@##+#OOOOO##O#+#+++XXX##+O#@OOO#OO@Oooooo",
"$.XXO@@O+X+OOO@O###O@O@OOO@#O+##O+OO@O@O++oXX###@OO@@OOO@O@##ooo",
"OoXO@OOOO+O@O@@O+OOOO@OOO#Oo##OO##OOO@@O########OO@OOOOOO@OOO+Xo",
"@XXOO@O@OO+OO@O@OO##O@O@OO###O#+#OO#O@O@O+O#O###@#O@@OOO@@O#ooXo",
"#XXOOOOOOO##OO@OOOOO@O@O#+#+O###OO+#OO@OOOO#+##XOO@OO@@#OO@#oo.o",
"#XXO#O#OO@OO@##OO##+O##O#O@OO###OOOO@##O##O#@OOO@OO@OO#OOOoooo.o",
"#OXoOOOOOOOOO@@O#OO#OO#OOO@O#OX#@OO#O@@O#OO+OOO#####OOO@oooooooo",
"#..oOO##O+ooooOOOOOOXOOOO#O+OooOO+ooooOOOoooOOooooOOOOXoXOoooo.o",
"Oo..O.o.XXo.o.ooXO.O.XO.o.XXoO.O.Xo.o.ooXo.XXX.oXo.oOO.OO.oo.o.."
};
