/* XPM */
static char *_ccca305abd44d99935405fbd74ac3e4ZIKXtXh3Jm0qiYch[] = {
/* columns rows colors chars-per-pixel */
"64 64 74 1 ",
"  c #575757",
". c #5A5956",
"X c #5E5D5D",
"o c #605F5E",
"O c #60605F",
"+ c #5E5E61",
"@ c #5F6062",
"# c #606061",
"$ c #686765",
"% c #696967",
"& c #6B6B6B",
"* c #71716F",
"= c #737373",
"- c #797977",
"; c #787878",
": c #7B7A78",
"> c gray48",
", c #7B7B7B",
"< c #7D7D7A",
"1 c #7C7C7C",
"2 c #7E7E7E",
"3 c gray50",
"4 c #82827F",
"5 c #7F7F82",
"6 c #808080",
"7 c #818180",
"8 c #838280",
"9 c #808083",
"0 c #838383",
"q c #848482",
"w c #818184",
"e c #848484",
"r c gray52",
"t c #878784",
"y c #868686",
"u c gray53",
"i c #888888",
"p c #898989",
"a c gray54",
"s c #8C8C89",
"d c #8C8C8A",
"f c #8A8A8D",
"g c gray55",
"h c #8E8E8E",
"j c #908F8E",
"k c #8D8E90",
"l c #909090",
"z c gray57",
"x c #929292",
"c c #939393",
"v c #949492",
"b c gray58",
"n c #959595",
"m c gray59",
"M c #979797",
"N c #97979A",
"B c #9B9B9A",
"V c #9B9B9B",
"C c #999A9C",
"Z c #9A9B9D",
"A c gray61",
"S c #9D9D9D",
"D c gray62",
"F c #9F9F9F",
"G c #A0A0A0",
"H c #A2A1A0",
"J c #A2A2A0",
"K c #A0A1A3",
"L c gray64",
"P c #A3A3A6",
"I c #A7A7A7",
"U c #A6A7A9",
"Y c gray66",
"T c #A8A8AB",
/* pixels */
"$#@####++@=kKYZ7&$@=kPIN6&O+OO@#$@$###$++++#=kGYZ7&#==kPTZ7&+X+#",
"+..XXX+X.+&tVKv<#oO*iAKx:#X..o+oo+.XO+X+...+&tBKn:%#&&iAKv<%....",
"#........X%-td7=#oo&1dj7=#....oooXXXX.....X.&-tu7=#X%%1uhq*#....",
"#.....X.X+#&*=&$+Xo$*=-*&OXXXXo+oXoXX.X..X.o+&==&$OO$%&,==%OOO..",
"#O.OXXXX@#######OOO#@$$#OOOO@O#OO@#o+XXX+X+########+##$#$$##OOoo",
"Ooo.XoX++#######OOO@@@$@OO#OO@#@o##++XXXX+X################OO..o",
"#O#%&&%$#o+#$$$#+++++XXX+OOO@OOOX#+##%&%$X#+#$#$$$++XXXXXXX#OOOO",
"##*<71,&#X+&;,,*$o+X.X.X+OOOO@@#+X+$=,55==#X#&,1:&$+XXX.XXXOOO.O",
"O%,jVxx1$X+,kNh1&X+XXX+++O#oOO#+XX+&1lVx,,$X#,hNh,&XXX.XXX+#OoXX",
"X%4VIAA7%X&tFUA7&XX X+@O#OO#O#o+X.X&7AUAtt%+&tAUZt&+ XX+++OOOXXo",
"#&<nKVZi=&;iVKn5&X+.X+OOOO##+##++ X&5nFZii===iAKn7&+XXXo##+O#..O",
"##*4hhhfitufhh4=$o+oX+OO#++#####XX+$=7fkffu6tfhft=#+XX+X##OO#ooo",
"#O#&=,5fNANi<=&%#O+o+#O##+###o#O+XX#&&=,ifBZnh:=&$+++++oO+@##O.O",
"#X..+*&iAUZu&#XX+O####+##O####OO#@#+X.X=iiAYAi*+XX++OO####Oo#Ooo",
"#X..X%&7NGn5%X .o+OO##+#O#+##+O###OXX X%61nGn7&o XX#OO+O#O##oo.O",
"#.. .%%4nGn5$  Xo#+O#oOOOo##@OOo#+#X   %17nKn7&. .X####OO#OOoooo",
"#X..X$$=tue=+X.X++OO@O@O#o##o####+#+X X$==7i7=#X..++#OO##+#o#ooo",
"#X..+#@%&*=$#+X++O@OO@O@@#O@#@#+###+XXX#$$=*=&#++++O#@O@#####+.o",
"#XXo##@#++O#+OO@OOO@##O@#oo#o#####OO++##O#+++OOO#+###O####O+oooo",
"#@oO@X++XXXX+#OOOO@OO@O#@O#@#O+#o+OOO+#+X+XXXXoO#OOO@OO@X###oo.o",
"#oXo#X@XXX.XX@#O#+##O#OO##oOo#o##o#Oo#@++XXXoo++OOO@O@OO@OOOOooX",
"#O.OO##X+++O##O@###+@#@O#+#O#@#@##OO#@#o+XX++++oOO@O@O##O@OOOoXo",
"#oOO@###OO#+##O##o#OOO#O@##@O@#OOOOOOO@OOO+O####@O@O#@#@@OOOooXo",
"#o.XO###OO#O#O#OO##+###@O#o#o#o###@O#@OO@OO+OO+#O@O@OOOO@OOooo.o",
"#o.@#o@#@##@#@O@O#+#@#O#+#o#@#o@#+#OO##+#o#o#O#OO@O@+OOOO@o#@ooo",
"#oXo#OO#OOOO#OO#OOO#O@@###OO#o#OO#o#OOO#@O@##@o#@O@O#OO#@O#@#o.o",
"OXXoO@#O@O##o@@o#++#OOOO##O@@##@+####++##OO#o#o@OO@O#O###@#OOooo",
"#XXo#O@OO#@o#@o@####+OO+o#+#O#o###+######@O@#@#OO@O@OO+OOO#OOo.o",
"#oXOOOO@##oXoXX+#o#ooo+++#O@#o#o+O#o#OOOO@#O+O++OOOOOX+XXX+OOoXo",
"#XXOOO@O@o@X.XX+O##+X. Xo#O#O#@O#OO#o##OO##Oo+  X++O++XXXXXoOoXX",
"#oXXOOO@O@ooX+X@O##+XXX+oOO@@#@########+@#@OOXXXo+OO+#X+XXooooXo",
"#OXOOO@O####$@##O+###$@$#+OO#o#oOO+##+O#OO#O@#@$$#@@####$##ooXXo",
"#OXX+++XXX$=-1-&#+O&*,1=&O++++O@+#+##O+#XX+O$&,,=&$X%O=,,=&$+XXX",
"#O.oOX+XXX&7hxu=$OO&5jxq=$+ o+@O##OO#O#+++X+&5hnu=%#&&6kxt=#X.XX",
"#OooO++XX+=tAPn5%@#=iKKn1%XXoXOO###O+O#+X XO*tAPN1%+**fGPn5&X..X",
"#X.o+XXXXX*iAPn1&@o*dGPn6$X.XXOO+#o##OOoX+ O*iAPn5%+**iKPx:&X.XX",
"#XXO+XXX.#=tAPN5$@#=fFPn,$+ XX+OO@OO#++oXX O=tFPn1%+**iAPn5$X..X",
"#oX.+XX X+&5fxu=@O@&7kne=$X+oo+oOOOOooo.X ++&1hxi=%O&&5kxi=$X..X",
"#X.XX..X+@$&===&#@O&=,,=&$+Xo+##@OooXXX XX+O$&===&##%%*5,=&$XXX#",
"#o.XXX+X+O++$#@@@OOO+$#$+o#+#o#+O@++o+X+XX+#+X#+####+@#$$$#ooXXo",
"#OO%&$$$+OO$#$$###+oXX +o+OOOO##@++#$$&$##+@+o$%#$OOX+XX +XOOoXX",
"##&171,&+X#&,,=&$O+X.X XooOOO@##+oo$*,5-**@+X&=1,&$+X+ .XX++O+.o",
"#$1dVxk,$ $,gnh1&XXXXX+++###O@#o+XX&1xNl,1$X$,gng1&+ XXXXX+OOOoO",
"#&4VIAA7&X&0APAe&++ X+OO#o#+@O++X X&4VIGee&X&0AUZt&+ XXX++OO#O.o",
"O&4nKAAi=&=uAFNe&XXXXX+OO+#####+X X&5nKAfi=&=iAGN7&+X X+OO#O#o.O",
"##*0hhlit0ugxj7=$X+XX+OOO###+##+o+X$=7ixfgi7ehll7=&#XX++OOO##o.o",
"##-7hxxdu00dkh7=$+oX++O@##OO##OOXX+&=tfxdd77uglh7=$+XX+OO@O#OOoo",
"#O#&=51inANi5=&&@+oo+O@O+OO#o#OO+X+#&&=1ifZVng1=&&++X+O@OO###O.o",
"$o.X@=*uATFu=+XXo+OOOOo#O###+###+OO+XX+*uuAUFu*@XX++#o##o##O@ooo",
"#.   %%7nPn5$  .o#OOO@##OOO+###oOOOo  .&66NFN7&X.XX+@#O@#@o##+.o",
"#X. X$$,tir;@XX o+#+@@###++#####OOO+X X#=,tfe=$ .XXO#o##o@#@oooo",
"#O..X@+%==&%@+X@o###OO#+####+O#+O@O++++#$&&==&O+X++O@OO@#Oo#o.oo",
"$XXooo@o##@@@@#X##+#OO@O#o###+OOO#OOO@OOXo#@+OOO++@O@OOO@OOOOooo",
"#XXo+ooXX.XX@@#@@O##@##OO##+####@###@O@+XXXXXX+OOOO@O@#@O@OOOoXX",
"#oXo@oooXXXXO####OO###@#O##O#OO###+#O@O+XX +++O@O@OOO@#O@OOOooXo",
"#XXoo@@o+Xoo@OO@#@O@OOO#O+#Oo#O+##+OOOOOO+O+OOOOOO@O@O#OO@Oooo.o",
"OXXo#O@o+XX@##o@##O@O@O@OO@O#OO++#O+##+#++O+XO@O@OOO###OO@##+ooo",
"OXXO@#O@@@#OO#O#+OOOOO@O@@OOO#####O#####OOOOOOO@O@OOOO+#@O###o.o",
"#OXXO##ooO##O@#@OO##@O@OO@OOOO@OoOO##+o##OOOOO@OO@OO#+@O#O@+oooo",
"#XXo@O##@#@O#o#OOO#+O@O@@OO##+#o#O+##OOO#+O#@OO@@OO##O#O#O#Ooo.o",
"#XXOO#OO#OOO#o####OOOOO#OO@O##O#OOoo#+###O#OOOOOO@OOO###ooooOoXo",
"#oXOOO#####O@OO+OO#OOOOO@OO@OO##OOooOO##OO##OOO#@OO@OOO#ooooOoXo",
"OOXXXXooXoOXXOXOOOO#+OoXooOOOXoO+oXooo+oOXOO++ooXoOOOXXOXooooo.o",
"O...XXXoO.OO.OO.O.o.XXoo.XXoOO.O.Xoo.XooOO.O.Xoo.XXoOO.OO.oo.o.."
};
