/* XPM */
static char *cd984aa3ed9d4f9b8b2d24795ec883daHHCE5Pb6466Orsgd[] = {
/* columns rows colors chars-per-pixel */
"64 64 66 1 ",
"  c #010101",
". c #080706",
"X c #090806",
"o c #060609",
"O c #0C0B0B",
"+ c #11110F",
"@ c #0D0D12",
"# c #0F1014",
"$ c #0F1119",
"% c #131313",
"& c #181716",
"* c #181817",
"= c #13141C",
"- c #1C1C1B",
"; c #201F1E",
": c #20201E",
"> c #171920",
", c #1C1D25",
"< c #1E2028",
"1 c #242423",
"2 c #282725",
"3 c #292927",
"4 c #232429",
"5 c #2C2C2C",
"6 c #302F2E",
"7 c #31312E",
"8 c #343433",
"9 c #393937",
"0 c #3C3C3C",
"q c #444443",
"w c #484746",
"e c #494947",
"r c #4C4C4C",
"t c #504F4D",
"y c #50504F",
"u c #545454",
"i c #5A5956",
"p c #5E5D5C",
"a c #605F5E",
"s c #60605F",
"d c #5E5E61",
"f c #5F6062",
"g c #626262",
"h c #696967",
"j c #6C6C6C",
"k c #706F6F",
"l c #70706E",
"z c #747474",
"x c #797977",
"c c #7B7B7B",
"v c #81817F",
"b c #7F7F82",
"n c #838383",
"m c #898987",
"M c #8C8C8C",
"N c #908F8E",
"B c #8D8E90",
"V c #939393",
"C c #97979A",
"Z c #9C9C9C",
"A c #A4A4A4",
"S c #A7A7AA",
"D c #AAAAAA",
"F c #B3B3B3",
"G c #BCBCBC",
"H c #C1C1C1",
/* pixels */
"gfgggggddgzMASCnjghzBSACnhddffggghghffhffddgzBASCnjhzzBASCnjgppf",
"gpipppduifknCAVxsspjmZANxhiipippppppdppdiiidjnCAVchpljmZAVxhiiip",
"siiipuiiipjxmmvlsssj2O   oo  o .oo o      -phzmmnlaphhcMMnlgiiii",
"siiiiipidpgjlzlhspsg1+o oXoOOXXXoXXXXXoooX-8gjzljhgpghlzzzhsaiip",
"gpapppdppssgg97557788889888979999897989898887sgsgspggggghggssppa",
"gpipppppdfsg8-O..X&5yhzxzlljllllllllzjzzzki9;O..X%5sgsfggggssppa",
"gsshjjhhgpfg5O    X8gVADAZAZZZZZZZZZAZADDZxq*    o-fpppdpppgsais",
"sglcvccjgpfj5&O. .-qcAGGGFFFFFFFFFFFFFFGHDMi3O  X&1gpppippppssps",
"shxNCVVchp57900099qjMDHHGFFFFFFFFFFFFFFGGFVzu0000008ippppppggpps",
"sjvZSZZn7%O1qhcbxzcMZFFFFFDDFDFDFDDFFDFFFDAVncccbzu9,-6pddgpdppa",
"shvVACZm4  4uMSDDSAASDDDDAADDDADDDDDDADDDADAAASFDCj9O &pfpggsapa",
"gglvMNMM1&*9jCGHGFDDAZZZADDDDADDDADDDADDDDDASAFGHDx9o o5fgdssapp",
"gsgjz08880wgmAGGGFFAVnnNCDDDDDAAADDADDDDDAAVNNAFHFc0   %5gssaspp",
"gpii8-&1qhbVZSDFGFSCcllcNADDDDDDADDADADDDDCmxlmSGFc0.   %:8ssppa",
"giiu1X ,umAFFDDDDDAMzhsxNADFDAADDDDDDDDDDDVxhszVDAc0O    X1saapa",
"gpii-  -uVGHFDDDDDANxjjxVADDDDDDDAADADDDDDCvlhlcmbjy5-o   -saapp",
"fpii-  %uNFGFDDDDDAZmvvMCADDDDDAADDDDDDDDSAVmcjpyeupdu8@  &pfppp",
"gppp;  %tMFGFDADDDAAZCCZADDDDADADDAAAADDSSSSANzq,-0hBMd2  &ggppa",
"gppp1X -umDFFDSSADADDDDDDADDDDADDADDDDDDSDDFFAz9Xo6jZAx9X *dsapa",
"gpp05110hVDFFDDSDDDDDDDDDDAAADDDDDADDDDDDSFFFSbu5,0gnmh0-*1psapp",
"dp659eijnZDDDDDDDDFDDFDDDDDDDAADADDDDFDDADDFFDZbguyyyyeq9973sapa",
"g4%:qjMZADDDDDADDDDDDDDDADADDDDDDDDDDDDDDDDDFDDDZMh0,%10uu9-+>pa",
"g$ %rnDGFDADDDDADDADADDDADADADDADDADDDADADDDDSDFFZz9O -qpu9& Opa",
"d@ %tMGHGDDADDAAZVVCAADDDDDDADDDDDAZCVCZDDDZCVVVMbgq5150yw3X oip",
"g@ %yBGHGFADDDAZmccmVADDDDDDDADFFDAVvxnVSFACmzhurqrifpuq5,X  Opp",
"f= &ymDGFDDDFDAVcjhxMADDDDDDDADDFDZmlhzMADAMxgq3%=0jVVk0%    @pp",
"d= %enSFFDADDDAVxggzMADDDDADDDDDDAZvjsjnZACMzp0- X8zZAx0O    %pa",
"g* +0kBZADDDFDAVnzzcVDDDDADDDDSZCVmvzzxnBNNmcji065qgcxh01O   @pa",
"f> O7ixMCADDFDAZVmmVCADDDDDDDDANbcxvmMmncxbnMMnckgprq00q08-X @pp",
"d> X1ehcMZDDDDSAAZZAADSDDADDFDZmzgjvCACnjgknCSDDSVj0*O40uu9% Ops",
"f> .1egxMZDDDDSDDDDDDDSSDDDDDDZnjgjvZSZnjgjnZSFFDCj0@ -0pu9& Ops",
"g= O6uxMZSFFFDDDDFFDDDSDDDDDDDAVvzxnMVMnxxcnVVNBnxdw969qw01X @pp",
"f= +0jMADDFFDDDDDFFDDDDDDDDDDDAZCNmvcccnMNMmvzhyq0rfzji05*o  @pp",
"g= &wvAFFFFFDDDDDDDDDSDDDFDDDDDDDACvjgjmZAZMzf04O%9zCCz0#    #pp",
"g$ &rvSFDAZZASDAAAAAADAAAAAAADSDDSCvjfznZSCMzp0* X8jCZxqO    %ip",
"g= %wcCCnzjxMAAACMMVADDACMMCADDAZNMvcxcMVCCMvzu91>8ukkpq5&o  @pp",
"f= %0jnxi09uxCDAmzznCDDCnzxmADDCbxxnBVNMnbnBNmxfe099990eq01O @id",
"g= O7ihu8%O6gCDZvhhxVSDVzghvCDAMzfjbCSZmkhxBZACnju9,OO1qpi9% Opp",
"g> X1qu0-  ,iVDZnjgzBZZMzhhcVZCmzgjnCAVxiugnSDAnjy8* o-0iu9% Opp",
"g>  &591   &iVDDCnccnMMmbccvmMMnbcvmNMcu98ycSGZzr82,,159q91X @pp",
"g,  o%-O   -uVDFAZVmczzbmCVmcxxnBCVMvzi8&%9zSFCp2@*60q071-X  @ps",
"g,         1pBDGFDANxhhcCAAmzhhbCSANxfq<o 3hZDme% %0pdw2X    #pp",
"g,       X,0jCDFFDAmkpdzMACmjpdcVAZNchr3Oo1ubMzr<%40uu9-     %ps",
"d<o     -0uzMADFAZMcjdpjnMMchpdkvBNNmbhe7450uppurwqq081O     %pa",
"f<     %0kMADDDAVnxkfdphjzzjgpdgjzbBCCMziq83<10hnnjq,O.      @pp",
"g,     1imDFFFACbjfpddfdfdgggddppfkmZSZMzi0-o.5jZAvq%        %pa",
"d,   @-0fnCASACnhyqrudggdpppggppiihbCAZBchq<OX5fMVzq-        $pa",
"g> .1qipppgjnMMkr859rphhdpppghhdiphzmNBnzgu0528rpfiq81&o     %pp",
"g= %qxMci919uzzp8%O1qsjjgdfghhggdpgjxxxzjgpuur05118qrr8*     #pp",
"g$ -uNDMy- #8udw1o -9ifhgfffdddgfgfgdddfdgghhpq1o -qidq4o    %pp",
"d= %wcVcy>X#50q94##>8qyidggpuyuupgdurwrupgdduy0,@O-9yuq6-@   @pa",
"g$ .1edir95244225775226qugdu068qphpq647qphdr06355568899095*  opp",
"g=   %18qyu01+X-9ru01O#5yhgw2%-9uhi0*O*9ihu8*@-8eyq3&&5qur7O opp",
"g,     &0udr5o -0idq; .;qpu0* o5rdu8% #8udr5X &0udq,o -qai0& @pa",
"gp-.   o4qrq5*%10ry03%%10rq2O  -9wq6>%>6qr05&%<0yy8&  %5er9:&,pa",
"gp9-X   O-58888888888888854%o  X>58888865556889995>o   &3665aapp",
"gpps-o    O19uuq5&%10uuq5%X     o@-9eue8-@-9ruw8-O      o%19gppa",
"gppp7&     -0idw1  -0ppq-o        #8upy5X %9upe5X        X1psapp",
"gppss2*OXO%19qw8%  O5qq7%         .10r0-  X1qe9*   o%*%OO*7gsppa",
"gppssssfggds55-%    &11&           X:1-X   O-1*.  .*fssfgggasapa",
"gppssgssfsss3O.      ..             ...     .o    %5sgsssssssppa",
"gpppssgssgss5%   .ooo  .ooooo.ooooo     o.o      O4ssssgsssssapp",
"spipppsspspsssppsspppsssssppspssppssssgppssppssspspasssspaaaaaia",
"spipppppppppppppppppppipppppppppppppppppppppppppppppipppppaiaiai"
};
