/* XPM */
static char *_b170c299cb0402ae714f3b79f185b3adbYigPIVXJtZnV3G[] = {
/* columns rows colors chars-per-pixel */
"64 64 160 2 ",
"   c #010101",
".  c #090305",
"X  c #0D0609",
"o  c #060A09",
"O  c #0C0C0C",
"+  c #140C0F",
"@  c #0D100F",
"#  c #150E11",
"$  c #190E12",
"%  c #0F1010",
"&  c #121312",
"*  c #1A1315",
"=  c #161817",
"-  c #1E1519",
";  c #1B1B1B",
":  c #20161A",
">  c #231B1E",
",  c #1E201F",
"<  c #231E20",
"1  c #2C1E23",
"2  c #1E2221",
"3  c #232323",
"4  c #2A2326",
"5  c #2E2529",
"6  c #2C2C2C",
"7  c #33252A",
"8  c #38272D",
"9  c #342A2E",
"0  c #362F31",
"q  c #3D2C32",
"w  c #2F3331",
"e  c #343333",
"r  c #3C3537",
"t  c #343937",
"y  c #3E3538",
"u  c #353B39",
"i  c #3A3B3B",
"p  c #45333A",
"a  c #48353C",
"s  c #433A3E",
"d  c #3D403F",
"f  c #4D3B41",
"g  c #3F4140",
"h  c #424343",
"j  c #4B4547",
"k  c #444947",
"l  c #4C4648",
"z  c #464B49",
"x  c #4C4C4C",
"c  c #504549",
"v  c #534A4E",
"b  c #4A524F",
"n  c #4E5452",
"m  c #545454",
"M  c #585656",
"N  c #5A5956",
"B  c #575E5B",
"V  c #5E5E5C",
"C  c #605F5E",
"Z  c #5C615F",
"A  c #60605F",
"S  c #5E5F61",
"D  c #6C5D62",
"F  c #5E6361",
"G  c #616161",
"H  c #6D6266",
"J  c #696967",
"K  c #666C6A",
"L  c #6B6B6B",
"P  c #71716F",
"I  c #786B70",
"U  c #6C7270",
"Y  c #737373",
"T  c #797977",
"R  c #7B7B7B",
"E  c #807C7E",
"W  c #82827F",
"Q  c #807F80",
"!  c #848484",
"~  c #888886",
"^  c #878988",
"/  c #8A8A8D",
"(  c #8B8C8E",
")  c #8F8F8C",
"_  c #8C8D8F",
"`  c #8E8F8F",
"'  c #8B8B8B",
"]  c #908F8E",
"[  c #8E908F",
"{  c #8F9090",
"}  c #8F9190",
"|  c #919191",
" . c #939391",
".. c #929393",
"X. c #959593",
"o. c #939595",
"O. c #959594",
"+. c #959696",
"@. c #949494",
"#. c #979898",
"$. c #989898",
"%. c #9B9B99",
"&. c #9B9B9B",
"*. c #98989B",
"=. c #9A9B9D",
"-. c #999A9C",
";. c #9D9D9D",
":. c #9D9F9E",
">. c #9E9E9D",
",. c #9B9C9C",
"<. c #9FA1A0",
"1. c #9FA1A0",
"2. c gray63",
"3. c #A2A2A0",
"4. c #A0A1A3",
"5. c gray64",
"6. c #A2A1A0",
"7. c #A3A3A6",
"8. c #A4A4A4",
"9. c #A4A5A4",
"0. c #A5A5A5",
"q. c #A7A7A7",
"w. c gray65",
"e. c #A3A4A4",
"r. c #A7A7AA",
"t. c gray66",
"y. c #A8A8AB",
"u. c gray67",
"i. c gray68",
"p. c #ADACAD",
"a. c #AFAFAF",
"s. c #ACACAC",
"d. c #B1B1B1",
"f. c gray70",
"g. c #B3B2B2",
"h. c gray71",
"j. c #B7B7B7",
"k. c #B3B3B3",
"l. c #B8B7B7",
"z. c #B9B9B9",
"x. c #B8B8B8",
"c. c #BAB9B9",
"v. c gray73",
"b. c #BBBBBB",
"n. c #BBBABB",
"m. c #BCBBBB",
"M. c #BCBBBB",
"N. c #C0BFBF",
"B. c #C1C1C1",
"V. c #C5C5C5",
"C. c #C3C3C3",
"Z. c #C7C9C8",
"A. c #CCCCCC",
"S. c #D5D5D5",
"D. c #DCDCDC",
"F. c #E3E3E3",
"G. c #E7E8E8",
"H. c #EBEBEB",
"J. c #F3F3F3",
"K. c #FEFEFE",
/* pixels */
"G G F G G G G S S G T ( 1.y.=.! L J G Y ; >         o   .   .   . o .     .         4 G Y / 2.t.=.! L G T Y _ 7.r.*.! L S V V G ",
"G V N V S V S N N S L ! &.2.| R G Z S L > <     . . o o o o o o o . o . o o .       4 V L ! %.3.+.R G D L L ^ :.2.| R J N M M V ",
"C N N N N N N M N V L T ~ ' ! P Z V V J Y Y f d g g h h g h h h h h g h h h g d h d l V L T ~ ' W P G Z L J R ' ] ! P A N N N N ",
"A V N N N N N V S V G L P Y P G D V V J Y Y g g g f h h s h h h g h h h g h h d i h l Z G L P P L J A Z G J L T T P J A A N N V ",
"G V N C V V V S S F D G A G G A 8 8 ; n T R [ [ ' / ^ ^ ' ^ ' ^ ^ ^ ^ ' ~ ' ' ] _ ` Y i > - G G G G A G G G F G G J G G A V V C ",
"G V V V V V V S V S F F A G G G # * O x &.+.v.v.d.d.a.a.a.a.a.a.d.a.a.d.a.a.g.v.j.j.` g o o - G G G S S G G F D G G G A A V V C ",
"G A A J L J J G F S D F J G J l i i z U 2.w.v.b.h.h.f.f.f.f.f.f.g.g.f.f.f.f.h.m.z.z.1.K g h i v J J D F V V V V V V Z A A N N A ",
"G G P R ! R R P G V G L T R T c i i k Y 9.e.v.v.h.h.f.f.f.f.f.f.f.f.f.f.f.g.h.m.z.z.1.U g g s v T L F F V V V B V V A A A A C A ",
"A J R ] $.| _ R J N G R q q < h T T } 1.r.r.s.a.u.u.u.u.u.u.u.u.y.u.u.u.t.s.a.s.a.a.w.:.{ { U i < < J S V V V V S V V F S C V C ",
"C J W &.q.:.:.! J S L ! X X   g +.o.b.z.s.s.t.t.q.q.q.q.q.q.q.q.t.q.q.q.t.r.w.t.w.t.a.v.j.z./ t     # V M N V C D S F Z V Z V C ",
"G J R O.6.&.=.' Y P Y / . .   k 1.1.V.N.p.p.w.e.8.8.2.e.e.2.e.e.e.e.e.e.2.8.8.8.q.q.a.B.V.C.o.u     # S V B V S F S S D C C V C ",
"G G Y Q ' ` _ / ^ ! ^ / . .   k 1.1.Z.B.a.s.w.e.8.8.e.e.e.e.e.2.e.2.e.e.8.2.8.w.q.q.a.B.V.V.o.u     + S V S V S V F F C A C V V ",
"G A G L P E R / #.:.+.' # + o k =.=.M.b.s.a.r.8.e.e.2.e.7.7.2.7.e.e.2.2.8.7.2.w.q.q.a.M.M.M.{ u     - G S V G C G V Z D A V V C ",
"G C N V S P P ^ >.t.:.~ # # o u Q R 1.s.t.t.t.a.d.a.g.g.d.d.d.d.d.d.g.g.g.g.d.a.u.u.t.t.>.2.T w     - G V F G F D F Z G A V V C ",
"G N N M M L L Q +.>.#.E # #   i Q Q 2.t.t.t.p.a.g.g.g.g.g.d.g.g.d.d.g.g.g.g.g.a.u.u.t.q.6.:.T w     - F Z Z S G F Z A A A V V V ",
"G N M M V J J Q +.6.+.9 X o   = i i N Q 8.e.N.A.S.S.D.D.D.D.D.D.D.D.D.D.D.D.S.A.v.v.1.R M M e %     + q D G A S F V A A A C V C ",
"G Z N M N J G Y y + #               ; N =.&.V.F.J.J.K.K.K.K.K.J.K.K.K.K.K.K.J.D.B.B.| x & &           . * * f D Z Z V G D V N Z ",
"G V V V V G G L *               o . > x Q Q w.V.D.S.G.G.F.F.F.F.D.F.F.F.G.G.S.B.2.2.R j ; ;                 > Z V F F Z F V V V ",
"G V V A F D G F *                 . , x Q Q w.V.D.D.G.G.F.F.F.F.F.D.F.G.G.F.S.B.2.2.R k ; ; .               > G G Z S Z A V V V ",
"G A V A Z S S V .           O t V S L Z x x x Z P Y R R T Y Y T T T T R R R U V x x x G L L M w o .         * C D F Z D G A V C ",
"G V V A S Z V V +           = Y V.V.A.R 3 3     @ # & & & & & & & # & & & & O       6 ' S.A.M.G % O         : G D G Z Z G Z C C ",
"G V V V Z D S F e @ O       = ^ J.J.J.:.e e .   @ @ % @ O # @ @ @ % @ # % # O   . o h a.K.K.G.T O O     & & s G Z V F D A V V V ",
"G Z V Z F Z F V e % O       ; ' J.J.K.=.e e     @ # @ # @ @ O O % @ @ @ & @ O   o . h a.K.K.F.T % O     & & s A F V G G A C V C ",
"G C V V V D G I R L L 6     o T H.G.K.A.! ! J L Y T Y P L L J J J J L Y R Y Y L J J ` S.K.K.D.G       t Y U R G S F C A A C N C ",
"G V V A 7 3 3 P Z.A.A.J   .   G S.S.K.K.D.D.S.D.G.G.F.D.S.S.S.S.S.S.S.F.G.F.F.D.S.S.F.K.K.K.V.m     % R S.S.M.F G > q Z F C V C ",
"G V V C o     U H.K.K.2.u r 6 T S.S.K.K.K.K.K.J.H.H.H.J.K.K.K.K.K.K.K.J.H.G.H.J.K.K.K.K.K.K.A.L 3 3 k h.K.K.D.B B   + Z C V V V ",
"G V V A .     U H.K.K.2.r t 6 T S.S.K.K.K.K.K.J.H.H.H.J.K.K.K.K.K.K.K.J.H.H.H.K.K.K.K.K.K.K.A.J 3 3 h h.K.K.D.Z B   + D A C V C ",
"G V V V       K H.K.K.G.:.,.` l.H.G.K.K.K.K.K.B.@.@.+.Z.K.K.K.K.K.K.J.n.] ] #.A.K.K.K.K.K.K.F.a.` ` w.H.K.K.D.n n   . G A C V V ",
"G Z V A .     G D.K.K.K.J.H.G.H.J.J.K.K.K.K.D.Q 6 6 6 ! F.F.K.K.K.K.S.Y 3 4 t | G.G.K.K.K.J.J.H.H.H.J.K.K.K.A.n b   + A A A V V ",
"G C V V 7 < > J l.G.F.H.G.H.H.J.J.K.K.K.K.K.S.G       L D.D.K.K.K.K.A.M     . Y F.F.K.K.K.K.K.J.H.G.G.H.F.D.s.M M - p V A V V A ",
"G V V C 7 > 3 G l.F.F.H.G.G.H.J.K.J.K.K.K.K.S.G       L D.D.K.K.K.K.A.m     o Y F.F.K.K.K.K.K.H.H.H.G.H.D.F.a.M M ; p C A A V Z ",
"G C V A Z A A H Y R R R R Q +.V.J.K.K.K.K.K.S.N       G D.D.K.K.K.K.A.n       L F.D.K.K.K.K.J.M.` { R R R R Y G J G G A A C N C ",
"A V V C S S S V e % &   o O e _ G.G.K.K.K.K.S.D       L D.F.K.K.K.K.A.V     . Y G.F.K.K.K.K.D.Q 6 6 o . & & y R T Y L G S V V V ",
"G V V V V S V V #           o V h.h.H.K.K.K.D.! e e e ! S.S.K.K.K.K.A.Y 6 6 i +.H.H.K.K.F.G.t.x             > | | ^ Y J S N V V ",
"G Z C C S S S V $           . N h.h.G.K.K.K.F.! e e e E D.D.K.K.K.K.A.T 6 6 i +.H.H.K.K.F.G.t.x             < :.8.O.R J V N M V ",
"G C V Z S V S S X             3 N N ` S.K.K.K.S.:.=.+.a.A.S.D.F.S.D.A.t...| w.S.K.K.K.V.! ! m &           . $ :.8.O.Q J V M V V ",
"G V V C S V S M $               .   t | H.H.K.K.J.J.F.S.M.M.h.g.h.h.M.S.H.G.J.K.K.K.D.! 6 6                 , :.7.+.R J V V M S ",
"G C N V V V M V r ; 2 ; 4 3 ;       . V j.l.F.J.H.H.S.h.@.@.! Q ! ! &.m.D.D.H.J.F.D.a.x         3 ; 3 ; , 2 f { o./ Y J V N V V ",
"C V V N B V V V y ; ; 2 3 3 ;       . S l.l.F.J.G.H.S.v.| +.! ! ! ' *.v.D.D.H.H.D.F.a.x         3 ; 3 , , 2 f T R Y J G V V V V ",
"G V V V V V V H Q ^ ^ { ` ` T e       6 G G R ! ! ! R J m x h h k k m L Q Q ! ~ R R N ;       f R R | { ^ ! R D H G F D C V V V ",
"G V G J 4 ; ; G B.H.J.K.J.J.A.Y ; ;     & & & ; ; & ; & & O O O + O & & & ; ; ; & ; O       3 ! S.S.J.K.G.G.h.m M = 8 V G V N Z ",
"G G L T .     F D.K.K.K.K.K.J.' 3 3                                                         e :.K.K.K.K.K.K.A.b n   O Z D Z V Z ",
"G K T ` .     F D.K.K.K.K.K.J.( 3 4                                                         e :.K.K.K.K.K.K.Z.b n   + D A C V A ",
"D J W &.      F G.K.K.K.K.K.K.[ 6 3                                                         e 2.K.K.K.K.K.K.S.b z   . S A Z V C ",
"G J R o..     F D.K.K.K.K.K.H.^ 3 3                                                         e *.J.J.K.K.K.K.Z.n n   # D A C V V ",
"G G Y W q 4 3 J d.S.S.F.D.D.b.J = =     & ; 3 3 < 3 ; O               % ; ; 2 3 3 ; &       < T B.B.F.G.A.S.8.M M 3 p A A C N C ",
"G G Y ! q 4 4 J a.S.S.F.F.D.v.L = =     = ; ; 3 3 , ; O               % ; ; 3 3 3 3 &       3 Y B.B.D.F.S.S.8.m M < a A A A C C ",
"G A J L Y Q R ' Z F F J Y Y C 6       4 N N Y R Y Y N 6             . e G G T T L Y m ;       t J J Y K Z F V D D D A A A A N C ",
"G C N V D U U ^ <     o O @ O       o x _ | i.z.a.a.[ x o o         & m X.+.g.x.t.a.! i   o     @ O %   o   6 F V F D Z F V V V ",
"G Z N M B J J Q q X X           @ & 6 N ! ! =.1.-.-.! M 6 6 = & ; ; e S ' ' &.2.&.+.! m 4 4 O           X X a D F S F V V V V V ",
"A V N M V J G Y q X .           % % 6 M ^ ! =.1.&.#.! M 6 6 ; & ; ; 0 V ! ' =.2.#.#.Q n 6 3 O           X X a F S F C F G V V C ",
"G V V N G G G J P U L 1       3 n m G V l x h f h h x B J L L U P L J M k x h g h h x V G K x =       7 V F D V C G D Z G C V V ",
"G V V A A A F S D S F S + + o h { { o.V ; ;         = M o...d.z.a.a./ x & &         3 J &.#.^ d     - C G G Z F D G Z Z G Z C C ",
"G V V C G V S V B V V V + + o n 8.w.d.Y 6 6 O . % O 6 m ! ! #.1.+.+.Q x 3 3 O . + % t R f.h.&.g     - G G V D C Z V F D A V V V ",
"G V V C G V C V V B V V + + o n 8.8.d.Y 6 6 + . + @ 3 M ! ! #.1.#.+.R n 3 3 O o # # t Q h.f.&.k     - A G Z V F F V A G A C V C ",
"G Z V A G F D Z S V S V . .   k 8.8.M.1.Y Y G G J J F m g k g u d d h M G G J G G G R 8.N.N.#.u     + G F D F S S F G A C C N C ",
"G V V C Z D G V S V S A X X   h +.o.x.h.t.t.8.a.t.a.` m & &         ; V *.+.d.s.8.q.u.l.h.l.^ t     * Z Z D F Z G S G G G A V V ",
"G V V Z V F G Z S S V G X O   k o.| x.h.t.t.8.a.a.s.` v & &         ; N o.+.a.s.e.e.t.l.h.h.' t     * D F F V D G A V G S V V C ",
"G V Z Z F S D Z G G G G p p 6 l T T ( | | | @.&.#.#.! m 5 7 * + * * 9 V ^ ! &.+.@.@.| | ' ' Y h 5 5 f G V F F C D F V G A V V C ",
"G V N V D F Z G V G S A G A G A j h i i k h h h h h x C F F Z D D Z G G l x h h k k h i t i j D G V C G S S G C Z Z G S A C V V ",
"G V V A A G A A D G A A S G V G > >       o         > V A A G Z G G A A * *       o         5 A G Z V F A A A G A G A A A V V C ",
"G A C Z A A G G Z A A A G A F G > >         o       > G A A A G C A A A & =     o .         5 C F D F S A A A A G A A A C C V C ",
"A N N C A A C Z V Z Z C C C C V : ;     . . .       > Z C V C Z V A C V * *     o .         4 C V C V C A C Z A A A A N C C N C ",
"A C N N N V V V V V V V V V V V Z Z 2 3 6 w e 6 6 6 V V C V V V V V C Z Z V 6 6 e e 6 3 2 2 Z V V V V V A N C V V V C A N C N N "
};
