/* XPM */
static char *b59c2256355c410bc40eb6dcaab2492c6BoB8AYa0SMLBAdr[] = {
/* columns rows colors chars-per-pixel */
"64 64 156 2 ",
"   c #010101",
".  c #080506",
"X  c #020806",
"o  c #0E0609",
"O  c #060A09",
"+  c #0A0A0A",
"@  c #130B0E",
"#  c #0D100F",
"$  c #150E10",
"%  c #0F1311",
"&  c #141414",
"*  c #1A1315",
"=  c #1C1618",
"-  c #151918",
";  c #1B1B1B",
":  c #21171B",
">  c #221B1E",
",  c #241D20",
"<  c #2B1E23",
"1  c #242323",
"2  c #2B2326",
"3  c #2F272A",
"4  c #2C2C2C",
"5  c #302227",
"6  c #332429",
"7  c #332A2E",
"8  c #38282E",
"9  c #3E2F34",
"0  c #333434",
"q  c #383737",
"w  c #343837",
"e  c #363B39",
"r  c #3B3B3B",
"t  c #402D34",
"y  c #453339",
"u  c #4A363D",
"i  c #403E3F",
"p  c #3C403E",
"a  c #493C41",
"s  c #3E4241",
"d  c #434343",
"f  c #4A4446",
"g  c #434846",
"h  c #4C4648",
"j  c #4B4C4B",
"k  c #59474E",
"l  c #514B4E",
"z  c #5B494F",
"x  c #5E4D53",
"c  c #535454",
"v  c #595053",
"b  c #5A5956",
"n  c #5C5759",
"m  c #5E5E5C",
"M  c #644C55",
"N  c #615459",
"B  c #605F5E",
"V  c #5C605E",
"C  c #60605F",
"Z  c #5E5F61",
"A  c #665D61",
"S  c #5F6061",
"D  c #616161",
"F  c #686765",
"G  c #696967",
"H  c #676969",
"J  c #6B6C6B",
"K  c #71716F",
"L  c #6F7372",
"P  c #737373",
"I  c #737876",
"U  c #797977",
"Y  c #757978",
"T  c #7B7B7B",
"R  c #82827F",
"E  c #7F8180",
"W  c #848484",
"Q  c #898987",
"!  c #868A88",
"~  c #8B8C8E",
"^  c #8F8F8C",
"/  c #8C8D8F",
"(  c #8D8E8E",
")  c #8E8F8F",
"_  c #8B8C8B",
"`  c #908F8E",
"'  c #908F8F",
"]  c #8E908F",
"[  c #8D8E90",
"{  c #8F9090",
"}  c #8F9190",
"|  c gray57",
" . c #909190",
".. c #939391",
"X. c #959593",
"o. c #959594",
"O. c #949595",
"+. c #969897",
"@. c #989798",
"#. c #979898",
"$. c #999999",
"%. c #9B9B99",
"&. c #98989B",
"*. c #9B9B9B",
"=. c #9B9C9B",
"-. c #999A9C",
";. c #9A9B9D",
":. c #9D9D9D",
">. c #9E9D9C",
",. c #9C9E9D",
"<. c #9E9E9C",
"1. c #9D9F9E",
"2. c #9E9F9E",
"3. c gray62",
"4. c #9C9C9C",
"5. c #9FA09F",
"6. c gray63",
"7. c #A2A1A0",
"8. c #A2A2A0",
"9. c #A0A1A3",
"0. c #A3A3A6",
"q. c #A3A4A4",
"w. c #A7A7A7",
"e. c #A4A4A4",
"r. c #A7A7AA",
"t. c #A7A8A8",
"y. c gray66",
"u. c #A8A8AB",
"i. c gray67",
"p. c #ACACAC",
"a. c gray68",
"s. c #AAAAAA",
"d. c #AFB0AF",
"f. c #B0AFB0",
"g. c gray69",
"h. c #B1B1B1",
"j. c gray70",
"k. c gray71",
"l. c #B7B7B7",
"z. c #B3B3B3",
"x. c #B9B9B9",
"c. c gray73",
"v. c #BBBBBB",
"b. c #BBBABB",
"n. c #BCBBBB",
"m. c #BBBBBB",
"M. c #C0C0C0",
"N. c #C3C3C3",
"B. c #CCCCCC",
"V. c #D3D4D3",
"C. c #DBDBDB",
"Z. c #E3E4E4",
"A. c #E7E9E8",
"S. c #ECECEC",
"D. c #F4F4F4",
"F. c #FEFEFE",
/* pixels */
"F S D D S Z D Z Z S P / 9.u.;.W J F D Y [ 0.>         .                 .   .         2 P ~ 8.t.;.W H D P P [ 0.r.&.W J A m m S ",
"Z b b m m m Z b b Z J W =.8...U D C B J Q 2.>         . .   X           X X . X       2 J W %.7.X.T F D J J Q 2.7...T G b b b b ",
"C b b b m b b b b m J U Q _ W K D B m J T _ :       X + O O . O + O . . O X . X       2 G U W _ R P D m G J T _ ` W K C b b b b ",
"C m b b b b m b Z m D J K P J F C V m F x x f p p r d d d d d d d d d d d a s d p r d h M x K P J F C D F D K Y P P G C m m b m ",
"D m b B m m m m Z S D D C D D C S D 6 : d f U  . . .Q Q ~ Q ~ Q _ Q ! ~ Q ~ Q ~ O. .[ P i r = t D D D B D D D D F F D C C m m B ",
"D m m m m m m Z Z D S D C D D D Z A 6 : f d T {  . .~ Q ~ Q Q Q ! _ Q Q Q Q Q Q  . .[ P r i = 9 D D S D D D D Z D D D D V C b m ",
"D C D F J J G F D C A D F H F D M M % % j j *.x.x.v.h.h.f.h.a.h.f.f.a.j.j.a.j.j.v.v.l.{ d s O = F D D Z m m m m m m m C C C C C ",
"D D K T R T T J D m D J Y T U J f f q s L L 0.v.n.v.k.j.h.k.k.h.j.f.j.j.j.j.j.k.n.n.x.1.J H s r l k F m m m m m m m m C C C b C ",
"B G T ` ;.' ' T F b F T [ 9 9 , d d L / 2.=.t.a.p.p.p.p.p.u.p.p.i.i.i.i.s.p.s.p.a.a.p.w.5.5.] K i i , y m m b m m m m D D m m C ",
"A G R *.r.:.:.W J Z H W :.9 9 , d d K / =.2.t.p.d.p.i.p.i.p.p.p.i.i.i.i.p.s.p.a.a.a.p.w.5.5.] K i i , y n m m C Z Z Z D D m m m ",
"S G T X.6.*.:.Q P J Y _ *.      g g =.N.v.n.p.t.w.w.i.w.w.w.s.w.s.w.u.r.y.y.y.y.w.w.w.a.v.x.x.~ w w   $ m m m Z Z S D D C C m B ",
"D D P R _ / _ ~ ! W Q _ $       c c x.C.B.B.p.8.8.8.w.w.w.w.w.w.w.w.r.r.y.y.y.y.w.w.w.f.N.N.N.O.e e   o m m m Z Z D m D C C b B ",
"D C D J L T T ~ #.8 8         . J J B.D.C.C.d.5.8.8.r.w.w.w.s.s.w.s.s.w.w.u.y.y.w.w.w.a.n.n.n.{ e p   = m D Z D D V D V C B m m ",
"D V b m A K P ! 2.8 8         . J J V.D.V.C.p.7.8.8.w.u.w.w.w.w.w.w.w.w.y.w.y.w.w.w.w.f.n.n.n. .p e   : D D D m A D D A C B m B ",
"D m b c b H J E o.2 2 X   X . 0 / _ Z.F.Z.A.n.u.w.w.w.w.w.w.u.u.s.w.s.w.s.w.y.s.s.y.s.s.p.u.2.U 0 0   = D m C S V D C D C C m B ",
"D b b b n H H E A K J I P U U / N.N.D.F.D.D.C.B.x.x.p.w.p.p.h.j.j.j.j.j.j.j.j.j.x.x.l.e.Q Q D d - -   @ 9 9 D D C S C C C C b m ",
"D m b b b H F P A K K I P Y U [ N.N.D.F.D.D.C.B.k.x.a.w.u.p.h.h.g.g.g.g.j.j.g.j.x.x.l.9.Q Q D d - -   @ 9 9 D B D D S V D V B B ",
"D m m m m D S = D M.v.S.S.Z.Z.A.D.D.F.F.F.F.D.A.B.B.p.w.u.u.h.h.k.k.k.f.g.g.j.k.M.n.x.&.b m 1 +         .   * a V A A D D m m m ",
"D m m m D Z S & F N.N.D.F.S.D.S.S.S.S.D.D.D.F.S.B.V.h.1.%.*.o.X.O.O.+.&.#.#.+.&.1.9.1.T r e                   , S D S V C B m B ",
"D m m B A Z m x D T T ! ! ~ ~ o.i.p.N.V.Z.C.Z.C.B.B.h.X.K J c d j j c b n b c m m Z m g > >                   > S C C D C B b B ",
"C m m B V V C z A T U ! ! _ / o.p.p.N.V.C.C.Z.C.B.B.p.X.J L c d j j c b b b b n m m n h ; ;                   : D V V A C B m m ",
"D m m B S S D B V 7 4 % # = - 0 F F ;.l.N.M.M.M.v.v.d./ l l &   X . & - ; & & & ; - - & O .                   3 D D D D C B m B ",
"D C m V S D D Z S 5 5         . j j o.j.u.u.o.o.u.s.l.1.F S 1 .                                               2 A V D C C B m B ",
"D m m m D B D C S V A B @       b m h.B.X.O.m n [ { N.B.a.a.E m 4 4                                           : D S C C C C b m ",
"D m m C A V S D V D B D @     X m m g.N.O.O.m m [ [ N.B.p.p.W b 4 2                                           > V D D V D m m m ",
"D B B V D C S C D D C Z m . . + L L C.Z.W W 1 1 P P V.F.F.F.Z.k.S F &                                         > B D C S A V m B ",
"C m b C D Z D C Z D D D Z @ @ % T T A.A.U U .   F J C.F.F.F.F.Z.Y U -       & 1 1 1 > = + +                 @ u D V S D C C m B ",
"D m B C D D m D C D D m A @ @ % E T A.A.P P     S S C.F.F.F.F.C.H H .   4 4 J Q ~ { E F q q +         . 8 7 D Z D A S C C B m m ",
"D C C C C C D Z D B m Z m @ @ % T E A.A.P L     D D C.F.F.F.F.Z.J J     4 4 L Q  .{ Q H q q +         . 7 7 Z m m m B C C B m V ",
"D m b m C C D D S D Z m b @ @ % T Y A.A.Y Y .   D F C.F.F.F.F.V.m Z     F D B.S.D.D.Z.l.m D +         = A m m m m m m C C m b B ",
"D V B B C D D m D D m D m o o # Y Y Z.S.O.' 0 4 W T C.F.F.F.F.V.P Y 4 q  .O.D.F.F.F.F.C.L J &       $ a Z Z Z m m m C C C C C C ",
"D m m C D C C D m D D D F     X L L A.F.V.V.' ~ k.k.S.F.F.F.F.Z.p.f.W ' B.B.F.F.F.F.F.Z.H J     5 5 S A D D D D H D D C C C b B ",
"D m B V S Z Z Z Z Z F K U     X L L A.F.V.V.{ _ k.k.S.F.F.F.F.Z.f.p.Q / B.B.F.F.F.F.F.Z.J H X   5 6 A Z H F K Y U P J A Z m n D ",
"D m m m S S b Z m A H E `     X J H Z.F.F.F.A.Z.S.S.D.F.F.F.D.D.A.A.C.Z.D.D.F.F.F.F.F.V.V V   . Q Y H D J H E [ | Q Y A Z b m m ",
"D B m V S Z Z b m Z K Q :.5 5 2 H H l.Z.D.D.F.F.F.F.F.D.D.F.F.F.F.F.F.F.D.S.C.V.C.C.C.a.m m ; 2 *.T F Z K K Q 9.0.@.T H m m b m ",
"D m m m S m Z m m m K Q >.0.&.T N n V I q.0.V.D.F.F.F.F.F.F.F.F.F.F.F.F.M.M.W J H H H F S V b m &.T H Z K K ~ 6.0.O.E F n b b m ",
"D m B C m m Z b m Z K ! :.0.&.T N n V U q.q.V.D.F.F.F.F.F.F.F.F.F.F.F.F.N.M.W H F F H F Z Z b n @.T H V P J _ 8.0.O.T H m b b Z ",
"D m b m m m m n n Z H T _ ' Q P F S = - c c 9.B.S.S.F.F.F.F.F.F.F.F.F.Z.Q W 4 .     + 4 S F O.Q g f = 8 J J T ' O.Q Y F m m b m ",
"C m b m m m b m Z A H J P Y P H D D , $ w r P +.k.k.B.C.C.V.V.V.Z.C.C.a.c l           0 T Y d.o.p p   @ G F P Y Y P J F m m m m ",
"C m m m m m Z m Z D D D D D D Z D m D D a a e s c c J P U P P P P P H h & &     = & g P 1.1.j.X.e e   @ D D D F F F D D D m m m ",
"D B C F J G G D D D D D H F F A D D S m a a e s c c J P Y U P P P P J j & &     & & f P 5.=.j. .e e   $ Z m m m n Z Z D D m m V ",
"D D J T R T U P D n D J Y T P K F m S Z m b =       & - - = & & & + +         + c c  .d.c.v.h.Q e e   = n m m n m m m m A V m C ",
"D H U _ &.[ { U F n F Y _ O._ Y J m m n m m 7 .                   . & ; ; ; , q F F  .w.j.j.p.! r e X = b Z b Z m n S S C C b C ",
"A H R =.w.2.2.W H Z H W 3.r.:.W H Z Z b m V A Z < <           . r r J Q / / ~ E D F b D / _ u._ p r X ; b b m Z Z Z S D C C m C ",
"D G T X.8.:.*.Q P J P Q =.8.o.W J m Z b m Z Z m < <           . r r J Q / ` Q E H F c D [ [ u._ r r   > m m m m C S D C C C m m ",
"D D P W / ` / ~ Q W W ~ { / W P F Z Z m m Z S S D C &         1 U P B.D.F.F.D.N.D S & > F H 9.{ s s X = m m m Z D D B D C m b B ",
"D D P W ` / ` _ Q W Q _ { / W P H m Z m m m S C C D *         1 [ / D.F.F.F.F.C.F D X . n b 0.O.s s   = m m m m Z C C D C C B B ",
"D C F J P R T _ o.*.o./ T P J H S A D m S C S D Z D @         ; ' [ F.F.F.F.F.Z.H H . O Z Z p.-.p r   $ Z m S D B D C C C C b B ",
"D m b m S K K ~ 9.w.2.! K A m m Z D C D A S S V D D @         ; / / F.F.F.F.F.Z.G H . . S S a.+.p e   $ V D A D D C D S C m m m ",
"D C b c m H H T o.9.o.W H n c b m C D V D V A D D C $         ; Q Q S.F.F.F.F.C.F H + & D D s.O.s p   & D C S V V D B D A V m m ",
"C m b b m D F P Q ~ W P Z m m m S D V A D Z C V D D 4 & + + & q U T l.V.Z.C.V.r.c j + + j g E T h h , u D S S S D V D S C m m B ",
"D m n m m F D H J P J J S m m Z m D S D C D D k x v B D D D m D m Z m m F F D j 1 1 X   - - 0 f N N m Z C S C V A S D C C C m m ",
"D V m V C C S S D Z D S Z S S D D S C D D D m k v v C D D D Z S A m m Z D F D j 1 1 .   - - 0 f N n V S D V D A C S A D C V B B ",
"D m m B C B A m m m m m Z S D S V S D V Z D : & j g _ t.d.d.w.Q j c &       + O X .           1 V A S A D D C Z S S V C C B b m ",
"D m m C C B Z m m m m m m C m D A S D C C D     g g 1.N.B.V.N.5.m m 1 O + + & %   X         $ u D D Z C D D m D C D C C B B B B ",
"D B m C D C D m Z m B Z D Z D D D D m D C Z     s g 0.B.V.B.N.d./ ~ J m F D F j ; -     6 6 V D S C C D B D D D V D C C C B m B ",
"D m m C C S D m m m A S V S C D S C D A S V     g g 6.B.V.B.N.a./ _ J m D F F j ; ;     5 5 S V D D S V D S D C D A D S C V B m ",
"D m m m D D D C Z Z m D S D D V D C V D D D .   g d &.x.v.v.j.p.w.u.0.w.f.f.i.W w w   @ D D A D C V D S m D B Z D V V S D m m B ",
"D V m C Z C D S S D B C S V D B S S B D V B y 7 l l Y _ Q ~ W Q _ _ ` ..#.#.o.T j j 3 A D D S V D A C A D D D D S D D A C B m B ",
"D B m m C D V A D Z D S D S A D V A D D D D y 2 l l Y ~ Q ! Q ! _ _ ` ..#.;.+.T j h 3 D D D C D S V D C Z D B D D V B D C C b m ",
"D B m C C C C D C C C C C D D m C C C C D C C C N N d r w r r r d d d d d d d j C C C B C D C C S S C D C C C C C D C C C B m B ",
"D m m m C C C C D C C C S C D D C C C C A C C C D D =         . . . +         < C C C D D C C C C D D V C C C C D C C C C B m B ",
"C b b C C V B C B m C V B B m V V B m C V m C B m C :       . + X + . X       2 C V C C m m C B V B B m C B C C C C B b B B b B ",
"C C b b m m m m m m m m m m m B B m m V m m V m m B ;       . . O . . X       2 m m m m m m C b B B m m V C b m m m B B b B b b "
};
