/* XPM */
static char *b20779acdc29425292be27f1eaf0d71aKyjUyhhNxx1xcuck[] = {
/* columns rows colors chars-per-pixel */
"64 64 156 2 ",
"   c #000000",
".  c #0B0406",
"X  c #050807",
"o  c #0C0708",
"O  c #070909",
"+  c #0B0B0B",
"@  c #120B0E",
"#  c #150E11",
"$  c #0F1010",
"%  c #141414",
"&  c #1B1215",
"*  c #1E1518",
"=  c #161918",
"-  c #1A1B1B",
";  c #24171C",
":  c #241B1E",
">  c #1A201E",
",  c #261D20",
"<  c #212222",
"1  c #2A2225",
"2  c #2F272A",
"3  c #2B2B2B",
"4  c #31262A",
"5  c #342A2E",
"6  c #2D302F",
"7  c #342E30",
"8  c #3A2E33",
"9  c #2E3331",
"0  c #343434",
"q  c #383134",
"w  c #343937",
"e  c #353938",
"r  c #3A3C3B",
"t  c #432F36",
"y  c #45343B",
"u  c #48333B",
"i  c #493A3F",
"p  c #3E403F",
"a  c #453E40",
"s  c #4A3A40",
"d  c #503C43",
"f  c #434545",
"g  c #4A4447",
"h  c #444847",
"j  c #4D4649",
"k  c #464C4A",
"l  c #4C4D4D",
"z  c #59454C",
"x  c #4D504E",
"c  c #564E51",
"v  c #4F5452",
"b  c #545454",
"n  c #585455",
"m  c #5A5956",
"M  c #5B5658",
"N  c #575A59",
"B  c #5E5E5C",
"V  c #605F5E",
"C  c #5B605E",
"Z  c #60605F",
"A  c #5E5F61",
"S  c #5F6262",
"D  c #616161",
"F  c #686765",
"G  c #646867",
"H  c #696967",
"J  c #676A69",
"K  c #6B6B6A",
"L  c #6C706F",
"P  c #71716F",
"I  c #6F7170",
"U  c #737373",
"Y  c #797977",
"T  c #7B7B7B",
"R  c #7F807F",
"E  c #82827F",
"W  c #7F8080",
"Q  c #838383",
"!  c #878887",
"~  c #888886",
"^  c #8B8C8E",
"/  c #8C8C8C",
"(  c #8F8F8C",
")  c #8C8D8F",
"_  c #8E8E8E",
"`  c #8C8C8C",
"'  c #908F8E",
"]  c gray57",
"[  c #939391",
"{  c #959593",
"}  c #959594",
"|  c #969797",
" . c #949494",
".. c gray60",
"X. c #9B9B99",
"o. c #98989B",
"O. c #9B9B9B",
"+. c #9A9B9D",
"@. c #999A9C",
"#. c #9D9D9D",
"$. c #9E9D9C",
"%. c #9C9C9C",
"&. c #9EA09F",
"*. c #9FA0A0",
"=. c #9FA0A0",
"-. c gray63",
";. c #A2A1A0",
":. c #A2A2A0",
">. c #A0A1A3",
",. c #A1A2A2",
"<. c gray64",
"1. c #A3A3A6",
"2. c #A4A4A4",
"3. c #A5A6A5",
"4. c #A7A7A7",
"5. c #A4A4A4",
"6. c #A8A7A7",
"7. c #A7A7AA",
"8. c gray66",
"9. c #A9A9A9",
"0. c #A9A8A8",
"q. c #A8A8AB",
"w. c #AAAAAA",
"e. c #ADACAC",
"r. c #ADAEAE",
"t. c #AFAFAF",
"y. c #AEAEAE",
"u. c #ABABAB",
"i. c gray69",
"p. c #B1B1B1",
"a. c gray70",
"s. c #B4B4B4",
"d. c gray71",
"f. c #B6B6B6",
"g. c #B7B7B7",
"h. c #B3B3B3",
"j. c #BBBBBB",
"k. c gray74",
"l. c #BEBDBE",
"z. c gray",
"x. c gray75",
"c. c #BCBCBC",
"v. c #C3C3C3",
"b. c #C4C4C4",
"n. c #C8C7C7",
"m. c gray81",
"M. c #CBCCCB",
"N. c #D2D2D2",
"B. c #D7D8D7",
"V. c #D7D9D8",
"C. c #DBDBDB",
"Z. c #E3E3E3",
"A. c #EBEBEB",
"S. c #F3F3F3",
"D. c #F8F7F7",
"F. c #FDFDFD",
/* pixels */
"G A A D D D D S A D U / ,.q.X.W K G X X O % % - - % - - = = & = & = - - % % O O O 1 3 D U / -.7.+.Q K D U U ) 7.7.o.Q H D B B S ",
"B B m B B B B M M C P ~ X.:. .T D -                                               : : C K ! X.:.{ T H A K P ! $.:.] T F B n m B ",
"Z m m m B m m M M V F Y ~ / Q P D 5 = - = - < - > < - < < < < < < - < - < > = = - q q B H Y ~ ` E P D V F F T / ' Q P D m n m m ",
"Z B m m N N M M C C D K P U K G D 7 = - = < < < < , < < : > < , < < < < < - = = - q q B D K P P P H Z V H D P U Y P F D C B m B ",
"Z V B B B B B B C D D D Z y y j j D H H J H H H G H H H H J H H H H J H H H H K J V B g i u D D V A V D D D D G F D Z Z Z B B V ",
"Z V B B B B B B Z Z D D & . O f f ) r.r.r.3.<.<.<.<.<.<.,.1.<.<.1.,.1.1.<.3.t.t.q.Q Q r X   : S D Z D A D D D G G D Z Z Z V B B ",
"D Z Z F F H H G D Z S D < < < C C *.z.z.z.s.f.d.s.s.s.s.s.s.s.s.s.s.s.s.a.g.x.x.j.| | v - > < H G D D A V B B M B B B Z Z Z B Z ",
"D D P T Q T T U D B D L > 3 < C C #.z.z.z.f.f.d.s.s.s.s.s.s.s.s.s.s.s.s.a.g.x.x.j.| | v > > 1 T Y P G V B B B M M B B Z Z Z m V ",
"Z F T ' X.] ' T G s h g M L L ` ` 4.s.d.s.r.p.r.t.r.r.r.t.t.r.r.r.t.t.t.r.p.s.f.d.:.<.Q S G v a a s s A M B B B B B B D D B B Z ",
"A H E O.7.#.+.& & + h p ) r.r.p.t.0.4.q.0.0.4.9.9.9.9.9.0.0.q.0.7.6.0.q.q.4.0.0.0.q.u.r.q.q.W e e . X , B B M B D D Z D D B B B ",
"D F T } -.O.+.. .   f h #.v.v.z.z.e.4.4.4.4.9.4.0.0.0.4.0.0.0.4.4.0.0.0.0.4.<.3.3.p.r.M.m.m.=.p r       y y B S S A Z Z Z B B V ",
"D D U E / ) '       h f #.v.v.z.z.e.4.4.4.0.4.9.4.0.q.4.0.4.4.0.0.4.0.0.4.4.3.<.<.t.p.n.m.m.=.r p       u y B Z D D D A Z V B V ",
"D Z D K U T T @ o   k k *.b.b.z.z.e.4.4.4.4.0.0.9.4.9.4.0.0.0.q.4.q.4.0.4.4.&.:.:.p.p.V.A.A.j.l x           1 Z D A D V Z Z B V ",
"D Z m B S I I # # X f f ] h.s.s.d.u.0.0.0.0.0.0.4.9.4.9.0.6.0.4.4.0.0.0.4.4.<.<.<.j.j.Z.F.F.m.H J + +         4 4 V S D Z B B B ",
"D B m n M K d + @ X 6 6 H ! ! #.X.0.p.t.r.r.y.e.r.e.r.r.t.r.t.r.e.e.q.4.4.u.r.t.j.m.m.S.F.F.Z.X.@.b n w 9 9 e j j C Z Z V V B V ",
"D N m m M K d @ +   6 9 H ! ! #.&.9.t.p.p.r.r.r.e.r.r.r.r.t.r.t.u.e.9.4.4.u.t.p.j.m.N.S.F.F.Z.#.@.n n w 9 9 e j j D Z Z Z B B V ",
"D B m m 8 8 & X .   + $ 1 h h Y Y 3.c.c.c.g.g.a.h.h.s.s.s.f.s.s.t.a.u.7.3.p.n.b.C.A.S.F.F.F.D.V.V.z.z.f.c.j.f. . .M 8 8 B B B V ",
"D B B :                   % = n n } a.a.a.u.u.u.q.q.u.u.u.u.q.q.6.7.<.<.<.g.N.B.S.F.F.D.D.D.D.D.D.D.D.F.F.F.F.x.v.v X X D B B B ",
"D B B #                     X 0 0 K Q W W T T T T T T Y Y I I I Y Y / +.#.s.N.N.A.S.S.A.Z.Z.V.N.N.n.n.n.M.M.b.+.#.n 3 2 Z V B V ",
"D B B #                       0 0 K Q Q Q T T T T T T Y Y U I U Y Y ! #.#.s.N.N.A.S.S.A.Z.Z.V.N.N.n.M.n.M.m.b.X.#.n 2 2 Z B B V ",
"Z V C &                       % & 3 r r e 0 0 0 0 r 0 7 9 1 - - 0 0 D | } p.b.b.m.N.N.m.v.x.7.Q W B V l h h h b b Z Z D Z Z B V ",
"D V C :                                                         - - B o.o.a.a.p.q.r.r.p.t.t.! g k + +         4 4 A D Z Z B B B ",
"D B B :                           X                             - & B o.X.a.p.p.e.t.r.a.t.t.! h h O +         2 4 V D A Z Z B V ",
"D B B &                                                   % 9 3 n b / f.g.j.X.X.U T T <.c.k.| f f           ; D V A Z Z Z V m V ",
"D B B #               .                               % % n  . .c.z.C.Z.A.b.U U e g f X.V.V.c.b n       D Z D V D D D Z D Z B V ",
"D Z C :                                               < < Q Z.C.F.F.F.F.F.m.B B O - : ] S.S.B.G G O O & A D A D Z A A D A B B B ",
"Z C B :                                               < < ! Z.Z.F.F.F.F.F.M.B M O < < ] S.S.N.J G O O & Z D A D D D D D Z V B V ",
"Z B B Z 5 5 #             O O < 1 r b l b c x r + +   - & ! A.S.F.F.F.F.F.M.c v   + + ! S.S.C.J J O O * D Z D S D V B D Z B B V ",
"Z Z B C Z Z i X X         % % n N X.z.z.n.z.z.} r r   O O U Z.Z.F.F.F.F.F.n.v l   O O ! A.S.C.J J O O & Z V B S B B Z Z Z V B C ",
"Z V B Z Z Z A : :         - - T T C.F.F.F.F.F.B.H H + = & U C.Z.F.F.F.F.F.m.B B O < , ] S.S.B.G G O O & V A B M M B B Z Z B V V ",
"D B V B Z D Z : - .       - - T T V.F.F.F.F.F.B.H H + % = U C.C.F.F.F.F.F.M.B B O < < ] A.S.V.J J O O & A A B B B B Z Z Z B B V ",
"D V B Z Z Z D V A 8 . .   % % Q W S.F.F.F.F.F.D.1.,.M M N @.A.Z.F.F.F.F.F.C.) ) n H H z.F.F.V.S S     @ D D D D G G Z Z Z B B V ",
"Z B B V S B B A B S t y X O + Y Y A.F.F.F.F.F.F.C.C.j.s.j.N.S.S.F.F.F.F.F.A.N.m.j.b.n.D.F.F.V.N N     O F G I Y T U K D A V V V ",
"D B V V S A A B B S K T + $ $ K L B.F.F.F.D.D.D.D.D.D.F.D.D.D.D.D.D.D.D.D.D.D.D.F.F.F.F.F.F.v.N N + O * K K W ) ] ! U F A M B M ",
"D Z B C A V A B M S I ^ + % % L L B.F.F.F.D.D.S.D.F.F.D.F.D.D.D.D.D.D.D.D.D.D.F.D.F.F.F.F.F.b.N N O O ; P P ^ =.1. .W F B M M B ",
"D B B V A B S M M D I ! y r r G D ] 6.7.3.3.3.f.Z.Z.F.F.F.F.F.F.F.F.F.F.F.F.F.F.D.A.A.M.e.e.! B M s i V P P ! =.1. .W F B n B V ",
"D B B Z A B B N B y b b U Y Y M B p 0 0 3 0 0 D t.t.F.F.F.F.F.F.F.F.F.F.F.F.S.D.C.a.p.L r r q 6.| R H A I I ^ =.3.| R H B M N C ",
"D B m B A B B @ # X l l X.,.=.D S %           - T T C.F.F.F.D.S.S.D.D.D.D.A.N.B.a.W W 0     , ] ~ U H D K K E ' } ! U F B M B C ",
"Z B B m M B M # # X x x #.,.,.C D %           - T R V.F.F.F.D.S.D.S.D.D.D.A.N.N.p.W W 0   X , U U H D A H H I Y T U K D V B B V ",
"D B B B B B A       k k $.p.p.Q Q f - -         i r ~ q.4.u.q.3.q.q.u.q.q.#.W Q J v c q 5 4 d D A D D D A D D F H D D Z Z V m V ",
"D V D F K F H + o   h h  .s.s.r.e.] K K 3           1 0 0 r p a f f f p f 0 < < = 3 3 B D D F F G D D S B A B A B B B D D B B Z ",
"D D K Y E T T # @ X h f _ s.s.j.z.s.} } M = =                                     1 1 M D K U T Y K G A B B N M M B B A D B V C ",
"D H Y ' o.' ' # & X f f _ s.s.z.k.s.} } N = =                                     1 1 M D T / } / T J A M B N B A B A V Z B B V ",
"A K E O.6.=.$.# @ O h h  .e.u.&.#.Q U U G M M b x c k 0 0 %                 @ @ 4 ! H S H Q #.6.+.Q K A B N B A A A D D Z Z B V ",
"V F R | -.+.+.# # O l k | ;.;.P K r e e P e.q.b.m.m.z.X.o.x + +           # ,.X.! ! U K U ~ #.1.o.E K V M B B B A D Z Z Z C V V ",
"D F P Q ) ' ' # @ O x x ..$.+.x x   # % U C.Z.F.F.F.F.V.C.Y = =           : ) ' / / ~ Q Q / ' _ Q Y J V B B A A Z Z D V Z V B V ",
"A F U Q ' ' ' # & O x x ..+.+.x x . % % U C.C.F.F.F.F.C.V.Y = &           : ) ] / / Q Q ~ ` _ _ ~ U D A B B B B D A Z Z Z V m V ",
"D V D K U R R o o   x l $.<.,.l l   + + T S.S.F.F.F.F.A.A.W % %           : U T ! / | +.| ` T U K K D A A B D Z D Z Z Z Z V B V ",
"D B m B D I I   .   l l 1.q.q.b b . % + T S.S.F.F.F.F.A.A.Y + #           * B U ~ ~ +.7.=.~ I D V B A D D B D A D Z V A D V B B ",
"D B m n B H H * * $ x x  .} } l l O % % K N.N.F.F.F.F.m.m.U - -           1 M F E R | -.| Q H M n M B D D V D D A D S D D B B V ",
"D B m n B D G * * + x v | | } l k O % % K N.N.F.F.F.F.m.m.U - -           1 M G U U Q / Q U G B M B A A D D D V Z A D V Z V B V ",
"D B B N A D D H I U c c D b b 3 3 . + + g Q Q =.3.<.#.! ~ H k g r 0 0 r e g Z D K K I U I K D B B B B D A V S D D Z Z D V V B B ",
"D B B Z Z Z D V D D D A 3 $ O         X % 3 1 3 3 1 1 e e M T T ! ! ) ! ! U h h 4 A A D D D D A S A D V D D A D Z A V D Z Z B B ",
"D B B Z D B A B B M B B :                             = = B #.$.j.j.v.j.f.) r r   # # B M B S S S D D A Z A V S D D D Z Z B B V ",
"D V V B Z B D A B B B B ;                             - - B +.+.j.z.v.s.f.) r e   @ # B B A V D V D V V D A Z D A Z Z Z Z B B V ",
"D C B Z D Z D B A A Z C D 5 5 # @       % 3 6 e 0 6 5 k k T p.p.n.n.N.n.n.| w w   .   B B V D Z A D D S Z D D V Z D Z Z Z V B B ",
"D B B Z A D D B B B V A D A Z y y       0 Y Y ] ' ' ` ' ' <.s.a.z.z.n.v.v. .e e   . . B C A A D A D D D V D V S D A A Z D Z B V ",
"D B B B Z D D Z S S D V Z D A V C * # $ k ] ] r.p.t.7.<.3.<.,.,.,.,.u.0.4.Q p p @ , ; Z Z D Z D Z D V A D D A Z D Z D Z V B B B ",
"D C B V D V D A A Z A D V S D Z D ; # % l ] ] r.t.t.7.6.<.<.<.<.,.<.q.0.3.! p p + : : D D D Z Z D Z S V D A Z D Z Z D D Z V B V ",
"D V B B S D Z D A D Z D A D V D C C z z M H K U I I I K K H D G D D D D D V c c Z A D D A Z D A V S D V D Z Z Z A D A Z Z B B V ",
"D B V B Z Z Z Z Z Z Z Z D D D A Z Z Z Z S 5 5 = - = - < < - - - = - % % % q C D Z Z Z V D Z Z Z A V D A Z Z Z V Z Z Z Z V V B V ",
"D V B Z Z Z Z Z A Z Z Z D V D Z Z Z Z Z S & %                             : V D Z Z Z D C Z Z Z D D D Z Z Z Z Z Z Z Z Z Z B B B ",
"Z V B B V B C Z B Z V Z Z V B B V C V Z B & &                             : B Z Z C V Z V V Z Z B Z B Z B Z C Z B Z Z B V V B B ",
"Z m m B V B V B B B B B V C B B B V B C C 1 3 $ + $ % % % - % % % % $ $ $ 5 B B B B B B B B B B B B B B V B V B B B V V m V m m "
};
