/* XPM */
static char *b0d6dfb3ffb248d2e710e10d7028028d7PZ4nJuxyoucMr7V[] = {
/* columns rows colors chars-per-pixel */
"64 64 162 2 ",
"   c #010101",
".  c #0C0507",
"X  c #060807",
"o  c #0D0609",
"O  c #060A09",
"+  c #0B0C0C",
"@  c #130C0E",
"#  c #0E100F",
"$  c #160F11",
"%  c #190F13",
"&  c #0F1211",
"*  c #131414",
"=  c #1C1216",
"-  c #161917",
";  c #1D1618",
":  c #171A19",
">  c #1C1D1D",
",  c #21161B",
"<  c #24191D",
"1  c #1E201F",
"2  c #261D20",
"3  c #2A1E22",
"4  c #222222",
"5  c #2D2327",
"6  c #242927",
"7  c #2B2B2B",
"8  c #31262A",
"9  c #312C2E",
"0  c #39282E",
"q  c #352F31",
"w  c #3B2D32",
"e  c #343534",
"r  c #3A3235",
"t  c #353A38",
"y  c #3C3D3C",
"u  c #413237",
"i  c #46363D",
"p  c #48353C",
"a  c #443B3E",
"s  c #4B3B40",
"d  c #3E4341",
"f  c #434444",
"g  c #4A4346",
"h  c #434846",
"j  c #4C4C4C",
"k  c #514147",
"l  c #50474A",
"z  c #4B504E",
"x  c #564D50",
"c  c #4E5251",
"v  c #535353",
"b  c #585254",
"n  c #555857",
"m  c #5A5956",
"M  c #5D5659",
"N  c #565D5B",
"B  c #5E5E5C",
"V  c #615D5E",
"C  c #5C605F",
"Z  c #60605F",
"A  c #5E5F61",
"S  c #655F61",
"D  c #685D61",
"F  c #5F6061",
"G  c #616161",
"H  c #696465",
"J  c #656967",
"K  c #696967",
"L  c #6E676A",
"P  c #676968",
"I  c #6B6B6B",
"U  c #6B706E",
"Y  c #71716F",
"T  c #746F70",
"R  c #6F7371",
"E  c #737373",
"W  c #777877",
"Q  c #797977",
"!  c #7B7B7A",
"~  c #82827F",
"^  c #7F8080",
"/  c #848484",
"(  c #888886",
")  c #8A8C8B",
"_  c #8C8C89",
"`  c #8C8C8A",
"'  c #8A8A8D",
"]  c #8B8C8E",
"[  c #8D8D8D",
"{  c #8C8E8D",
"}  c #8F8F8C",
"|  c #8C8D8F",
" . c gray56",
".. c #8C8C8C",
"X. c #908F8E",
"o. c #928F90",
"O. c gray57",
"+. c #939391",
"@. c #959593",
"#. c #959594",
"$. c #949494",
"%. c #969897",
"&. c #979998",
"*. c #979998",
"=. c gray60",
"-. c #9B9B99",
";. c #98989B",
":. c #9B9B9B",
">. c #9A9B9D",
",. c #999A9C",
"<. c #9D9D9D",
"1. c #9E9D9C",
"2. c #9B9C9B",
"3. c #A19FA0",
"4. c #9FA0A0",
"5. c gray63",
"6. c #A2A2A0",
"7. c #A0A1A3",
"8. c gray64",
"9. c #A2A1A0",
"0. c #A3A3A6",
"q. c #A5A6A5",
"w. c #A7A7A7",
"e. c #A4A4A4",
"r. c #A4A4A4",
"t. c #A7A7AA",
"y. c gray66",
"u. c #A9A9A9",
"i. c #A8A8AB",
"p. c #AAAAAA",
"a. c gray67",
"s. c #ACACAC",
"d. c gray68",
"f. c #ADAEAE",
"g. c #AEAEAE",
"h. c #AFAFAF",
"j. c #AAAAAA",
"k. c #B1B1B1",
"l. c gray69",
"z. c gray70",
"x. c #B4B4B4",
"c. c gray71",
"v. c #B7B7B7",
"b. c #B6B6B6",
"n. c #B3B3B3",
"m. c #BBBBBB",
"M. c gray74",
"N. c #BDBCBC",
"B. c gray",
"V. c gray75",
"C. c #BCBCBC",
"Z. c #BFC0C0",
"A. c #C3C3C3",
"S. c #CCCCCC",
"D. c #D3D3D3",
"F. c #DCDCDC",
"G. c #E4E5E4",
"H. c #E7E8E8",
"J. c gray93",
"K. c #EEF0EF",
"L. c #F2F3F2",
"P. c #FEFEFE",
/* pixels */
"J G F G G G G A A F E ..5.i.-.^ I P G W 7 + # # - - - * & + & + # & & * * * : + & e B G E ' 3.t.,./ I J W E ' 0.t.;./ I A m B G ",
"B M m B C B B B B A Y ( -.5.#.! G Z V U ;                                         2 m B I / -.9.@.! P M I T _ -.5.O.! K M m m B ",
"Z m m m N M m m n B K Q ( _ / Y Z V V H 9 : : : 1 > < 1 2 1 2 1 1 1 4 1 4 1 > : > r m B I W ( _ ~ E G B K K ! _ X./ Y G m m m m ",
"Z B m m m m m M M C G I Y Y I P Z C B P 9 : : : 1 4 1 4 1 1 1 4 2 1 1 2 2 > > : : r r C G I T E U H Z C G P I W W Y K Z Z m m C ",
"G C B B B B B A V C G G G G G V V i i l G P P P P P H P P P P H P P K J J P P I P V B l p G G G G Z G V G G G P P G G G Z B B B ",
"Z B m V B B B B A G Z G G G G G * O O f | s.f.s.e.8.8.e.e.5.e.5.5.r.5.8.5.r.r.f.i./ / t   < < G G G G C G G G G G G G Z Z V m Z ",
"G Z Z K I K I P G Z A G P P P G 1 6 4 C 4.M.M.B.x.x.x.x.x.x.x.x.x.x.x.x.x.v.v.V.m.%.%.v 1 6 4 H P G G V B S B n B B B Z Z Z Z Z ",
"G G Y ! / ! ! I G B S I W ! ! I 4 1 6 C 4.M.M.V.v.x.x.x.x.x.x.x.x.x.x.x.x.v.v.V.m.%.%.v 1 4 6 ! W T P B B N B B B B B Z Z Z m Z ",
"Z K ! X.-.O.X.! P B H ! | s s g B I I ] w.x.x.x.k.k.g.k.s.k.g.k.h.h.h.h.h.z.k.x.z.8.8.( U n v g s ! P A B n B B B B B G G Z B B ",
"V K ~ 2.t.1.1./ P B I / = O O f ] f.f.k.y.y.y.y.q.y.y.y.y.y.y.y.i.y.y.y.y.y.w.w.y.p.i.z.f.^ / t o < 2 A B B B A G A Z F A B B V ",
"F K ! @.3.-.2...E I W ' X     d &.M.M.m.s.w.w.w.y.y.y.y.y.y.y.y.y.y.y.y.y.y.y.w.w.s.f.N.M.) ) e   $ @ B n B B A A A Z C Z V B B ",
"B P E ~ | | | ' ( / ( ' .     d -.V.M.m.s.w.w.w.y.y.y.y.y.y.y.y.y.y.y.y.y.y.y.w.w.h.f.N.M.) ) e   @ @ A B B B B G G G S Z C B V ",
"G C G I E ! ! ' %.2.#...o     d #.m.v.x.s.y.y.y.y.y.y.y.y.y.y.y.y.y.y.y.y.y.y.w.y.s.h.v.v._ ) e   = = G G B A G G V G Z Z V m Z ",
"G B B M G I E ( 3.u.1.( $ X X f } k.z.z.y.y.y.y.y.y.y.y.y.y.y.y.y.y.y.y.y.y.y.y.y.s.p.x.f./ / t   , , F B G G G G G C G Z C B Z ",
"G B m v B I I ^ #.3.=.^ * X X f X.z.k.x.p.y.y.y.y.y.y.y.y.y.y.y.y.y.y.y.y.y.y.y.y.p.s.x.h.( / t   , , G F Z F C C S Z Z Z Z V B ",
"G m m n M P P ^ #.4.s p o O O j @.b.b.x.s.y.y.y.y.y.y.y.y.y.y.y.y.y.y.y.y.y.y.y.y.s.s.v.x.....y X @ @ G G F V S G C Z Z Z Z m V ",
"G B m m B P G W / w @ @   + + v 1.M.M.m.s.r.y.y.y.y.y.y.y.y.y.y.y.y.y.y.y.y.y.w.w.f.f.N.M.O.@.h O     = u F Z G B G G V F C B V ",
"G B m B B G S P 2         * & v O.x.z.x.i.i.y.y.y.y.y.y.y.y.y.y.y.y.y.y.y.y.y.y.u.d.d.x.z.....h O         8 8 F S G C S G B B B ",
"G B B Z G F A F 2         * * x $.z.z.x.i.y.y.y.y.y.y.y.y.y.y.y.y.y.y.y.y.y.y.y.w.d.f.x.z.....g O         8 8 F C V F C Z B B V ",
"G B B Z A A B B o         + + t P ( ( ,.y.k.k.k.s.k.s.k.g.g.g.g.h.s.h.f.f.h.h.z.h.w.r.%./ B F 9 o         = = C F F G G Z V B B ",
"G V B B Z B A B o         X X * 6 g g W q.N.N.N.v.x.x.x.x.x.x.z.x.x.x.x.x.v.v.N.m.3.1.E f 4 4 * X         = = S F S Z G Z V B V ",
"G C B Z G Z G G <                 * * v @.x.z.x.s.y.y.y.y.i.i.u.y.y.y.p.i.s.s.x.l...] g +                 5 5 C C C G Z Z C m B ",
"G B B B Z F A G <                 * * n #.z.z.z.i.i.i.i.y.i.u.u.y.i.p.y.i.p.s.x.z.) ] j +                 5 5 S G V Z G Z Z Z Z ",
"G B B B G C S Z b y 1 >               e P / ! ~ ! Q Q Q Q Q W W Q ! Q Q W ! ! / ! G Z 7           X X 1 d M M V G G Z Z Z Z m V ",
"G B C V F a T T r.5.B B O             * 7 t t t r e e e e e e e e e e e e e e e e 7 7 *           * * J r.5.1.P i i S F F V B B ",
"G B B Z $ # E R F.J.$.O.6                                                                         e e r.L.D.S.C X X < F B C B V ",
"Z Z B C = + R R F.J.$.$.6                                                                         e e 0.L.D.D.C X X < B Z V B B ",
"G Z m V     U U K.P.D.D.W s y :                                                             X < g ( ( G.P.F.F.N     . S Z C B V ",
"G C m Z     J J H.P.P.P.F.i.w.B O                                                         * * P z.H.H.P.P.D.F.c     o Z Z V B C ",
"Z V V C = + J G S.P.P.P.P.F.F.~ 4                                                         e 7 O.H.P.P.P.P.M.M.v X X < Z Z C m V ",
"G V m Z = + G J S.P.P.P.P.F.F./ 4                                                         7 7 O.H.P.P.P.P.M.M.v X X < Z Z Z Z Z ",
"G C Z Z B a H H -.x.A.A.A.x.x.| H v v v B j j 6                           O O 7 j n B n v I I O.m.A.A.A.z.X.O.V p p Z Z Z Z m Z ",
"G B B Z A A A A c f d y f B n ( x.S.S.F.D.d.d.N O                         * * P z.D.D.F.S.f.f.! n f f y f v b W ! E I H A B B M ",
"G B B B A S N B ,         ; : W D.P.P.P.P.D.F.! <                         7 7 ..H.P.P.P.P.S.S.H +         5 5 X.o.( E H B B B B ",
"G B B C S B A B <         - : W F.P.P.P.P.F.F.! 1                         6 7 _ G.P.P.P.P.S.S.P +         5 5 1.e.#.! P B m m B ",
"G B B B F B A M o             v 3.A.S.S.M.5.8.W j e e e y y y y y y t e t x j ^ i.A.A.S.A.#.#.f           , ; 3.e.#.^ P B n B B ",
"G B V C A B B B o             4 s z j h y g g J ! ] ....( ( ( ) ( ( ( _ _ ! ! M g y d h j y y >           ; ; 5.e.#.! P B n m M ",
"G B B B A B B n 2                         * & v #.z.z.z.i.y.t.r.t.u.s.z.l...| j +                         8 8  .O.( W P B B B B ",
"G m m B n B B B 2                         * * v O.h.k.z.y.r.w.w.t.u.u.z.h...| j +                         8 8 ! ! E I P B B B B ",
"G M B B B B B B V h 7 7 O               : q e n I ! ! W E E E E E E E ! ! P I j q * *             @ & 7 j S G H P H G G Z B B B ",
"G Z Z G I u E Y a.f.I I >         X o t I E E b 9 1 1 > > > > > > > 2 > 4 e e B E H J 9           7 7 Q z.w.e.P w r M G G C B V ",
"G G Y Q @ O Y E G.L.%.-.6         * * B 3.4.4.F *           .             > > I e.-.-.c +         e e p.L.D.D.C X   , A G B V C ",
"G J Q X.$ O E U G.L.-.-.5         * * V 5.5.4.F *           .             1 > I 0.-.&.v +         e e i.P.D.D.F   X ; A Z Z m Z ",
"G I ~ 2.    R R L.P.w.i.7         - - H f.x.x.! y 7 7 e j j j c j f g e 6 g g ( m.r.0.n +         y y m.P.H.H.N     . B Z Z B Z ",
"Z K ~ #.    R R L.P.r.r.7         * * F r.M.M.5.~ ! / -.x.A.M.A.A.z.z.O.! / / r.N.1.>.v #         y y m.P.G.G.N     o Z Z C V B ",
"Z H Y / ; * R R D.H.O.O.6         * * j O.f.f.f.i.v.x.D.L.P.P.P.P.J.J.D.z.t.w.f.s.( ( f +         e e 5.J.S.S.N O + 3 Z Z B m V ",
"G G E / = * E U F.H.o.o.4         * * x X.f.p.f.i.x.v.D.L.P.P.P.P.J.J.D.z.y.y.f.s.( / g +         e e 5.J.S.S.B + + 3 Z Z Z V Z ",
"G Z G I E k L L O.] n n -             7 B ! ! =.z.A.S.F.J.P.P.P.P.J.J.F.A.f.f.@.W v v 6           4 1 G O.....H k k Z Z Z Z m B ",
"G B m B A R T ( a 4 * & X             X : y y E r.A.A.S.S.D.D.D.D.S.S.S.A.3.3.I e * *             X X * 6 f g S C F C S C B B V ",
"G C m v B P P ^ 2               . X       @ @ c O.f.d.f.5.5.1.5.3.e.r.f.i.( ..f O       . X   X           8 8 V B G G G G B B B ",
"G B m m B P G W 2             X .         + * j X.i.p.f.5.5.3.3.5.8.5.f.i._ ..f O         X               8 8 F G C F F Z C B V ",
"G B m B B G G I R 5 @ @     X > y e t *       4 v I I I H P G P G P P I K j j :       : t e t >   .   $ 0 F Z V G S F V Z V B B ",
"G B B B Z G G A A A G G @ X X y W ! ! y         * > > 4 4 6 6 4 6 4 4 4 > * @     O X j ! R E e   = $ G G S C G G Z Z G Z C B V ",
"G B B Z G C G B M B B B $ O O c 1.r.5.P >                                         5 6 E y.%.$.d   , , F F C S G C F G Z Z V m B ",
"G B B Z V B A B N B B B * X X v 1.8.8.P >                                         6 5 E y.$.%.d X ; , G S F V C S F Z G Z Z Z V ",
"G B C V G G G B C S C V o     j 8.m.m.| B f f f f e e +               * e y f a f G Z %.M.,.,.d   = = B C F F G G C Z Z Z Z m V ",
"G B B Z C G G C B A B F .     f 1.V.V.k.%.} X.#.#.W ! t           X X f ! #.;.#.X.:.:.x.V.+.O.t   @ @ S G C Z Z V G G A Z B B V ",
"G B B V G G V F F G S C       h 1.V.V.k.&. .| #.#.W E t           X X f ! &.#.#.X.2.:.x.V.+. .t   @ @ G V S Z Z B G Z G G B B B ",
"G B B C S C F V Z G G F ; # # f ..i.i.s.t.u.r.z.g.o.@.b :         4 2 B %.l.z.f.i.y.w.f.y.^ ^ y O 3 3 G F G Z Z G G B A Z C B V ",
"G C B B C S G Z G B S F G G G x V G J P I R E I R L L V C S Z Z V F F S I E I R U I I P G B B x G G C S G C Z Z G F G G Z V B B ",
"G B B C Z Z Z G G G Z Z G C S C 9 * * * > 1 > - : q q A Z Z Z Z V G G Z 7 - - : 1 > > * - r r G G S C G Z Z Z Z Z Z Z Z Z C B V ",
"G V B Z Z Z Z Z C Z G Z S F G F 9 * * - 1 1 1 : : q q S Z Z Z Z F F Z G 8 : : : 1 > > * * r r Z S C Z A Z Z Z Z Z Z Z Z Z V m B ",
"Z C m Z Z B V C V C Z Z C Z B B ;                 ; : A V Z V C B C V B @                 4 < Z B Z B Z V C C Z V m C Z Z C V m ",
"Z m V m Z Z m B B V m B V B B B 6 + O + : : : * * 9 9 M C B B B B V B B 6 * & * ; - - O + 7 7 B B B B B Z Z m V C Z V Z m V m V "
};
