/* XPM */
static char *b16972bf2c934eb3bbfc8fd157d69cc2bt9OVDFq0uDHYtNH[] = {
/* columns rows colors chars-per-pixel */
"64 64 134 2 ",
"   c #010101",
".  c #090907",
"X  c #05060C",
"o  c #07080E",
"O  c #0B0B0B",
"+  c #0A0B11",
"@  c #0F1016",
"#  c #141414",
"$  c #181817",
"%  c #14151B",
"&  c #1B1B1B",
"*  c #201F1D",
"=  c #21211F",
"-  c #1F2026",
";  c #242424",
":  c #292826",
">  c #2C2C2C",
",  c #31312E",
"<  c #333333",
"1  c #383835",
"2  c #3C3C3C",
"3  c #42413F",
"4  c #444444",
"5  c #494846",
"6  c #4B4B4B",
"7  c #51514E",
"8  c #545453",
"9  c #5A5956",
"0  c #5E5E5C",
"q  c #605F5E",
"w  c #60605F",
"e  c #5E5E61",
"r  c #5F6062",
"t  c #616161",
"y  c #696967",
"u  c #6B6B6B",
"i  c #71716F",
"p  c #747474",
"a  c #797977",
"s  c #7B7A78",
"d  c #7B7B79",
"f  c #7C7B79",
"g  c #7C7C7A",
"h  c #7D7D7A",
"j  c #7B7B7B",
"k  c #82827F",
"l  c #7F7F82",
"z  c #818181",
"x  c #838380",
"c  c #808083",
"v  c #838383",
"b  c #858583",
"n  c #848482",
"m  c #818184",
"M  c #868684",
"N  c #878784",
"B  c #878785",
"V  c #838383",
"C  c #888886",
"Z  c #898987",
"A  c #888888",
"S  c #898989",
"D  c gray54",
"F  c #8B8B8B",
"G  c #8C8C89",
"H  c #8C8C8A",
"J  c #8A8A8D",
"K  c #8B8C8E",
"L  c gray55",
"P  c #8D8D8D",
"I  c #8F8F8C",
"U  c #8C8D8F",
"Y  c #8E8E8E",
"T  c gray56",
"R  c #8B8B8B",
"E  c #8D8E90",
"W  c gray57",
"Q  c #929290",
"!  c #939391",
"~  c #929292",
"^  c #939393",
"/  c #949492",
"(  c #959593",
")  c #959595",
"_  c #949494",
"`  c #97979A",
"'  c #9A9A98",
"]  c #9B9B99",
"[  c #98989B",
"{  c #999A9C",
"}  c #9A9B9D",
"|  c #9E9D9C",
" . c #9E9E9C",
".. c #9C9C9C",
"X. c #A0A09F",
"o. c #A2A1A0",
"O. c #A2A2A0",
"+. c #A0A0A3",
"@. c #A0A1A3",
"#. c #A3A3A6",
"$. c #A3A3A3",
"%. c #A6A7A9",
"&. c #A7A7AA",
"*. c #A8A8AB",
"=. c #AEAEAE",
"-. c #ABABAB",
";. c #B4B4B4",
":. c gray71",
">. c #B6B6B6",
",. c #B7B7B7",
"<. c #B4B4B4",
"1. c gray72",
"2. c #B9B9B9",
"3. c gray73",
"4. c #BBBBBB",
"5. c #BCBCBC",
"6. c gray74",
"7. c gray",
"8. c gray75",
"9. c #BBBBBB",
"0. c #C0C0C0",
"q. c #C1C1C1",
"w. c gray76",
"e. c gray77",
"r. c gray78",
"t. c #C3C3C3",
"y. c #C8C8C7",
"u. c #CBCBCB",
"i. c #D3D3D3",
"p. c #DCDCDC",
"a. c #E4E4E4",
"s. c #EBEBEB",
"d. c #F5F5F5",
"f. c #FDFDFD",
/* pixels */
"t t r t t r t e e e p E +.*.} l u y t p W #.%.` l u t e t e t y t t t t y t t t e e e t p E X.*.} m u t p p E #.%.} x u e 0 9 e ",
"t 0 9 0 e 9 e 0 0 0 u M } O.) s t 0 e u G X.X.^ a t 9 0 0 9 0 0 0 e 0 0 0 0 r e 9 9 9 9 u m ' X._ j y e u i A  .X.^ f y 0 9 9 0 ",
"w 9 9 9 9 9 9 9 9 0 y s M G x i t q 0 y s U I x p t 0 9 0 9 0 0 0 0 0 0 0 9 0 9 9 9 9 0 u a M G k i t 0 y y g H H x i t 0 8 9 0 ",
"w 0 9 9 9 9 0 0 0 9 t u i p u y t 0 0 y u p a p y 0 0 0 0 0 q 0 r 0 w 0 0 9 9 9 9 0 0 0 t u p p u y t q t y u p a p y t 0 9 9 0 ",
"w 0 0 0 0 0 0 0 0 w t t t t t t 0 t t t t t y t r 0 r w t 0 r w 0 t q q e 0 0 e 0 e 0 t r t t r t t e t t t t y y t t w q 0 0 q ",
"w 0 0 0 0 0 0 0 e w r t t t t e t e w t t y t t t t t 0 t t t t t q t 0 e 0 0 0 0 0 e t t t t 0 t t t 0 t t t t t t t w w 0 0 0 ",
"t w t , #         O O O . .   . O O O O O . .             . O O # O + # O .         . O O O O . . . . O O O O . .         . $ w ",
"t t i , $ .                                       . .                           .                                           $ q ",
"w y 1 > & % # O O O . o O + O O O O X O O O + # # # % % # + O o . . . . + + # # # # + O O O O O # O O O X O O + + # + o O # & > ",
"2 > = ; : > > : ; ; ; ; ; : : : ; ; ; ; ; ; : : : : > > : : ; ; ; ; - - ; : > > > : ; ; ; ; ; ; : ; ; ; ; ; ; : ; ; : : ; : : : ",
"- O # = 1 4 6 6 5 4 4 4 4 5 5 5 4 4 4 4 4 4 4 4 5 5 5 5 5 4 5 4 5 4 4 4 5 4 5 5 5 5 4 4 4 4 4 4 4 4 4 4 4 4 4 4 4 4 6 5 5 4 1 ; ",
"#   O ; 4 e y u y t t y t t t t y t t t t t y t t r t y t t t t t t t t t t t t t t t y t y t t y t y t t t t t y t y y u e 4 : ",
"X   O < t x ^ ) ^ U U K E J A A M A G J R H H U E U U U K G G A G G K U U G G A J A A A A J J U L L U U U U G G G G U ) E m r < ",
"X   # 5 x =.0.y.e.0.8.8.4.,.:.<.<.<.<.,.2.6.8.6.t.0.0.6.6.4.<.:.,.1.8.8.8.5.2.,.:.<.<.:.>.1.4.6.q.8.q.q.8.6.4.1.>.>.6.0.q.=.m 6 ",
".   & 0 O.i.s.d.s.s.s.a.a.a.p.p.p.p.p.a.a.a.s.s.s.s.s.s.a.a.p.p.p.a.a.a.s.a.a.p.p.p.p.a.p.a.a.a.a.s.s.s.a.s.a.a.p.p.s.s.s.i.#.0 ",
"X   : y 1.s.f.f.f.f.d.f.d.d.d.d.f.d.d.d.d.f.d.f.d.f.f.d.d.f.d.d.d.f.f.f.d.f.d.d.d.d.d.d.d.f.d.f.f.f.d.f.f.f.d.d.d.f.f.f.f.s.<.u ",
"X   ; u :.s.f.f.s.a.p.a.s.d.f.f.f.d.d.d.s.a.p.p.p.p.p.p.a.s.d.d.d.s.a.p.a.a.s.f.d.f.f.d.d.s.s.a.p.p.p.i.p.p.a.s.d.f.f.f.f.s.>.u ",
"o   ; t %.i.a.i.<.O.X.<.u.p.s.s.s.a.p.i.6.=. .' ^ ^ ) O.>.u.p.a.i.6.%. .$.4.i.a.s.d.s.s.a.u.2.%...^ L R E ' =.0.i.a.s.f.f.a.*.y ",
"+   & 9 / 5.1.] p 9 8 p } 0.i.p.p.u.q.*.E u 9 5 4 4 6 0 p X.4.e.<.M t 8 0 x *.y.p.p.p.u.8.$.m y 6 4 1 1 2 6 p ` >.y.p.a.p.u. .9 ",
"+   & 7 C %.X.p 2 # # 2 u X.4.t.t.4.*.W y 1 % .     . $ 5 p #.-._ 0 : @ ; 6 x *.6.e.e.5.$.m 9 > +       . & 4 p X.>.0.e.t.=.m 7 ",
"+   & 8 C -.] y :     % 6 j ' *.>.,.=.U 9 ;             > y ) $.m 6 O     : e A O.*.<.=.} p 3 O         . - 8 g X.<.>.=.#.J y 2 ",
"O   = w ] q.=.p :       - 6 y G *.8.q.O.t :             ; 0 E  .l 5 .     . < 9 u G  .#.[ u <         - 2 9 j $.1.5.*.U p 9 2 - ",
"o   ; u <.p.y.G 2         # 2 t  .u.p.6.j >             - 0 U  .l 5 O       . = 2 t M ..' u >       ; 9 M *.0.i.p.y.#.p 4 ; #   ",
"X   : a 0.d.p.X.6 .         O 6 ` i.d.i.E 3             : t ^ O.M 8 #           % 4 a } X.p 1     # 8 ' u.s.f.f.d.p.O.0 ;       ",
"X   : s y.d.a.=.0 &         O 4 ^ p.d.p.} 6 #         # 3 p } *._ y < O         % 4 j O.%.m 5 # O < p 0.f.f.f.f.f.a.*.t ;       ",
"X   ; p 3.s.a.;.p 2 & O O O ; 8 ^ y.a.i. .t < & & : 1 6 u _ <.2.*.V 9 4 < > : > 3 y _ <.2. .p 6 3 t  .p.f.f.f.f.f.s.6.x 6 > # . ",
"X   * w *.p.i.1.J t 8 4 4 4 7 i ) 2.u.0...p 0 8 0 u j E O.2.u.i.y.<.} G l a a j G  .2.u.i.6.#.U M } 0.a.f.f.f.f.f.d.i.>.) p 7 > ",
"X   $ 8 ^ 0.y.1.O.G x j j j x I  .=.<.=. .L x C [ =.e.u.p.a.s.a.a.p.i.y.r.r.t.r.y.i.a.a.s.a.i.u.u.i.a.d.f.f.f.f.f.f.d.a.p.6.J 8 ",
"O   # 5 a O.<.:.=.*.*.*.*.%.%.%.&.*.%.$.$.$.%.<.r.p.d.f.f.f.f.f.d.f.f.f.d.f.d.f.f.f.d.f.d.f.f.f.d.f.f.d.d.d.f.d.f.f.f.f.f.d.>.y ",
"- # * 2 0 s E #.<.0.y.u.u.u.y.w.5.>.<.>.1.6.e.i.a.d.f.f.f.f.f.f.f.f.f.f.f.f.f.f.f.f.f.f.f.f.f.f.f.f.f.f.f.d.d.f.f.f.f.f.f.f.e.p ",
"t 0 > , 1 5 e V =.i.a.s.s.s.a.a.p.u.u.u.i.p.a.s.d.f.f.f.f.f.f.f.f.f.f.f.f.f.f.f.f.f.f.f.f.f.f.f.f.f.f.f.f.f.f.f.f.f.f.f.f.f.r.p ",
"t 0 q : # $ < y %.p.d.f.f.f.f.d.s.s.s.s.s.d.f.f.f.f.f.f.f.f.f.f.f.f.f.f.f.f.f.f.f.f.f.f.f.f.f.f.f.f.f.f.f.f.f.f.f.f.f.f.f.f.0.p ",
"w 0 w = .   & 0 O.a.f.f.f.f.f.f.f.d.d.f.f.f.f.f.f.f.f.f.f.f.f.f.f.f.f.f.f.f.f.f.f.f.f.f.f.f.f.f.f.f.f.f.f.f.f.f.f.f.f.f.f.d.>.u ",
"t 0 0 = O . ; e $.a.f.f.d.p.p.p.a.s.d.s.a.p.p.p.p.a.s.s.s.p.p.i.p.a.s.s.s.a.p.i.i.p.a.s.s.s.a.p.i.p.a.a.s.s.s.s.s.s.f.f.f.a.=.y ",
"t w 0 > ; > 5 p *.i.p.u.<.` _ X.2.i.p.i.6.#.^ ) *.0.i.i.0.*.) U ' =.u.i.u.>.X.E E #.8.u.i.t.*.) U ) *.0.i.p.p.i.i.p.p.a.a.u.} 0 ",
"t ; ; 1 6 e p ^ =.6.2...u 6 4 9 M *.8.=.G 0 4 6 u ) >.2. .i 6 2 9 j %.2.=.A 0 4 4 y _ <.2. .p 6 3 8 p ] 2.e.e.8.6.6.e.y.r.>.A 7 ",
"% O $ 4 u ^ O.<.>.<.X.p 3 # O > e ^ =.) y > O # 4 s O.$.x 6 $ O ; 0 ^ *.' y < + # 2 p #.*.V 6 & O & 7 l %.>.>.<.=.*.<.1.<.#.j 6 ",
".   # 5 M <.0.y.0.>. .p 2 % O : 0 _ =.) y > O # 4 a #.%.m 6 & o : 9 T *.' y , O # 2 p O.*.V 7 & O = 6 x $.>.>.<.*.=.<.2.,.$.j 5 ",
"    $ 9 ' u.a.s.p.u.,.) u 7 4 0 A =.t.>.U w 4 6 p ] 6.0.#.p 8 4 9 A =.t.>.E t 5 6 u ' 6.0.%.s 8 4 9 s #.0.u.u.y.e.y.u.i.i.6.U 8 ",
"    $ w =.s.f.f.f.s.p.y.=.X.' *.0.p.a.p.w.*.}  .<.u.a.a.i.,.X.' %.8.p.a.p.r.*.}  .<.y.a.a.i.2.#.) #.,.u.a.s.s.s.a.s.s.d.d.p.$.0 ",
"X   ; y 1.d.f.f.f.f.f.s.s.a.a.a.s.f.f.d.s.a.a.a.s.d.f.d.d.s.a.a.a.s.f.f.d.d.a.a.a.s.d.d.f.d.s.a.a.a.s.d.f.f.f.f.f.f.f.f.f.d.>.y ",
"o   : u ;.s.f.f.f.d.d.d.d.d.d.d.d.d.d.d.d.d.d.d.d.d.d.d.d.d.d.d.d.d.d.d.d.d.d.d.d.d.d.d.d.d.d.d.d.d.d.d.d.d.d.d.d.d.f.f.f.s.<.u ",
"; & < t ) 4.u.u.r.0.0.t.y.u.u.u.e.t.0.t.r.u.i.u.u.e.t.t.e.y.u.u.u.r.8.8.t.r.u.u.u.u.t.0.0.e.y.y.u.u.r.t.6.6.8.0.0.e.y.u.y.2.^ e ",
"e y x 6 y p s s s p p s j l x j s p p s j m A A m l j j j j x x j j p p s j m A M x l p p s j l x j j j p p s s g j j j j p t 8 ",
"w u g 3 < > > > > > > < > < < < < > > < < 1 1 1 2 1 < 1 < < < < < > > > < < 1 1 1 1 < > > > > < < < > > > > < < 1 < < > > > 1 3 ",
"t t p , # .                                 X                                                                             . % < ",
"t t p : #                                                                                                                 . $ > ",
"t w y ; & & $ # % $ & $ $ $ & & & ; & # O                 . + # & & $ % O           O & ; ; - $ $ $ - ; - # .         . % ; : > ",
"t 0 9 0 e i i A } *. .A p e 9 e e t t e ; O             O & > 1 2 4 2 1 > %       O  .%.X.G u e 0 e e e w e & .     O ; e 0 0 q ",
"t 0 9 9 9 u u l ` X.` m y 9 9 9 0 t w t w $           . % < 6 0 t t e 0 5 > #   . $ ` O.` m u 9 9 9 0 t w t < #     $ t t 0 0 0 ",
"e 0 9 9 9 y y p M K M p t e 9 e 0 t w t e $ .         . ; 4 0 p s j p p 0 2 % .   % M J m p y 0 9 9 e w e w t t 0 e t 0 q 0 0 q ",
"r 0 9 0 e t t y u p u u t 9 e e q w t t ; O           . : 6 p J ` } _ G p 6 ;     O u p p y t 0 e 0 e w t w r 0 t t w t w q 0 q ",
"r 0 0 w w t t t t t t e e t e t t t - # O .           O > 0 C O.=.<.=.O.A 9 > .     O & : t e t t e t w t 0 q t 0 t w w q w 0 0 ",
"t 0 0 0 t 0 r 0 0 9 0 0 e t e t t $                   . < t U =.2.0.4.=.E t < X       . # 0 e t t t w e t t t e t w r q w 0 0 q ",
"t 0 0 w r 0 r 0 9 e 0 0 0 w w t t #                   O < 0 A #.=.>.<.O.A 9 > .           $ e 0 e e w t e t 0 t t e w w q q 0 q ",
"t 0 0 w w t w 0 e e w e t e t q t ; # O               . ; 6 u l G J G l y 6 ; .           # t t t t t q t w t t w t w q q q 0 0 ",
"t 0 0 w w r t 0 e 0 0 t t t q t t 2 < ; # .           . # > 4 6 8 9 9 6 3 : $ .           # t w e t e t r w r w t 0 r w w 0 0 q ",
"t 0 0 0 w t r w t t w e e w w e w r t t : O             O # # & & - & & % # .             # e t w w t t w t w w t t w t e q 0 0 ",
"t 0 0 w t 0 r w w t 0 t 0 t t w w w w r t & .                                           . & t r t q t 0 w r w r t t q w q q 0 q ",
"t w 0 0 t t w t e t t t t w e t r w t w r > % O .                                   . O # : t t w t w w r w w w e w t e w 0 0 q ",
"t 0 0 w w w t w r w w w t w t q w w t w w w , ; # .                               . $ ; r t w w e t 0 t w w w w w w w q w q 0 0 ",
"t 0 0 w w w w r w w w w t e r t w w w r t w w w 0 t t 0 w w w e w r w w 0 t t 0 w w w w w w w w t w r t w w w w w 0 w w w 0 0 q ",
"w 0 0 0 0 0 w w 0 w w 0 w w 0 0 0 0 w w w 0 w 0 0 w 0 t 0 w w w 0 0 w 0 w 0 0 t w 0 0 w 0 w w 0 w w 0 0 w 0 0 w 0 w q q q q 9 q ",
"0 9 9 0 0 0 0 0 0 0 0 0 0 0 0 0 0 0 0 0 0 0 0 0 0 0 0 0 0 0 0 0 0 0 0 0 0 0 0 0 0 0 0 0 0 0 0 0 0 0 0 0 0 0 0 0 0 0 q q 9 q 9 9 "
};
