/* XPM */
static char *result[] = {
/* columns rows colors chars-per-pixel */
"64 64 48 1 ",
"  c #010101",
". c #0C0C0C",
"X c #131313",
"o c #1C1C1C",
"O c #232323",
"+ c #2A2A2A",
"@ c #333333",
"# c #3C3C3C",
"$ c #454545",
"% c #4B4B4B",
"& c #545454",
"* c #5A5956",
"= c #5E5D5C",
"- c #605F5E",
"; c #60605F",
": c #5E5E61",
"> c #5F6062",
", c #616161",
"< c #686765",
"1 c #696967",
"2 c #6B6B6B",
"3 c #71716F",
"4 c #737373",
"5 c #797977",
"6 c #7B7B7B",
"7 c #82827F",
"8 c #7F7F82",
"9 c #838383",
"0 c #898987",
"q c #8B8B8B",
"w c #908F8E",
"e c #8D8E90",
"r c #949494",
"t c #97979A",
"y c #9C9C9C",
"u c #A3A3A3",
"i c #A7A7AA",
"p c #ABABAB",
"a c #B2B2B2",
"s c #BBBBBB",
"d c #C3C3C3",
"f c #CCCCCC",
"g c #D3D3D3",
"h c #DCDCDC",
"j c #E4E4E4",
"k c #ECECEC",
"l c #F5F5F5",
"z c #FCFCFC",
/* pixels */
"<,>,,>,::,4euiy81,<4eiit81>>,,,<>,<<>,<>:::,4euiy92,44eiit91>=:>",
":**==::**>20tur6<-:2qyuw5<=*=-:==:*;:==:***=29tur6<:22qyur5<****",
",********=160q73,--16qw74,****==;*;=:*******250q74,=116qq93<***=",
",*******::,13421;;=,24541>==;*;;=>;==****===,2242<;-<<24441;***=",
",;=====:=,,,X..   ......               ......     .,,,,<<<,,,;*;",
"<**====:,,,X                                       X,,>1,,,,;;-;",
",*<1211<,>;.   oOOoX..XoO++++++O++++++OOXX..ooOo.   ===*===,;**;",
",<269682,=,X  O$,<&#++@&146544444444562=$@+@%=<*#X  O=*:=*;;,--;",
";<6wyer6<*,X X$9ppr2&%1qpdffdsdddsdfffsy5&%*6uat2+. X*==::=,,==;",
";17yiyy92:1X O,ajkdq<,8phlzzlllllllzzlkfr4:4phkgr$. X==;>:;,,=*=",
",16ruty0424X O4dzzgt<*6ugklllkkkkkkllljde1=6akzku&. .==:;>;,,;;-",
"><49qqeq000. +6fzzgq&$&6yassaaaaaaaasspq1%$2pkzli&. .=:;>;:;,;*-",
",,<1486qryt  +4fzld6#OO$*<1<,<,,,,,<11:%@O+&yjzku&. .;;>;;:;,-*;",
",*=*,22quiu  +4dlka1O   Xoooooooooooooo.  .#qglju&. .,>;;,,;;-*-",
">=*&:117rut  +6dlka:X                      @9flju%. .,;>;>;;;---",
">=*&*117ryt  +4dlkp*X                      @9flku&X .;>;>;,-,-=-",
",***=<<49q9. O4dlkp=X                      @9glju&. .,,,;;;;:-==",
",==*=,>1242X O4dlkp:X                      @9flju%. .,,,,:;;,:*-",
",==;,,:,>>:X O4dlkp,o                      @0flju&X .,,=,;;,,---",
",;=;:=::=*=. O2dlka2+.Xo@##############+X.o$rgljy%. .,,,;;:,,,*-",
",;=,,=-===*. O4slls6$@#*6qqqqq0qq00qqq92&@#*yhljy%X .,,,>;>;;==-",
",;*=,>,>-::. O4dlldq=&2rsghhgfgggggghhfi6*&3phljy%. .,:;;>;;;-*-",
",==;,,,;=,,  O2sllfr1,8ahlzzzllllllzzzlft3:6pjljy%X .,,;>;;;,---",
",===;:;;,,,  +4slkfr,=4yfjlkkjjjjjkkkkhaq<*4pjzhy%. .,,,;>;;,;*-",
",==;:;,,,:;  O4dlks9%$%2ripipuuuiuiiipy9=$#,yhljy%. .;>;;>>,;---",
",,*;,,,=,,,  +4dlks4@oO@$&&*&&&&&&&&*&&#+oO&rglju%X .>;>>;;;;;==",
",;;;,,;:;,,  +6dlka,o   .XXXX..XXX.XXX..  .#qflju%X .,:;;,;,;-=-",
",;*;=,,,;,,  +4dlkp:X                      @0fzji%X .>;;>,;>;-*-",
",=;;;>,,;;,  +4dlkp*X                      @9flju&. .>;===:;;-=-",
",=*;,;,=:;,  +6dlkp*X                      +9glju%. .;:=*=:;;-==",
",==;;,;,,;:  +4dlkp=X                      @9flju%X .;:::=:;--=-",
",;;=>;>;,;,  +4dlka,o    ......... ....    #qglju&. .;,,1,,;-==-",
",;=;,;::=,<  +4dlls3@XX+#$%%$%$%$$%%%%$@OXo%rhlky%. .125642<:===",
",;*=;=::*>2  +4dlld9%#%<qruyytrrrtryyyr5*##>uhzku&. .29ee04,=*==",
",;=-;:=*=>4  O4dllfe=&2ydhjjjhhhhhhjjjga9,&4pjzjy&X .4qyur62=**=",
",==-:=::*,4  +4sllfr1<8ajzzzzzlzlzzzzzlft4:5pjzhy%. .2quir81=*==",
",==;:==**:4  O1ajjsq**4tdhjjhhhhhhhjjjga0:*3ygkge$. X2qyut62=*==",
",==*::*::,2  O:uffi4$#%<9ryttrrrrrrtytr4*##&qsgs9#. o28er042=*==",
",**=***=*:1. o&rsaq*+oo+#$%$%$$$$$%$%$$@Ooo#4usp4@. +146542,-=*:",
",===:=:::=:. o&0iu5$X    ... ..... ....    +=eiy1@ .+,,1<<>;;===",
",,,11<2,,::. o%6uy4#.                      o*0ut1+ .+====::;;==-",
";<269662>:,. X%8uy4#.                      o&0ut2+. O===*==:;-==",
";26qtqr6<*,X o%0iu4#                       O*eiy2@. o=*::=:;,-=-",
":17tpyy92:2X X%9iu4#X                      O*qpy2@. X*=::::;,;*-",
";17ruyyq424o o$8yy4$X   ............X..   .+*qur1@. X*=:;>;>;==-",
"><39qwqq090X X#2re2&+OO+@#############@@OoO#:8r0:+. X::-;;>;;-*-",
"><49qwwq090X .@*482*$$%&<34433332424442,&$$%,482%O  X;;;>;;;,---",
">=12486qrtr. .+%121=&=26ryyuytytyyyyuytq4,&*<22*#o  X:;>;>;;;,*-",
",;=*>420yiy. .O#*1,:*14qyipppiiiiiiippur82:*,,:%@X  X::;;;;>;---",
",**&*129tutX .O$*,:&&&:28qeqqq0000qqqq061&&&*::&@o .o:,;;;>;>;==",
",***=<<49q0X .O$=,*$@@#$&***&&&&&&&***&%#@@#&:,*@o  o=;;>;>>--=-",
",===:,,1242o  +%,>&@oXXoooOoOoOoOoOoOooooXo+#*1*#o. o;;;;>;;-==-",
",==;,;,;,,:o .O$,=$O.                      X#&=*#o  o,>;>;>;;-=-",
",===>;:=:**o  o#%%@o      .   .  .  .      .O#%$+X  o,,-;>;;;===",
",==;;=,:=**o  .O++o    .ooOOOOooOoOOOOoX    XO@+o   o,;,>;;;-==-",
",>=;>;,=>:=X   .XX.   .o::,,,,,,-:,,=,,,X    .XX.   X::,;>;;--=-",
",==;;>,=:::X          o@;:,,,,,,,;:,,;>;O.          o>;>;>,,----",
",===,,,;,,:o.        XO,,,,==;:,;>;;;;;>=o.       .X+;>;>;>->-*-",
",;=;>;;>;;;,OoooooooOO,,;,,,,,=,;:,;;>>;,;OoooooooO+@,;>,>,,----",
",===;;;>;;:,,-,,;>=>,,,,;:;:,,,;;;,;>;;>;>;;,:;,,=>;>;;>;;->;-*-",
",==;;;>;;>;;,,-,;>;;>;;;,,:;,,-,;;;,;>;>,;,>,,,;,:,,,;;;;;--;-=-",
",;*;;;;>,;,;,>;>;;;>;>;;,-,,;,,:>;;,>;;,,,,;;;,;,;;;,,;;;;;->-*-",
";;*;-;;;==;;;,==;;=;=;-;;;===-=-;;----;;;;;;==;==;=:--=-:------*",
";**---*-==;;**;=-;*;;*--*-==-=====*====-*;*-==;;*;;*-*=====-*-*-"
};
