/* XPM */
static char *b0bac5a0a42249098baafb9b14601c27rF8WNSR0ssru0ZCF[] = {
/* columns rows colors chars-per-pixel */
"64 64 113 2 ",
"   c #010101",
".  c #0C0C0C",
"X  c #131313",
"o  c #1C1C1C",
"O  c #232323",
"+  c #2A2A2A",
"@  c #333333",
"#  c #3C3C3C",
"$  c #454545",
"%  c #4B4B4B",
"&  c #545454",
"*  c #5A5956",
"=  c #5E5D5C",
"-  c #605F5E",
";  c #60605F",
":  c #5E5E61",
">  c #5F6062",
",  c #616161",
"<  c #686765",
"1  c #696967",
"2  c #6B6B6B",
"3  c #71716F",
"4  c #737373",
"5  c #797977",
"6  c #7B7B7B",
"7  c #82827F",
"8  c #7F7F82",
"9  c #838383",
"0  c #898987",
"q  c gray54",
"w  c #8C8C89",
"e  c #8C8C8A",
"r  c #8A8A8D",
"t  c #8B8C8E",
"y  c #8F8F8C",
"u  c #8C8D8F",
"i  c #8E8E8E",
"p  c #8B8B8B",
"a  c #908F8E",
"s  c #8D8E90",
"d  c gray57",
"f  c #929290",
"g  c #939391",
"h  c #929292",
"j  c #949492",
"k  c #959593",
"l  c #979797",
"z  c #949494",
"x  c #97979A",
"c  c gray60",
"v  c #9A9A98",
"b  c #9B9B99",
"n  c #98989B",
"m  c #9B9B9A",
"M  c #999A9C",
"N  c #9A9B9D",
"B  c gray61",
"V  c #9D9D9D",
"C  c #9E9D9C",
"Z  c #9E9E9C",
"A  c gray62",
"S  c #9C9C9C",
"D  c gray63",
"F  c #A2A1A0",
"G  c #A2A2A0",
"H  c #A0A0A3",
"J  c #A0A1A3",
"K  c #A3A3A6",
"L  c #A7A7A7",
"P  c #A3A3A3",
"I  c #A6A7A9",
"U  c #A7A7AA",
"Y  c #A8A8AB",
"T  c #AAAAAA",
"R  c gray68",
"E  c #AEAEAE",
"W  c #ABABAB",
"Q  c #B1B1B1",
"!  c #B2B2B2",
"~  c #BCBCBC",
"^  c #BBBBBB",
"/  c gray76",
"(  c #C3C3C3",
")  c gray77",
"_  c #C5C5C5",
"`  c gray78",
"'  c #C4C4C4",
"]  c #C8C8C8",
"[  c gray79",
"{  c #CACACA",
"}  c #CBCBCB",
"|  c #CCCCCC",
" . c LightGray",
".. c #D7D7D7",
"X. c #D2D2D2",
"o. c #DADADA",
"O. c #DCDCDC",
"+. c gray90",
"@. c #E7E7E7",
"#. c #E3E3E3",
"$. c #ECECEC",
"%. c gray93",
"&. c #EBEBEB",
"*. c #F4F4F4",
"=. c gray96",
"-. c #F6F6F6",
";. c #F5F5F5",
":. c #F8F8F8",
">. c #FBFBFB",
",. c gray99",
"<. c #FDFDFD",
"1. c white",
"2. c #FCFCFC",
/* pixels */
"< , > , , > , : : , 4 s J Y M 8 1 , < 4 s K Y l 8 1 > : , , , , < , < > , < > > : : : , 4 s H Y M 9 2 , 4 4 s K Y n 8 1 > * : , ",
": * * = = : : * * > 2 0 m G j 6 < - : 2 q A D a 5 < * * = = : = : : ; ; : = : = * * * = 2 9 m G l 6 < = 2 2 q A G d 6 1 = * * * ",
", * * * * * * * * = 1 6 0 w 9 3 , - - 1 6 w y 9 4 , = * * * = = = = = * = * * * * * * * 2 5 0 p 7 4 , = 1 1 6 p y 9 3 ; * * * * ",
", * * * * * * * : : , 1 3 4 2 < ; ; = , 3 4 5 4 1 > = = = = ; = ; = ; = = = * * * = = = , 2 2 4 2 < ; : < < 2 4 5 4 1 , ; * * ; ",
", ; = = = = = : = , : , X . .       . . . . . .                               . . . . . .           . , , , , < , < , , ; ; * ; ",
"< * * = = = = : : , ; X                                                                               X , , > 1 < , , , ; = * - ",
", * < 1 2 1 1 < , ; = X       o O O o X . . X o O + + + + + + + + + + + + + O O X X . X o o O o .       = = = * * : - , ; ; ; ; ",
", < 2 6 9 6 8 2 , = , X     O $ , < & # + + # % 1 4 5 5 4 4 4 4 4 4 4 4 5 6 2 = $ @ + @ $ = < * # X     O = * : * = = ; , ; * ; ",
", 1 6 a m d d 6 < * , X   X $ 9 T E d 2 % % < q E _ { { _ / / / / / ( ` { { ^ A 6 * % * 6 G Q A 1 +     o : = = : : : , , ; * , ",
"= 1 7 m K S A 9 2 : 2 X   O , Q +.+./ i < < 8 R o.=.1.,.:.*.*.*.*.*.=.>.1.:.%._ l 2 : 4 K o.%. .z % .   X * * : > : , : - = * ; ",
"> 1 6 j G M S q 4 2 4 X   + 4 ` 1.1. .l < * 6 K  .$.*.*.%.%.$.&.&.&.&.*.*.*.+.~ s 2 * 6 ! %.1.@.K & X   . & = : , > ; ; , ; ; - ",
"> < 4 7 i i i p 0 0 0 .   + 4 | 1.1. .r & $ & 6 A Q ^ ^ ! Q ! Q ! ! ! ! ^ ^ E i 1 % $ 2 E @.1.*.T & X   . * = : , ; ; ; , ; * - ",
"> , < 1 4 8 6 r l m m     + 4 { 1.:./ 6 # O O $ & < 1 1 , < , , , , , < 1 1 : % @ O + & A #.1.%.K % X   . : = ; ; , - , ; = * ; ",
", * = * , 2 2 r A T A     + 4 _ :.%.! 1 O       X o o o o o o o o o o o o o o .     . # q  .:.+.G & .   . = , ; , : , , , - - - ",
", = * & : 1 1 9 l A l     + 6 ( =.@.Q : X                                             @ 9 | :.+.G % X   X : ; ; ; ; ; : - - * ; ",
", * * & * 1 1 6 l D x     + 4 ( =.@.E * X                                             @ 9 { =.+.P & .   . ; ; , , : , , - - - - ",
", = * * * 1 1 4 9 q 9 .   O 4 _ =.@.W * X                                             + 9 | =.+.G & X   . , , ; , , > ; > : = - ",
", = = * : , > 1 2 4 2 X   O 4 ( =.&.Q = X                                             @ 9 | =.#.P % .   . , , , ; ; ; ; ; ; = = ",
", ; = ; ; , : : : , : X   O 4 ( =.&.Q , o                                             # 0 X.=.#.G & X   . , ; , ; ; ; , - - = - ",
", = = ; , : : : = * = .   O 2 ( *.&.! 2 + . X o @ # # # # # # # # # # # # # # + X . o $ s  .*.#.A % .   . : , ; ; ; : , - = = - ",
", ; = - - = ; = = = * .   O 4 ~ *.%.~ 6 $ @ # * 4 r s i 0 0 0 q q 0 0 r i i 9 1 % # @ = S o.-.#.A % X   . , , : ; > > ; ; - = - ",
", ; * ; , > , : : = > .   O 4 ~ *.*.{ r = & 2 z ^  .O.o. .X.X. . . . . .o.o.{ I 9 * & 2 Y o.:.#.A % .   . = , , > ; ; > ; = * = ",
", = ; ; : ; , , - , :     + 4 ~ %.*.{ l 2 < 8 E O.>.1.1.>.-.-.-.-.:.:.1.1.1.%.] n 2 : 6 R #.-.#.M % .   . , , , ; > ; ; - - - - ",
", = * : , ; ; ; , , ;     + 4 ~ *.*.{ s : * 4 G { +.%.&.@.#.#.+.+.+.+.@.%.$.O.^ r 1 * 4 T #.-.O.S % X   . , , , > ; ; ; ; - = - ",
", = = ; ; ; : ; ; ; >     + 4 ~ *.%./ 9 % $ % 2 d K T L T G P P P P K L T T A 9 = $ # < G o.-.#.H % .   . > ; ; ; > ; > , - - - ",
", ; = ; ; ; , ; ; > ;     + 4 / *.&.^ 4 @ o O @ % & * * & & & & & & & & * & & # + o O % l  .-.#.H % X   . ; > > ; ; ; , ; - = - ",
", ; * , , , , ; ; , >     + 4 _ =.$.Q , o       . X X X X . . X X X . X X X X       . # q X.*.#.G % X   . , > ; > > , > - = = - ",
", * ; ; : ; ; > > , ,     + 4 _ =.@.E = X                                             @ 9 X.*.#.K % .   . , ; ; , ; ; ; - - = = ",
", ; ; ; ; > , , ; > >     + 4 ` =.@.W * X                                             @ 9 | =.+.P % X   . ; : : = = : ; - - = = ",
", = * ; ; ; , = > ; ,     + 5 _ =.&.Q * X                                             + 9 | -.+.P & .   . : = * * = : ; ; - = - ",
", = = ; , , ; , ; ; ;     + 4 ` =.@.Q = X                                             @ 9 | :.+.G % X   . = : : : = ; ; - - = - ",
", ; ; = > ; > ; > ; ,     + 4 _ =.&.Q , o         . . . . . . . . .   . . . .         # 0 X.-.#.G & .   X , , , < , , , - = = = ",
", = * ; , : : = = , <     + 4 _ -.%.^ 3 @ X o + # $ % % % $ % $ $ $ $ % % % $ @ O X O % d  .:.+.G & X   . 1 2 6 5 4 2 , , * = - ",
", ; ; ; , = : = * > 2     + 4 _ >.=.( 9 % # $ < 0 x A A m l l m l m x m A A j 4 & # # : H #.1.+.G % .   . 2 9 s z 0 4 , : = = = ",
", - * , , = : = = > 4     + 4 / -.>.| s = & 2 m _ O.+.#.O.o.o.O.o.o.O.#.+.#. .Q 0 : & 4 W #.1.#.G % X   . 2 q A P x 6 1 = * * = ",
", = = : ; = : : * , 4     O 4 ~ %.*.{ z 1 < 8 Q O.>.1.1.1.:.-.=.-.:.>.1.1.1.*.| M 3 , 8 E #.:.O.M % .   . 4 q G P z 8 1 = * = = ",
", - = ; : : : * : : 4     O 1 Q #.+.~ r * & 4 x ( o.#.#.o.o.o.o.o.o.o.O.#.#. .E 0 : & 2 G  .@.X.d $ .   X 2 q A K z 6 2 = * * : ",
", = = * * : = * * , 2 .   O : G | | I 3 $ # % < 0 l M m m l l l l l x m m m d 4 * # # & r ^  .~ 9 # .   O 2 8 s z 0 4 2 = * = : ",
", = = * : * * = = , , .   o & d ^ ! p * + o o + # $ % % % $ $ $ $ $ $ % % % $ # O o o # 3 P ^ T 4 @ .   O 1 4 6 6 4 2 , = = = = ",
", = * = * : : = : : ,     o & 0 I J 6 $ X       . .   .   . . . . . .   . .           + = s T m 1 @   . + , , < 2 , , ; - = = = ",
", , , 1 1 < 1 , , , , .   o % 6 P M 4 # .                                             o & q P l , @   . + : = : = = : ; ; = = - ",
": < 2 5 9 6 6 3 , : , X   X % 8 K S 4 #                                               o & 0 K m 2 + .   O : * * * * : - ; : = - ",
"; < 6 i m s s 6 , * , X   o % 0 T G 4 #                                               O & s T S 2 @ .   o = * : : : ; ; , - = - ",
": 1 9 m K S A 9 2 : 2 X   X % 9 K G 6 # X                                             O * i T M 2 @ .   X * = - > > ; ; , - * = ",
"; 1 7 j G S S 0 4 2 4 o   o $ 8 G M 4 $ X       . . . . . . . . . . . . . . .       . + * r J x 2 @ .   X * : : ; ; > ; , = = - ",
"> < 3 9 i d a r 0 9 0 X   X # 2 s s 4 % + O O + @ # # # # # # # # # # # # # # @ O o O # = 9 z 9 * + .   X : = : > > ; ; ; - * - ",
"; < 4 9 i a s p 9 9 0 X   . @ * 6 6 2 * $ $ % & 1 4 4 4 4 2 4 3 2 4 2 4 4 4 2 , & $ $ % , 4 9 3 $ O     X ; ; ; ; > ; ; , - - - ",
"> = < 2 4 8 6 p l m z .   . + % 1 2 1 = & = 2 6 a A A A A m m m A m A A G A m q 4 , & * , 2 2 * # O     X : ; ; > ; ; ; , ; * - ",
", = = = : 4 2 0 A U M .   . O # * 1 , : : , 4 q S T T W T K L K L K I T W W G d 8 2 : * : < , % # o     X , , ; ; : ; > ; - - = ",
", * * & * 2 2 9 x A x X   . O $ * , : & % & > 2 8 q i i q q q q q q q i s i 0 6 2 & & & * : , & @ X     o , ; ; ; , > ; > ; = - ",
", * * * * 1 1 4 0 r 0 X   . O $ : , * $ # @ # $ % & & * & & & & & & & & & & & % # # @ # % : , & # o   . X , ; : ; ; ; > - - = - ",
", = = * : , , 1 2 4 2 o   . O % , < % @ o X X o O o O O O o O O o O o O O O o o X X X + $ * 1 * # o     o ; , , ; > > ; - = = - ",
", : ; ; , , , > , , : o     + % , = $ O .                                             o @ & = & # o     o , , ; > ; > ; ; - = - ",
", = * ; , = , = : * * o     o # % % @ o                 .         .     .             . + # % % @ X     o , ; : ; > ; ; ; = = = ",
", = = ; , = > = = * * o     . o + + o         . o O O O O o O O o O O O O O o X         X O @ + o       X = , , ; > ; ; - - = - ",
", > = ; > ; , = > : = X       . X X .       . o = , = : = : , = , = , , = , , , X         . X X         o : , , > ; ; ; - = = - ",
", ; = = = , , : : : = X                     o @ > ; ; ; > ; > ; , : , , ; ; : , O .                     O ; ; > ; > > , - - - - ",
", * - ; , , ; , , , ; o .       .         X O ; , , > , ; > ; ; , ; : ; ; ; ; , = o .               . X O ; > ; > ; - , > - = - ",
"< = = ; , , = , , , , : O o o o o o o o o + : , ; ; ; > > ; ; > , > ; ; ; > ; > ; , O o o o o o o o O O # : ; > ; , ; > - - = - ",
", = = = : ; , ; ; : - , , , , , ; ; : ; , , , ; , > > ; ; > > ; - , ; ; > ; > ; : , , = , , = , ; : ; - : : ; ; > , ; ; - = = - ",
", = = ; ; > ; > , , ; ; , , ; , , ; ; ; ; ; ; ; , ; > ; ; ; ; ; > ; ; ; ; ; > ; , ; , , > , ; , , ; ; ; , - , ; ; ; - - - - = - ",
", = * ; ; ; , ; , = , ; : ; ; ; , , ; ; > ; ; - ; ; , > , , ; ; ; ; ; ; ; > ; > ; ; > ; ; ; , , ; ; ; ; , , ; ; ; - - - - = = = ",
"; ; ; = ; ; ; , = = ; ; ; ; = : - - = - ; : - - = - - - ; - ; , ; : = - = - ; ; ; ; ; ; = = - = ; ; : : ; - - , : = - - - - = = ",
"; * * * ; ; * * ; = ; ; * ; * = - * = = = = = = = = - - ; * - * = = - = = = = - ; * ; * ; = ; ; * ; * = ; * - * = = - - * - * * "
};
